<?xml version="1.0" encoding="UTF-8" standalone="no"?>
<svg
   xmlns:dc="http://purl.org/dc/elements/1.1/"
   xmlns:cc="http://creativecommons.org/ns#"
   xmlns:rdf="http://www.w3.org/1999/02/22-rdf-syntax-ns#"
   xmlns:svg="http://www.w3.org/2000/svg"
   xmlns="http://www.w3.org/2000/svg"
   xmlns:sodipodi="http://sodipodi.sourceforge.net/DTD/sodipodi-0.dtd"
   xmlns:inkscape="http://www.inkscape.org/namespaces/inkscape"
   width="10cm"
   height="18cm"
   viewBox="173 177 200 348"
   version="1.1"
   id="svg211"
   sodipodi:docname="example_tree.svg"
   inkscape:version="0.92.3 (2405546, 2018-03-11)">
  <metadata
     id="metadata217">
    <rdf:RDF>
      <cc:Work
         rdf:about="">
        <dc:format>image/svg+xml</dc:format>
        <dc:type
           rdf:resource="http://purl.org/dc/dcmitype/StillImage" />
        <dc:title></dc:title>
      </cc:Work>
    </rdf:RDF>
  </metadata>
  <defs
     id="defs215" />
  <sodipodi:namedview
     pagecolor="#ffffff"
     bordercolor="#666666"
     borderopacity="1"
     objecttolerance="10"
     gridtolerance="10"
     guidetolerance="10"
     inkscape:pageopacity="0"
     inkscape:pageshadow="2"
     inkscape:window-width="1920"
     inkscape:window-height="1028"
     id="namedview213"
     showgrid="false"
     inkscape:zoom="0.98117613"
     inkscape:cx="23.125426"
     inkscape:cy="273.28431"
     inkscape:window-x="0"
     inkscape:window-y="28"
     inkscape:window-maximized="1"
     inkscape:current-layer="svg211" />
  <path
     style="fill:#ffffff;fill-opacity:1;fill-rule:evenodd;stroke:#000000;stroke-width:2;stroke-opacity:1"
     d="m 225.84,196 h 55.131 v 40 H 225.84 Z"
     id="polygon2" />
  <path
     style="fill:none;stroke:#000000;stroke-width:2;stroke-opacity:1"
     d="m 231.353,196 v 40"
     id="line4" />
  <path
     style="fill:none;stroke:#000000;stroke-width:2;stroke-opacity:1"
     d="m 275.45801,196 v 40"
     id="line6" />
  <g
     style="font-style:normal;font-weight:normal;font-size:12.80000019px;font-family:sans-serif;text-anchor:middle;fill:#000000;fill-opacity:1;stroke:none"
     id="text10" />
  <path
     style="fill:#ffffff;fill-opacity:1;fill-rule:evenodd;stroke:#000000;stroke-width:2;stroke-opacity:1"
     d="m 262.478,212.3 v -34 h 13.7 l 12,12 v 22 z"
     id="polygon14" />
  <path
     style="fill:none;stroke:#000000;stroke-width:1;stroke-opacity:1"
     d="m 276.178,178.3 v 12 h 12"
     id="polyline16" />
  <g
     aria-label="1"
     style="font-style:normal;font-weight:normal;font-size:12.80000019px;font-family:monospace;text-anchor:start;fill:#000000;fill-opacity:1;stroke:none"
     id="text20">
    <path
       d="m 271.1655,202.1375 h 1.9625 v -7.13125 l -2.1125,0.475 v -1.15 l 2.1,-0.4625 h 1.2625 v 8.26875 h 1.9375 V 203.2 h -5.15 z"
       style=""
       id="path1633" />
  </g>
  <path
     style="fill:#ffffff;fill-opacity:1;fill-rule:evenodd;stroke:#000000;stroke-width:2;stroke-opacity:1"
     d="m 175.4,374.492 h 70.875 v 40 H 175.4 Z"
     id="polygon24" />
  <path
     style="fill:none;stroke:#000000;stroke-width:2;stroke-opacity:1"
     d="m 182.48801,374.492 v 40"
     id="line26" />
  <path
     style="fill:none;stroke:#000000;stroke-width:2;stroke-opacity:1"
     d="m 239.188,374.492 v 40"
     id="line28" />
  <g
     aria-label="color"
     style="font-style:normal;font-weight:normal;font-size:12.80000019px;font-family:sans-serif;text-anchor:middle;fill:#000000;fill-opacity:1;stroke:none"
     id="text32">
    <path
       d="m 201.31925,391.76075 v 1.075 q -0.4875,-0.26875 -0.98125,-0.4 -0.4875,-0.1375 -0.9875,-0.1375 -1.11875,0 -1.7375,0.7125 -0.61875,0.70625 -0.61875,1.9875 0,1.28125 0.61875,1.99375 0.61875,0.70625 1.7375,0.70625 0.5,0 0.9875,-0.13125 0.49375,-0.1375 0.98125,-0.40625 v 1.0625 q -0.48125,0.225 -1,0.3375 -0.5125,0.1125 -1.09375,0.1125 -1.58125,0 -2.5125,-0.99375 -0.93125,-0.99375 -0.93125,-2.68125 0,-1.7125 0.9375,-2.69375 0.94375,-0.98125 2.58125,-0.98125 0.53125,0 1.0375,0.1125 0.50625,0.10625 0.98125,0.325 z"
       style=""
       id="path1639" />
    <path
       d="m 206.04425,392.29825 q -0.925,0 -1.4625,0.725 -0.5375,0.71875 -0.5375,1.975 0,1.25625 0.53125,1.98125 0.5375,0.71875 1.46875,0.71875 0.91875,0 1.45625,-0.725 0.5375,-0.725 0.5375,-1.975 0,-1.24375 -0.5375,-1.96875 -0.5375,-0.73125 -1.45625,-0.73125 z m 0,-0.975 q 1.5,0 2.35625,0.975 0.85625,0.975 0.85625,2.7 0,1.71875 -0.85625,2.7 -0.85625,0.975 -2.35625,0.975 -1.50625,0 -2.3625,-0.975 -0.85,-0.98125 -0.85,-2.7 0,-1.725 0.85,-2.7 0.85625,-0.975 2.3625,-0.975 z"
       style=""
       id="path1641" />
    <path
       d="m 211.15675,388.767 h 1.15 v 9.725 h -1.15 z"
       style=""
       id="path1643" />
    <path
       d="m 217.41925,392.29825 q -0.925,0 -1.4625,0.725 -0.5375,0.71875 -0.5375,1.975 0,1.25625 0.53125,1.98125 0.5375,0.71875 1.46875,0.71875 0.91875,0 1.45625,-0.725 0.5375,-0.725 0.5375,-1.975 0,-1.24375 -0.5375,-1.96875 -0.5375,-0.73125 -1.45625,-0.73125 z m 0,-0.975 q 1.5,0 2.35625,0.975 0.85625,0.975 0.85625,2.7 0,1.71875 -0.85625,2.7 -0.85625,0.975 -2.35625,0.975 -1.50625,0 -2.3625,-0.975 -0.85,-0.98125 -0.85,-2.7 0,-1.725 0.85,-2.7 0.85625,-0.975 2.3625,-0.975 z"
       style=""
       id="path1645" />
    <path
       d="m 226.588,392.567 q -0.19375,-0.1125 -0.425,-0.1625 -0.225,-0.0562 -0.5,-0.0562 -0.975,0 -1.5,0.6375 -0.51875,0.63125 -0.51875,1.81875 v 3.6875 H 222.488 v -7 h 1.15625 v 1.0875 q 0.3625,-0.6375 0.94375,-0.94375 0.58125,-0.3125 1.4125,-0.3125 0.11875,0 0.2625,0.0188 0.14375,0.0125 0.31875,0.0437 z"
       style=""
       id="path1647" />
  </g>
  <path
     style="fill:#ffffff;fill-opacity:1;fill-rule:evenodd;stroke:#000000;stroke-width:2;stroke-opacity:1"
     d="m 234.15,388.364 v -34 h 13.7 l 12,12 v 22 z"
     id="polygon36" />
  <path
     style="fill:none;stroke:#000000;stroke-width:1;stroke-opacity:1"
     d="m 247.85,354.364 v 12 h 12"
     id="polyline38" />
  <g
     aria-label="1"
     style="font-style:normal;font-weight:normal;font-size:12.80000019px;font-family:monospace;text-anchor:start;fill:#000000;fill-opacity:1;stroke:none"
     id="text42">
    <path
       d="m 242.83749,378.20151 h 1.9625 v -7.13125 l -2.1125,0.475 v -1.15 l 2.1,-0.4625 h 1.2625 v 8.26875 h 1.9375 v 1.0625 h -5.15 z"
       style=""
       id="path1652" />
  </g>
  <path
     style="fill:#ffffff;fill-opacity:1;fill-rule:evenodd;stroke:#000000;stroke-width:2;stroke-opacity:1"
     d="m 219.262,291.302 h 66.625 v 40 h -66.625 z"
     id="polygon46" />
  <path
     style="fill:none;stroke:#000000;stroke-width:2;stroke-opacity:1"
     d="m 225.925,291.302 v 40"
     id="line48" />
  <path
     style="fill:none;stroke:#000000;stroke-width:2;stroke-opacity:1"
     d="m 279.22501,291.302 v 40"
     id="line50" />
  <g
     aria-label="Pixel"
     style="font-style:normal;font-weight:normal;font-size:12.80000019px;font-family:sans-serif;text-anchor:middle;fill:#000000;fill-opacity:1;stroke:none"
     id="text54">
    <path
       d="m 240.29375,307.00825 v 3.50625 h 1.5875 q 0.88125,0 1.3625,-0.45625 0.48125,-0.45625 0.48125,-1.3 0,-0.8375 -0.48125,-1.29375 -0.48125,-0.45625 -1.3625,-0.45625 z m -1.2625,-1.0375 h 2.85 q 1.56875,0 2.36875,0.7125 0.80625,0.70625 0.80625,2.075 0,1.38125 -0.80625,2.0875 -0.8,0.70625 -2.36875,0.70625 h -1.5875 v 3.75 h -1.2625 z"
       style=""
       id="path1658" />
    <path
       d="m 246.43125,308.302 h 1.15 v 7 h -1.15 z m 0,-2.725 h 1.15 v 1.45625 h -1.15 z"
       style=""
       id="path1660" />
    <path
       d="m 255.8,308.302 -2.53125,3.40625 2.6625,3.59375 H 254.575 l -2.0375,-2.75 -2.0375,2.75 h -1.35625 l 2.71875,-3.6625 -2.4875,-3.3375 h 1.35625 l 1.85625,2.49375 1.85625,-2.49375 z"
       style=""
       id="path1662" />
    <path
       d="m 263.14375,311.5145 v 0.5625 h -5.2875 q 0.075,1.1875 0.7125,1.8125 0.64375,0.61875 1.7875,0.61875 0.6625,0 1.28125,-0.1625 0.625,-0.1625 1.2375,-0.4875 v 1.0875 q -0.61875,0.2625 -1.26875,0.4 -0.65,0.1375 -1.31875,0.1375 -1.675,0 -2.65625,-0.975 -0.975,-0.975 -0.975,-2.6375 0,-1.71875 0.925,-2.725 0.93125,-1.0125 2.50625,-1.0125 1.4125,0 2.23125,0.9125 0.825,0.90625 0.825,2.46875 z m -1.15,-0.3375 q -0.0125,-0.94375 -0.53125,-1.50625 -0.5125,-0.5625 -1.3625,-0.5625 -0.9625,0 -1.54375,0.54375 -0.575,0.54375 -0.6625,1.53125 z"
       style=""
       id="path1664" />
    <path
       d="m 265.03125,305.577 h 1.15 v 9.725 h -1.15 z"
       style=""
       id="path1666" />
  </g>
  <path
     style="fill:#ffffff;fill-opacity:1;fill-rule:evenodd;stroke:#000000;stroke-width:2;stroke-opacity:1"
     d="m 274.464,304.774 v -34 h 13.7 l 12,12 v 22 z"
     id="polygon58" />
  <path
     style="fill:none;stroke:#000000;stroke-width:1;stroke-opacity:1"
     d="m 288.164,270.774 v 12 h 12"
     id="polyline60" />
  <g
     aria-label="4"
     style="font-style:normal;font-weight:normal;font-size:12.80000019px;font-family:monospace;text-anchor:start;fill:#000000;fill-opacity:1;stroke:none"
     id="text64">
    <path
       d="m 286.05774,287.49276 -2.94375,4.93125 h 2.94375 z m -0.20625,-1.15 h 1.4625 v 6.08125 h 1.24375 v 1.025 h -1.24375 v 2.225 h -1.25625 v -2.225 h -3.95625 v -1.19375 z"
       style=""
       id="path1671" />
  </g>
  <path
     style="fill:none;stroke:#000000;stroke-width:2;stroke-opacity:1"
     d="m 253.40601,236 -0.666,44.30301"
     id="line68" />
  <path
     style="fill:#000000;fill-opacity:1;fill-rule:evenodd;stroke:#000000;stroke-width:2;stroke-opacity:1"
     d="m 252.59,290.302 5.149,-9.924 -9.999,-0.15 z"
     id="polygon70" />
  <path
     style="fill:none;stroke:#000000;stroke-width:2;stroke-opacity:1"
     d="m 238.70599,332.298 -21.806,33.01499"
     id="line74" />
  <path
     style="fill:#000000;fill-opacity:1;fill-rule:evenodd;stroke:#000000;stroke-width:2;stroke-opacity:1"
     d="m 211.389,373.658 9.683,-5.589 -8.344,-5.511 z"
     id="polygon76" />
  <path
     style="fill:none;stroke:#000000;stroke-width:2;stroke-opacity:1"
     d="m 269.702,332.30701 27.259,33.432"
     id="line80" />
  <path
     style="fill:#000000;fill-opacity:1;fill-rule:evenodd;stroke:#000000;stroke-width:2;stroke-opacity:1"
     d="m 303.281,373.489 -2.444,-10.91 -7.751,6.319 z"
     id="polygon82" />
  <path
     style="fill:none;stroke:#000000;stroke-width:2;stroke-opacity:1"
     d="M 227.51199,415.49799 261.37,458.151"
     id="line86" />
  <path
     style="fill:#000000;fill-opacity:1;fill-rule:evenodd;stroke:#000000;stroke-width:2;stroke-opacity:1"
     d="m 267.587,465.983 -2.301,-10.941 -7.832,6.217 z"
     id="polygon88" />
  <path
     style="fill:none;stroke:#000000;stroke-width:2;stroke-opacity:1"
     d="M 207.444,415.43399 201.205,453.944"
     id="line92" />
  <path
     style="fill:#000000;fill-opacity:1;fill-rule:evenodd;stroke:#000000;stroke-width:2;stroke-opacity:1"
     d="m 199.605,463.815 6.535,-9.072 -9.871,-1.599 z"
     id="polygon94" />
  <path
     style="fill:none;stroke:#000000;stroke-width:2;stroke-opacity:1"
     d="M 246.27499,415.13599 324.517,460.715"
     id="line98" />
  <path
     style="fill:#000000;fill-opacity:1;fill-rule:evenodd;stroke:#000000;stroke-width:2;stroke-opacity:1"
     d="m 333.158,465.749 -6.124,-9.354 -5.034,8.641 z"
     id="polygon100" />
  <g
     aria-label=" pad"
     style="font-style:normal;font-weight:normal;font-size:12.80000019px;font-family:sans-serif;text-anchor:start;fill:#000000;fill-opacity:1;stroke:none"
     id="text106">
    <path
       d="m 330.03874,348.868 v 3.7125 h -1.15625 v -9.6625 h 1.15625 v 1.0625 q 0.3625,-0.625 0.9125,-0.925 0.55625,-0.30625 1.325,-0.30625 1.275,0 2.06875,1.0125 0.8,1.0125 0.8,2.6625 0,1.65 -0.8,2.6625 -0.79375,1.0125 -2.06875,1.0125 -0.76875,0 -1.325,-0.3 -0.55,-0.30625 -0.9125,-0.93125 z m 3.9125,-2.44375 q 0,-1.26875 -0.525,-1.9875 -0.51875,-0.725 -1.43125,-0.725 -0.9125,0 -1.4375,0.725 -0.51875,0.71875 -0.51875,1.9875 0,1.26875 0.51875,1.99375 0.525,0.71875 1.4375,0.71875 0.9125,0 1.43125,-0.71875 0.525,-0.725 0.525,-1.99375 z"
       style=""
       id="path1686" />
    <path
       d="m 340.23249,346.39925 q -1.39375,0 -1.93125,0.31875 -0.5375,0.31875 -0.5375,1.0875 0,0.6125 0.4,0.975 0.40625,0.35625 1.1,0.35625 0.95625,0 1.53125,-0.675 0.58125,-0.68125 0.58125,-1.80625 v -0.25625 z m 2.29375,-0.475 v 3.99375 h -1.15 v -1.0625 q -0.39375,0.6375 -0.98125,0.94375 -0.5875,0.3 -1.4375,0.3 -1.075,0 -1.7125,-0.6 -0.63125,-0.60625 -0.63125,-1.61875 0,-1.18125 0.7875,-1.78125 0.79375,-0.6 2.3625,-0.6 h 1.6125 v -0.1125 q 0,-0.79375 -0.525,-1.225 -0.51875,-0.4375 -1.4625,-0.4375 -0.6,0 -1.16875,0.14375 -0.56875,0.14375 -1.09375,0.43125 v -1.0625 q 0.63125,-0.24375 1.225,-0.3625 0.59375,-0.125 1.15625,-0.125 1.51875,0 2.26875,0.7875 0.75,0.7875 0.75,2.3875 z"
       style=""
       id="path1688" />
    <path
       d="m 349.50749,343.9805 v -3.7875 h 1.15 v 9.725 h -1.15 v -1.05 q -0.3625,0.625 -0.91875,0.93125 -0.55,0.3 -1.325,0.3 -1.26875,0 -2.06875,-1.0125 -0.79375,-1.0125 -0.79375,-2.6625 0,-1.65 0.79375,-2.6625 0.8,-1.0125 2.06875,-1.0125 0.775,0 1.325,0.30625 0.55625,0.3 0.91875,0.925 z m -3.91875,2.44375 q 0,1.26875 0.51875,1.99375 0.525,0.71875 1.4375,0.71875 0.9125,0 1.4375,-0.71875 0.525,-0.725 0.525,-1.99375 0,-1.26875 -0.525,-1.9875 -0.525,-0.725 -1.4375,-0.725 -0.9125,0 -1.4375,0.725 -0.51875,0.71875 -0.51875,1.9875 z"
       style=""
       id="path1690" />
  </g>
  <path
     style="fill:#b8bab7;fill-opacity:1;fill-rule:evenodd;stroke:#000000;stroke-width:2;stroke-opacity:1"
     d="m 322.362,295.768 h 30.076 c 3.759,8 4.962,12 4.962,20 0,8 -1.203,12 -4.962,20 h -30.076 c -3.759,-8 -4.962,-12 -4.962,-20 0,-8 1.203,-12 4.962,-20 z"
     id="path108"
     inkscape:connector-curvature="0" />
  <g
     style="font-style:normal;font-weight:normal;font-size:12.80000019px;font-family:sans-serif;text-anchor:middle;fill:#000000;fill-opacity:1;stroke:none"
     id="text112" />
  <path
     style="fill:#ffffff;fill-opacity:1;fill-rule:evenodd;stroke:#000000;stroke-width:2;stroke-opacity:1"
     d="m 346.304,312.3 v -34 h 13.7 l 12,12 v 22 z"
     id="polygon114" />
  <path
     style="fill:none;stroke:#000000;stroke-width:1;stroke-opacity:1"
     d="m 360.004,278.3 v 12 h 12"
     id="polyline116" />
  <g
     aria-label="1"
     style="font-style:normal;font-weight:normal;font-size:12.80000019px;font-family:monospace;text-anchor:start;fill:#000000;fill-opacity:1;stroke:none"
     id="text120">
    <path
       d="m 354.99149,302.13751 h 1.9625 v -7.13125 l -2.1125,0.475 v -1.15 l 2.1,-0.4625 h 1.2625 v 8.26875 h 1.9375 v 1.0625 h -5.15 z"
       style=""
       id="path1696" />
  </g>
  <path
     style="fill:none;stroke:#000000;stroke-width:2;stroke-opacity:1"
     d="m 286.88,313.108 18.55701,0.97699"
     id="line124" />
  <path
     style="fill:#000000;fill-opacity:1;fill-rule:evenodd;stroke:#000000;stroke-width:2;stroke-opacity:1"
     d="m 315.423,314.611 -9.723,-5.519 -0.526,9.986 z"
     id="polygon126" />
  <g
     aria-label=" float"
     style="font-style:normal;font-weight:normal;font-size:12.80000019px;font-family:sans-serif;text-anchor:start;fill:#000000;fill-opacity:1;stroke:none"
     id="text132">
    <path
       d="m 257.2845,511.73697 h 3.2 v 9.72501 h -1.15625 v -8.76876 H 257.272 q -0.61875,0 -0.8625,0.25 -0.2375,0.25 -0.2375,0.9 v 0.61875 h 1.89375 v 0.89376 H 256.172 v 6.10625 h -1.15625 v -6.10625 h -1.1 v -0.89376 h 1.1 v -0.4875 q 0,-1.16875 0.54375,-1.7 0.54375,-0.5375 1.725,-0.5375 z"
       style=""
       id="path1701" />
    <path
       d="m 265.61575,515.26823 q -0.925,0 -1.4625,0.725 -0.5375,0.71875 -0.5375,1.975 0,1.25625 0.53125,1.98125 0.5375,0.71875 1.46875,0.71875 0.91875,0 1.45625,-0.725 0.5375,-0.725 0.5375,-1.975 0,-1.24375 -0.5375,-1.96875 -0.5375,-0.73125 -1.45625,-0.73125 z m 0,-0.97501 q 1.5,0 2.35625,0.97501 0.85625,0.975 0.85625,2.7 0,1.71875 -0.85625,2.7 -0.85625,0.975 -2.35625,0.975 -1.50625,0 -2.3625,-0.975 -0.85,-0.98125 -0.85,-2.7 0,-1.725 0.85,-2.7 0.85625,-0.97501 2.3625,-0.97501 z"
       style=""
       id="path1703" />
    <path
       d="m 273.9095,517.94323 q -1.39375,0 -1.93125,0.31875 -0.5375,0.31875 -0.5375,1.0875 0,0.6125 0.4,0.975 0.40625,0.35625 1.1,0.35625 0.95625,0 1.53125,-0.675 0.58125,-0.68125 0.58125,-1.80625 v -0.25625 z m 2.29375,-0.475 v 3.99375 h -1.15 v -1.0625 q -0.39375,0.6375 -0.98125,0.94375 -0.5875,0.3 -1.4375,0.3 -1.075,0 -1.7125,-0.6 -0.63125,-0.60625 -0.63125,-1.61875 0,-1.18125 0.7875,-1.78125 0.79375,-0.6 2.3625,-0.6 h 1.6125 v -0.1125 q 0,-0.79375 -0.525,-1.225 -0.51875,-0.4375 -1.4625,-0.4375 -0.6,0 -1.16875,0.14375 -0.56875,0.14375 -1.09375,0.43125 v -1.06251 q 0.63125,-0.24375 1.225,-0.3625 0.59375,-0.125 1.15625,-0.125 1.51875,0 2.26875,0.78751 0.75,0.7875 0.75,2.3875 z"
       style=""
       id="path1705" />
    <path
       d="m 279.71575,512.47447 v 1.9875 h 2.36875 v 0.89376 h -2.36875 v 3.8 q 0,0.85625 0.23125,1.1 0.2375,0.24375 0.95625,0.24375 h 1.18125 v 0.9625 h -1.18125 q -1.33125,0 -1.8375,-0.49375 -0.50625,-0.5 -0.50625,-1.8125 v -3.8 h -0.84375 v -0.89376 h 0.84375 v -1.9875 z"
       style=""
       id="path1707" />
  </g>
  <path
     style="fill:#b8e1e2;fill-opacity:1;fill-rule:evenodd;stroke:#000000;stroke-width:2;stroke-opacity:1"
     d="m 253.171,466.766 h 30.075 c 3.76,8 4.963,12 4.963,20 0,8 -1.203,12 -4.963,20 h -30.075 c -3.759,-8 -4.962,-12 -4.962,-20 0,-8 1.203,-12 4.962,-20 z"
     id="path134"
     inkscape:connector-curvature="0" />
  <g
     aria-label="g"
     style="font-style:normal;font-weight:normal;font-size:12.80000019px;font-family:sans-serif;text-anchor:middle;fill:#000000;fill-opacity:1;stroke:none"
     id="text138">
    <path
       d="m 269.95901,487.18474 q 0,-1.25 -0.51875,-1.9375 -0.5125,-0.6875 -1.44375,-0.6875 -0.925,0 -1.44375,0.6875 -0.5125,0.6875 -0.5125,1.9375 0,1.24375 0.5125,1.93125 0.51875,0.6875 1.44375,0.6875 0.93125,0 1.44375,-0.6875 0.51875,-0.6875 0.51875,-1.93125 z m 1.15,2.7125 q 0,1.7875 -0.79375,2.65625 -0.79375,0.875 -2.43125,0.875 -0.60625,0 -1.14375,-0.0937 -0.5375,-0.0875 -1.04375,-0.275 v -1.11875 q 0.50625,0.275 1,0.40625 0.49375,0.13125 1.00625,0.13125 1.13125,0 1.69375,-0.59375 0.5625,-0.5875 0.5625,-1.78125 v -0.56875 q -0.35625,0.61875 -0.9125,0.925 -0.55625,0.30625 -1.33125,0.30625 -1.2875,0 -2.075,-0.98125 -0.7875,-0.98125 -0.7875,-2.6 0,-1.625 0.7875,-2.60625 0.7875,-0.98125 2.075,-0.98125 0.775,0 1.33125,0.30625 0.55625,0.30625 0.9125,0.925 v -1.0625 h 1.15 z"
       style=""
       id="path1710" />
  </g>
  <path
     style="fill:#ffffff;fill-opacity:1;fill-rule:evenodd;stroke:#000000;stroke-width:2;stroke-opacity:1"
     d="m 277.113,483.298 v -34 h 13.7 l 12,12 v 22 z"
     id="polygon140" />
  <path
     style="fill:none;stroke:#000000;stroke-width:1;stroke-opacity:1"
     d="m 290.813,449.298 v 12 h 12"
     id="polyline142" />
  <g
     aria-label="3"
     style="font-style:normal;font-weight:normal;font-size:12.80000019px;font-family:monospace;text-anchor:start;fill:#000000;fill-opacity:1;stroke:none"
     id="text146">
    <path
       d="m 288.96301,469.20425 q 0.91875,0.24375 1.40625,0.86875 0.4875,0.61875 0.4875,1.55 0,1.2875 -0.86875,2.025 -0.8625,0.73125 -2.39375,0.73125 -0.64375,0 -1.3125,-0.11875 -0.66875,-0.11875 -1.3125,-0.34375 v -1.25625 q 0.6375,0.33125 1.25625,0.49375 0.61875,0.1625 1.23125,0.1625 1.0375,0 1.59375,-0.46875 0.55625,-0.46875 0.55625,-1.35 0,-0.8125 -0.55625,-1.2875 -0.55625,-0.48125 -1.50625,-0.48125 h -0.9625 v -1.0375 h 0.9625 q 0.86875,0 1.35625,-0.38125 0.4875,-0.38125 0.4875,-1.0625 0,-0.71875 -0.45625,-1.1 -0.45,-0.3875 -1.2875,-0.3875 -0.55625,0 -1.15,0.125 -0.59375,0.125 -1.24375,0.375 v -1.1625 q 0.75625,-0.2 1.34375,-0.3 0.59375,-0.1 1.05,-0.1 1.3625,0 2.175,0.6875 0.81875,0.68125 0.81875,1.8125 0,0.76875 -0.43125,1.28125 -0.425,0.5125 -1.24375,0.725 z"
       style=""
       id="path1715" />
  </g>
  <path
     style="fill:#b8e1e2;fill-opacity:1;fill-rule:evenodd;stroke:#000000;stroke-width:2;stroke-opacity:1"
     d="m 184.408,464.802 h 30.075 c 3.76,8 4.963,12 4.963,20 0,8 -1.203,12 -4.963,20 h -30.075 c -3.759,-8 -4.962,-12 -4.962,-20 0,-8 1.203,-12 4.962,-20 z"
     id="path150"
     inkscape:connector-curvature="0" />
  <g
     aria-label="r"
     style="font-style:normal;font-weight:normal;font-size:12.80000019px;font-family:sans-serif;text-anchor:middle;fill:#000000;fill-opacity:1;stroke:none"
     id="text154">
    <path
       d="m 202.071,482.877 q -0.19375,-0.1125 -0.425,-0.1625 -0.225,-0.0562 -0.5,-0.0562 -0.975,0 -1.5,0.6375 -0.51875,0.63125 -0.51875,1.81875 v 3.6875 H 197.971 v -7 h 1.15625 v 1.0875 q 0.3625,-0.6375 0.94375,-0.94375 0.58125,-0.3125 1.4125,-0.3125 0.11875,0 0.2625,0.0188 0.14375,0.0125 0.31875,0.0437 z"
       style=""
       id="path1718" />
  </g>
  <g
     aria-label=" float"
     style="font-style:normal;font-weight:normal;font-size:12.80000019px;font-family:sans-serif;text-anchor:start;fill:#000000;fill-opacity:1;stroke:none"
     id="text158">
    <path
       d="m 190.8995,510.15897 h 3.2 v 9.725 h -1.15625 v -8.76875 H 190.887 q -0.61875,0 -0.8625,0.25 -0.2375,0.25 -0.2375,0.9 v 0.61875 h 1.89375 v 0.89375 H 189.787 v 6.10625 h -1.15625 v -6.10625 h -1.1 v -0.89375 h 1.1 v -0.4875 q 0,-1.16875 0.54375,-1.7 0.54375,-0.5375 1.725,-0.5375 z"
       style=""
       id="path1721" />
    <path
       d="m 199.23075,513.69022 q -0.925,0 -1.4625,0.725 -0.5375,0.71875 -0.5375,1.975 0,1.25625 0.53125,1.98125 0.5375,0.71875 1.46875,0.71875 0.91875,0 1.45625,-0.725 0.5375,-0.725 0.5375,-1.975 0,-1.24375 -0.5375,-1.96875 -0.5375,-0.73125 -1.45625,-0.73125 z m 0,-0.975 q 1.5,0 2.35625,0.975 0.85625,0.975 0.85625,2.7 0,1.71875 -0.85625,2.7 -0.85625,0.975 -2.35625,0.975 -1.50625,0 -2.3625,-0.975 -0.85,-0.98125 -0.85,-2.7 0,-1.725 0.85,-2.7 0.85625,-0.975 2.3625,-0.975 z"
       style=""
       id="path1723" />
    <path
       d="m 207.5245,516.36522 q -1.39375,0 -1.93125,0.31875 -0.5375,0.31875 -0.5375,1.0875 0,0.6125 0.4,0.975 0.40625,0.35625 1.1,0.35625 0.95625,0 1.53125,-0.675 0.58125,-0.68125 0.58125,-1.80625 v -0.25625 z m 2.29375,-0.475 v 3.99375 h -1.15 v -1.0625 q -0.39375,0.6375 -0.98125,0.94375 -0.5875,0.3 -1.4375,0.3 -1.075,0 -1.7125,-0.6 -0.63125,-0.60625 -0.63125,-1.61875 0,-1.18125 0.7875,-1.78125 0.79375,-0.6 2.3625,-0.6 h 1.6125 v -0.1125 q 0,-0.79375 -0.525,-1.225 -0.51875,-0.4375 -1.4625,-0.4375 -0.6,0 -1.16875,0.14375 -0.56875,0.14375 -1.09375,0.43125 v -1.0625 q 0.63125,-0.24375 1.225,-0.3625 0.59375,-0.125 1.15625,-0.125 1.51875,0 2.26875,0.7875 0.75,0.7875 0.75,2.3875 z"
       style=""
       id="path1725" />
    <path
       d="m 213.33075,510.89647 v 1.9875 h 2.36875 v 0.89375 h -2.36875 v 3.8 q 0,0.85625 0.23125,1.1 0.2375,0.24375 0.95625,0.24375 h 1.18125 v 0.9625 h -1.18125 q -1.33125,0 -1.8375,-0.49375 -0.50625,-0.5 -0.50625,-1.8125 v -3.8 h -0.84375 v -0.89375 h 0.84375 v -1.9875 z"
       style=""
       id="path1727" />
  </g>
  <path
     style="fill:#ffffff;fill-opacity:1;fill-rule:evenodd;stroke:#000000;stroke-width:2;stroke-opacity:1"
     d="m 211.394,480.762 v -34 h 13.7 l 12,12 v 22 z"
     id="polygon160" />
  <path
     style="fill:none;stroke:#000000;stroke-width:1;stroke-opacity:1"
     d="m 225.094,446.762 v 12 h 12"
     id="polyline162" />
  <g
     aria-label="3"
     style="font-style:normal;font-weight:normal;font-size:12.80000019px;font-family:monospace;text-anchor:start;fill:#000000;fill-opacity:1;stroke:none"
     id="text166">
    <path
       d="m 223.244,466.66824 q 0.91875,0.24375 1.40625,0.86875 0.4875,0.61875 0.4875,1.55 0,1.2875 -0.86875,2.025 -0.8625,0.73125 -2.39375,0.73125 -0.64375,0 -1.3125,-0.11875 -0.66875,-0.11875 -1.3125,-0.34375 v -1.25625 q 0.6375,0.33125 1.25625,0.49375 0.61875,0.1625 1.23125,0.1625 1.0375,0 1.59375,-0.46875 0.55625,-0.46875 0.55625,-1.35 0,-0.8125 -0.55625,-1.2875 -0.55625,-0.48125 -1.50625,-0.48125 h -0.9625 v -1.0375 h 0.9625 q 0.86875,0 1.35625,-0.38125 0.4875,-0.38125 0.4875,-1.0625 0,-0.71875 -0.45625,-1.1 -0.45,-0.3875 -1.2875,-0.3875 -0.55625,0 -1.15,0.125 -0.59375,0.125 -1.24375,0.375 v -1.1625 q 0.75625,-0.2 1.34375,-0.3 0.59375,-0.1 1.05,-0.1 1.3625,0 2.175,0.6875 0.81875,0.68125 0.81875,1.8125 0,0.76875 -0.43125,1.28125 -0.425,0.5125 -1.24375,0.725 z"
       style=""
       id="path1732" />
  </g>
  <g
     aria-label=" char"
     style="font-style:normal;font-weight:normal;font-size:12.80000019px;font-family:sans-serif;text-anchor:start;fill:#000000;fill-opacity:1;stroke:none"
     id="text172">
    <path
       d="m 298.45675,420.12474 v 1.075 q -0.4875,-0.26875 -0.98125,-0.4 -0.4875,-0.1375 -0.9875,-0.1375 -1.11875,0 -1.7375,0.7125 -0.61875,0.70625 -0.61875,1.9875 0,1.28125 0.61875,1.99375 0.61875,0.70625 1.7375,0.70625 0.5,0 0.9875,-0.13125 0.49375,-0.1375 0.98125,-0.40625 v 1.0625 q -0.48125,0.225 -1,0.3375 -0.5125,0.1125 -1.09375,0.1125 -1.58125,0 -2.5125,-0.99375 -0.93125,-0.99375 -0.93125,-2.68125 0,-1.7125 0.9375,-2.69375 0.94375,-0.98125 2.58125,-0.98125 0.53125,0 1.0375,0.1125 0.50625,0.10625 0.98125,0.325 z"
       style=""
       id="path1735" />
    <path
       d="m 306.288,422.63099 v 4.225 h -1.15 v -4.1875 q 0,-0.99375 -0.3875,-1.4875 -0.3875,-0.49375 -1.1625,-0.49375 -0.93125,0 -1.46875,0.59375 -0.5375,0.59375 -0.5375,1.61875 v 3.95625 h -1.15625 v -9.725 h 1.15625 v 3.8125 q 0.4125,-0.63125 0.96875,-0.94375 0.5625,-0.3125 1.29375,-0.3125 1.20625,0 1.825,0.75 0.61875,0.74375 0.61875,2.19375 z"
       style=""
       id="path1737" />
    <path
       d="m 311.7755,423.33724 q -1.39375,0 -1.93125,0.31875 -0.5375,0.31875 -0.5375,1.0875 0,0.6125 0.4,0.975 0.40625,0.35625 1.1,0.35625 0.95625,0 1.53125,-0.675 0.58125,-0.68125 0.58125,-1.80625 v -0.25625 z m 2.29375,-0.475 v 3.99375 h -1.15 v -1.0625 q -0.39375,0.6375 -0.98125,0.94375 -0.5875,0.3 -1.4375,0.3 -1.075,0 -1.7125,-0.6 -0.63125,-0.60625 -0.63125,-1.61875 0,-1.18125 0.7875,-1.78125 0.79375,-0.6 2.3625,-0.6 h 1.6125 v -0.1125 q 0,-0.79375 -0.525,-1.225 -0.51875,-0.4375 -1.4625,-0.4375 -0.6,0 -1.16875,0.14375 -0.56875,0.14375 -1.09375,0.43125 v -1.0625 q 0.63125,-0.24375 1.225,-0.3625 0.59375,-0.125 1.15625,-0.125 1.51875,0 2.26875,0.7875 0.75,0.7875 0.75,2.3875 z"
       style=""
       id="path1739" />
    <path
       d="m 320.5005,420.93099 q -0.19375,-0.1125 -0.425,-0.1625 -0.225,-0.0562 -0.5,-0.0562 -0.975,0 -1.5,0.6375 -0.51875,0.63125 -0.51875,1.81875 v 3.6875 h -1.15625 v -7 h 1.15625 v 1.0875 q 0.3625,-0.6375 0.94375,-0.94375 0.58125,-0.3125 1.4125,-0.3125 0.11875,0 0.2625,0.0188 0.14375,0.0125 0.31875,0.0437 z"
       style=""
       id="path1741" />
  </g>
  <path
     style="fill:#f17017;fill-opacity:1;fill-rule:evenodd;stroke:#000000;stroke-width:2;stroke-opacity:1"
     d="m 279.338,374.264 h 49.15 c 6.144,8 8.11,12 8.11,20 0,8 -1.966,12 -8.11,20 h -49.15 c -6.144,-8 -8.11,-12 -8.11,-20 0,-8 1.966,-12 8.11,-20 z"
     id="path174"
     inkscape:connector-curvature="0" />
  <g
     aria-label="alpha"
     style="font-style:normal;font-weight:normal;font-size:12.80000019px;font-family:sans-serif;text-anchor:middle;fill:#000000;fill-opacity:1;stroke:none"
     id="text178">
    <path
       d="m 290.55049,394.74526 q -1.39375,0 -1.93125,0.31875 -0.5375,0.31875 -0.5375,1.0875 0,0.6125 0.4,0.975 0.40625,0.35625 1.1,0.35625 0.95625,0 1.53125,-0.675 0.58125,-0.68125 0.58125,-1.80625 v -0.25625 z m 2.29375,-0.475 v 3.99375 h -1.15 v -1.0625 q -0.39375,0.6375 -0.98125,0.94375 -0.5875,0.3 -1.4375,0.3 -1.075,0 -1.7125,-0.6 -0.63125,-0.60625 -0.63125,-1.61875 0,-1.18125 0.7875,-1.78125 0.79375,-0.6 2.3625,-0.6 h 1.6125 v -0.1125 q 0,-0.79375 -0.525,-1.225 -0.51875,-0.4375 -1.4625,-0.4375 -0.6,0 -1.16875,0.14375 -0.56875,0.14375 -1.09375,0.43125 v -1.0625 q 0.63125,-0.24375 1.225,-0.3625 0.59375,-0.125 1.15625,-0.125 1.51875,0 2.26875,0.7875 0.75,0.7875 0.75,2.3875 z"
       style=""
       id="path1744" />
    <path
       d="m 295.21924,388.53901 h 1.15 v 9.725 h -1.15 z"
       style=""
       id="path1746" />
    <path
       d="m 299.88174,397.21401 v 3.7125 h -1.15625 v -9.6625 h 1.15625 v 1.0625 q 0.3625,-0.625 0.9125,-0.925 0.55625,-0.30625 1.325,-0.30625 1.275,0 2.06875,1.0125 0.8,1.0125 0.8,2.6625 0,1.65 -0.8,2.6625 -0.79375,1.0125 -2.06875,1.0125 -0.76875,0 -1.325,-0.3 -0.55,-0.30625 -0.9125,-0.93125 z m 3.9125,-2.44375 q 0,-1.26875 -0.525,-1.9875 -0.51875,-0.725 -1.43125,-0.725 -0.9125,0 -1.4375,0.725 -0.51875,0.71875 -0.51875,1.9875 0,1.26875 0.51875,1.99375 0.525,0.71875 1.4375,0.71875 0.9125,0 1.43125,-0.71875 0.525,-0.725 0.525,-1.99375 z"
       style=""
       id="path1748" />
    <path
       d="m 312.71299,394.03901 v 4.225 h -1.15 v -4.1875 q 0,-0.99375 -0.3875,-1.4875 -0.3875,-0.49375 -1.1625,-0.49375 -0.93125,0 -1.46875,0.59375 -0.5375,0.59375 -0.5375,1.61875 v 3.95625 h -1.15625 v -9.725 h 1.15625 v 3.8125 q 0.4125,-0.63125 0.96875,-0.94375 0.5625,-0.3125 1.29375,-0.3125 1.20625,0 1.825,0.75 0.61875,0.74375 0.61875,2.19375 z"
       style=""
       id="path1750" />
    <path
       d="m 318.20049,394.74526 q -1.39375,0 -1.93125,0.31875 -0.5375,0.31875 -0.5375,1.0875 0,0.6125 0.4,0.975 0.40625,0.35625 1.1,0.35625 0.95625,0 1.53125,-0.675 0.58125,-0.68125 0.58125,-1.80625 v -0.25625 z m 2.29375,-0.475 v 3.99375 h -1.15 v -1.0625 q -0.39375,0.6375 -0.98125,0.94375 -0.5875,0.3 -1.4375,0.3 -1.075,0 -1.7125,-0.6 -0.63125,-0.60625 -0.63125,-1.61875 0,-1.18125 0.7875,-1.78125 0.79375,-0.6 2.3625,-0.6 h 1.6125 v -0.1125 q 0,-0.79375 -0.525,-1.225 -0.51875,-0.4375 -1.4625,-0.4375 -0.6,0 -1.16875,0.14375 -0.56875,0.14375 -1.09375,0.43125 v -1.0625 q 0.63125,-0.24375 1.225,-0.3625 0.59375,-0.125 1.15625,-0.125 1.51875,0 2.26875,0.7875 0.75,0.7875 0.75,2.3875 z"
       style=""
       id="path1752" />
  </g>
  <path
     style="fill:#ffffff;fill-opacity:1;fill-rule:evenodd;stroke:#000000;stroke-width:2;stroke-opacity:1"
     d="m 323.034,388.748 v -34 h 13.7 l 12,12 v 22 z"
     id="polygon180" />
  <path
     style="fill:none;stroke:#000000;stroke-width:1;stroke-opacity:1"
     d="m 336.734,354.748 v 12 h 12"
     id="polyline182" />
  <g
     aria-label="3"
     style="font-style:normal;font-weight:normal;font-size:12.80000019px;font-family:monospace;text-anchor:start;fill:#000000;fill-opacity:1;stroke:none"
     id="text186">
    <path
       d="m 334.884,374.65426 q 0.91875,0.24375 1.40625,0.86875 0.4875,0.61875 0.4875,1.55 0,1.2875 -0.86875,2.025 -0.8625,0.73125 -2.39375,0.73125 -0.64375,0 -1.3125,-0.11875 -0.66875,-0.11875 -1.3125,-0.34375 v -1.25625 q 0.6375,0.33125 1.25625,0.49375 0.61875,0.1625 1.23125,0.1625 1.0375,0 1.59375,-0.46875 0.55625,-0.46875 0.55625,-1.35 0,-0.8125 -0.55625,-1.2875 -0.55625,-0.48125 -1.50625,-0.48125 h -0.9625 v -1.0375 h 0.9625 q 0.86875,0 1.35625,-0.38125 0.4875,-0.38125 0.4875,-1.0625 0,-0.71875 -0.45625,-1.1 -0.45,-0.3875 -1.2875,-0.3875 -0.55625,0 -1.15,0.125 -0.59375,0.125 -1.24375,0.375 v -1.1625 q 0.75625,-0.2 1.34375,-0.3 0.59375,-0.1 1.05,-0.1 1.3625,0 2.175,0.6875 0.81875,0.68125 0.81875,1.8125 0,0.76875 -0.43125,1.28125 -0.425,0.5125 -1.24375,0.725 z"
       style=""
       id="path1757" />
  </g>
  <g
     aria-label=" float"
     style="font-style:normal;font-weight:normal;font-size:12.80000019px;font-family:sans-serif;text-anchor:start;fill:#000000;fill-opacity:1;stroke:none"
     id="text192">
    <path
       d="m 323.09749,511.223 h 3.2 v 9.725 h -1.15625 v -8.76875 h -2.05625 q -0.61875,0 -0.8625,0.25 -0.2375,0.25 -0.2375,0.9 v 0.61875 h 1.89375 v 0.89375 h -1.89375 v 6.10625 h -1.15625 v -6.10625 h -1.1 V 513.948 h 1.1 v -0.4875 q 0,-1.16875 0.54375,-1.7 0.54375,-0.5375 1.725,-0.5375 z"
       style=""
       id="path1760" />
    <path
       d="m 331.42874,514.75425 q -0.925,0 -1.4625,0.725 -0.53751,0.71875 -0.53751,1.975 0,1.25625 0.53126,1.98125 0.5375,0.71875 1.46875,0.71875 0.91875,0 1.45625,-0.725 0.5375,-0.725 0.5375,-1.975 0,-1.24375 -0.5375,-1.96875 -0.5375,-0.73125 -1.45625,-0.73125 z m 0,-0.975 q 1.5,0 2.35625,0.975 0.85625,0.975 0.85625,2.7 0,1.71875 -0.85625,2.7 -0.85625,0.975 -2.35625,0.975 -1.50625,0 -2.36251,-0.975 -0.85,-0.98125 -0.85,-2.7 0,-1.725 0.85,-2.7 0.85626,-0.975 2.36251,-0.975 z"
       style=""
       id="path1762" />
    <path
       d="m 339.72249,517.42925 q -1.39375,0 -1.93125,0.31875 -0.5375,0.31875 -0.5375,1.0875 0,0.6125 0.4,0.975 0.40625,0.35625 1.1,0.35625 0.95625,0 1.53125,-0.675 0.58125,-0.68125 0.58125,-1.80625 v -0.25625 z m 2.29375,-0.475 v 3.99375 h -1.15 v -1.0625 q -0.39375,0.6375 -0.98125,0.94375 -0.5875,0.3 -1.4375,0.3 -1.075,0 -1.7125,-0.6 -0.63125,-0.60625 -0.63125,-1.61875 0,-1.18125 0.7875,-1.78125 0.79375,-0.6 2.3625,-0.6 h 1.6125 v -0.1125 q 0,-0.79375 -0.525,-1.225 -0.51875,-0.4375 -1.4625,-0.4375 -0.6,0 -1.16875,0.14375 -0.56875,0.14375 -1.09375,0.43125 v -1.0625 q 0.63125,-0.24375 1.225,-0.3625 0.59375,-0.125 1.15625,-0.125 1.51875,0 2.26875,0.7875 0.75,0.7875 0.75,2.3875 z"
       style=""
       id="path1764" />
    <path
       d="m 345.52874,511.9605 v 1.9875 h 2.36875 v 0.89375 h -2.36875 v 3.8 q 0,0.85625 0.23125,1.1 0.2375,0.24375 0.95625,0.24375 h 1.18125 v 0.9625 h -1.18125 q -1.33125,0 -1.8375,-0.49375 -0.50625,-0.5 -0.50625,-1.8125 v -3.8 h -0.84375 V 513.948 h 0.84375 v -1.9875 z"
       style=""
       id="path1766" />
  </g>
  <path
     style="fill:#b8e1e2;fill-opacity:1;fill-rule:evenodd;stroke:#000000;stroke-width:2;stroke-opacity:1"
     d="m 318.984,466.252 h 30.075 c 3.76,8 4.963,12 4.963,20 0,8 -1.203,12 -4.963,20 h -30.075 c -3.759,-8 -4.962,-12 -4.962,-20 0,-8 1.203,-12 4.962,-20 z"
     id="path194"
     inkscape:connector-curvature="0" />
  <g
     aria-label="b"
     style="font-style:normal;font-weight:normal;font-size:12.80000019px;font-family:sans-serif;text-anchor:middle;fill:#000000;fill-opacity:1;stroke:none"
     id="text198">
    <path
       d="m 336.19075,486.75826 q 0,-1.26875 -0.525,-1.9875 -0.51875,-0.725 -1.43125,-0.725 -0.9125,0 -1.4375,0.725 -0.51875,0.71875 -0.51875,1.9875 0,1.26875 0.51875,1.99375 0.525,0.71875 1.4375,0.71875 0.9125,0 1.43125,-0.71875 0.525,-0.725 0.525,-1.99375 z m -3.9125,-2.44375 q 0.3625,-0.625 0.9125,-0.925 0.55625,-0.30625 1.325,-0.30625 1.275,0 2.06875,1.0125 0.8,1.0125 0.8,2.6625 0,1.65 -0.8,2.6625 -0.79375,1.0125 -2.06875,1.0125 -0.76875,0 -1.325,-0.3 -0.55,-0.30625 -0.9125,-0.93125 v 1.05 H 331.122 v -9.725 h 1.15625 z"
       style=""
       id="path1769" />
  </g>
  <path
     style="fill:#ffffff;fill-opacity:1;fill-rule:evenodd;stroke:#000000;stroke-width:2;stroke-opacity:1"
     d="m 342.926,482.784 v -34 h 13.7 l 12,12 v 22 z"
     id="polygon200" />
  <path
     style="fill:none;stroke:#000000;stroke-width:1;stroke-opacity:1"
     d="m 356.626,448.784 v 12 h 12"
     id="polyline202" />
  <g
     aria-label="3"
     style="font-style:normal;font-weight:normal;font-size:12.80000019px;font-family:monospace;text-anchor:start;fill:#000000;fill-opacity:1;stroke:none"
     id="text206">
    <path
       d="m 354.77599,468.69024 q 0.91875,0.24375 1.40625,0.86875 0.4875,0.61875 0.4875,1.55 0,1.2875 -0.86875,2.025 -0.8625,0.73125 -2.39375,0.73125 -0.64375,0 -1.3125,-0.11875 -0.66875,-0.11875 -1.3125,-0.34375 v -1.25625 q 0.6375,0.33125 1.25625,0.49375 0.61875,0.1625 1.23125,0.1625 1.0375,0 1.59375,-0.46875 0.55625,-0.46875 0.55625,-1.35 0,-0.8125 -0.55625,-1.2875 -0.55625,-0.48125 -1.50625,-0.48125 h -0.9625 v -1.0375 h 0.9625 q 0.86875,0 1.35625,-0.38125 0.4875,-0.38125 0.4875,-1.0625 0,-0.71875 -0.45625,-1.1 -0.45,-0.3875 -1.2875,-0.3875 -0.55625,0 -1.15,0.125 -0.59375,0.125 -1.24375,0.375 v -1.1625 q 0.75625,-0.2 1.34375,-0.3 0.59375,-0.1 1.05,-0.1 1.3625,0 2.175,0.6875 0.81875,0.68125 0.81875,1.8125 0,0.76875 -0.43125,1.28125 -0.425,0.5125 -1.24375,0.725 z"
       style=""
       id="path1774" />
  </g>
</svg>
