<?xml version="1.0" encoding="UTF-8" standalone="no"?>
<svg
   xmlns:dc="http://purl.org/dc/elements/1.1/"
   xmlns:cc="http://creativecommons.org/ns#"
   xmlns:rdf="http://www.w3.org/1999/02/22-rdf-syntax-ns#"
   xmlns:svg="http://www.w3.org/2000/svg"
   xmlns="http://www.w3.org/2000/svg"
   xmlns:sodipodi="http://sodipodi.sourceforge.net/DTD/sodipodi-0.dtd"
   xmlns:inkscape="http://www.inkscape.org/namespaces/inkscape"
   width="27.925266cm"
   height="6.970798cm"
   viewBox="42 166 551.52401 123.73166"
   version="1.1"
   id="svg185"
   sodipodi:docname="fused_tree_2.svg"
   inkscape:version="0.92.3 (2405546, 2018-03-11)">
  <metadata
     id="metadata191">
    <rdf:RDF>
      <cc:Work
         rdf:about="">
        <dc:format>image/svg+xml</dc:format>
        <dc:type
           rdf:resource="http://purl.org/dc/dcmitype/StillImage" />
        <dc:title></dc:title>
      </cc:Work>
    </rdf:RDF>
  </metadata>
  <defs
     id="defs189" />
  <sodipodi:namedview
     pagecolor="#ffffff"
     bordercolor="#666666"
     borderopacity="1"
     objecttolerance="10"
     gridtolerance="10"
     guidetolerance="10"
     inkscape:pageopacity="0"
     inkscape:pageshadow="2"
     inkscape:window-width="1920"
     inkscape:window-height="1028"
     id="namedview187"
     showgrid="false"
     fit-margin-left="0"
     fit-margin-right="0"
     fit-margin-top="0"
     fit-margin-bottom="0"
     inkscape:zoom="0.44223214"
     inkscape:cx="139.77997"
     inkscape:cy="115.77782"
     inkscape:window-x="0"
     inkscape:window-y="28"
     inkscape:window-maximized="1"
     inkscape:current-layer="svg185" />
  <path
     transform="translate(-1.4,-7.7347995)"
     style="fill:#ffffff;fill-opacity:1;fill-rule:evenodd;stroke:#000000;stroke-width:2;stroke-opacity:1"
     d="m 44.4,191.4 h 55.1314 v 40 H 44.4 Z"
     id="polygon2" />
  <path
     style="fill:none;stroke:#000000;stroke-width:2;stroke-opacity:1"
     d="m 48.5131,183.66519 v 40"
     id="line4" />
  <path
     style="fill:none;stroke:#000000;stroke-width:2;stroke-opacity:1"
     d="m 92.618301,183.66519 v 40"
     id="line6" />
  <g
     style="font-style:normal;font-weight:normal;font-size:12.80000019px;font-family:sans-serif;text-anchor:middle;fill:#000000;fill-opacity:1;stroke:none"
     id="text10" />
  <path
     transform="translate(-1.4,-7.7347995)"
     style="fill:#ffffff;fill-opacity:1;fill-rule:evenodd;stroke:#000000;stroke-width:2;stroke-opacity:1"
     d="m 122.138,185.7 v 22 H 81.0382 v -34 h 29.0998 z"
     id="polygon12" />
  <path
     transform="translate(-1.4,-7.7347995)"
     style="fill:none;stroke:#000000;stroke-width:1;stroke-opacity:1"
     d="m 110.138,173.7 v 12 h 12"
     id="polyline14" />
  <g
     aria-label="128"
     style="font-style:normal;font-weight:normal;font-size:12.80000019px;font-family:monospace;text-anchor:start;fill:#000000;fill-opacity:1;stroke:none"
     id="text18">
    <path
       d="m 88.325699,189.8027 h 1.9625 v -7.13125 l -2.1125,0.475 v -1.15 l 2.1,-0.4625 h 1.2625 v 8.26875 h 1.9375 v 1.0625 h -5.15 z"
       style=""
       id="path1105" />
    <path
       d="m 96.669449,189.8027 h 4.287501 v 1.0625 h -5.668751 v -1.0625 q 1.16875,-1.23125 2.04375,-2.175 0.875,-0.94375 1.20625,-1.33125 0.625,-0.7625 0.84375,-1.23125 0.21875,-0.475 0.21875,-0.96875 0,-0.78125 -0.4625,-1.225 -0.45625,-0.44375 -1.25625,-0.44375 -0.56875,0 -1.19375,0.20625 -0.625,0.20625 -1.325,0.625 v -1.275 q 0.64375,-0.30625 1.2625,-0.4625 0.625,-0.15625 1.23125,-0.15625 1.36875,0 2.200001,0.73125 0.8375,0.725 0.8375,1.90625 0,0.6 -0.28125,1.2 -0.275,0.6 -0.900001,1.325 -0.35,0.40625 -1.01875,1.125 -0.6625,0.71875 -2.025,2.15 z"
       style=""
       id="path1107" />
    <path
       d="m 105.8882,186.43395 q -0.84375,0 -1.30625,0.475 -0.45625,0.46875 -0.45625,1.33125 0,0.8625 0.4625,1.34375 0.46875,0.475 1.3,0.475 0.85,0 1.30625,-0.46875 0.4625,-0.475 0.4625,-1.35 0,-0.85625 -0.46875,-1.33125 -0.4625,-0.475 -1.3,-0.475 z m -1.1,-0.525 q -0.80625,-0.20625 -1.2625,-0.76875 -0.45,-0.5625 -0.45,-1.35625 0,-1.1125 0.75625,-1.7625 0.75625,-0.65625 2.05625,-0.65625 1.30625,0 2.0625,0.65625 0.75625,0.65 0.75625,1.7625 0,0.79375 -0.45625,1.35625 -0.45,0.5625 -1.25625,0.76875 0.9375,0.20625 1.43125,0.83125 0.5,0.625 0.5,1.61875 0,1.2625 -0.80625,1.975 -0.80625,0.7125 -2.23125,0.7125 -1.425,0 -2.23125,-0.70625 -0.8,-0.7125 -0.8,-1.96875 0,-1 0.49375,-1.625 0.5,-0.63125 1.4375,-0.8375 z m -0.45625,-2.00625 q 0,0.75 0.4,1.14375 0.4,0.39375 1.15625,0.39375 0.7625,0 1.1625,-0.39375 0.4,-0.39375 0.4,-1.14375 0,-0.7625 -0.4,-1.1625 -0.39375,-0.4 -1.1625,-0.4 -0.75625,0 -1.15625,0.40625 -0.4,0.4 -0.4,1.15625 z"
       style=""
       id="path1109" />
  </g>
  <path
     transform="translate(-1.4,-7.7347995)"
     style="fill:#ffffff;fill-opacity:1;fill-rule:evenodd;stroke:#000000;stroke-width:2;stroke-opacity:1"
     d="m 292.96,187.892 h 70.875 v 40 H 292.96 Z"
     id="polygon22" />
  <path
     style="fill:none;stroke:#000000;stroke-width:2;stroke-opacity:1"
     d="m 298.647,180.1572 v 40"
     id="line24" />
  <path
     style="fill:none;stroke:#000000;stroke-width:2;stroke-opacity:1"
     d="m 355.34702,180.1572 v 40"
     id="line26" />
  <g
     aria-label="color"
     style="font-style:normal;font-weight:normal;font-size:12.80000019px;font-family:sans-serif;text-anchor:middle;fill:#000000;fill-opacity:1;stroke:none"
     id="text30">
    <path
       d="m 317.47826,197.42595 v 1.075 q -0.4875,-0.26875 -0.98125,-0.4 -0.4875,-0.1375 -0.9875,-0.1375 -1.11875,0 -1.7375,0.7125 -0.61875,0.70625 -0.61875,1.9875 0,1.28125 0.61875,1.99375 0.61875,0.70625 1.7375,0.70625 0.5,0 0.9875,-0.13125 0.49375,-0.1375 0.98125,-0.40625 v 1.0625 q -0.48125,0.225 -1,0.3375 -0.5125,0.1125 -1.09375,0.1125 -1.58125,0 -2.5125,-0.99375 -0.93125,-0.99375 -0.93125,-2.68125 0,-1.7125 0.9375,-2.69375 0.94375,-0.98125 2.58125,-0.98125 0.53125,0 1.0375,0.1125 0.50625,0.10625 0.98125,0.325 z"
       style=""
       id="path1118" />
    <path
       d="m 322.20326,197.96345 q -0.925,0 -1.4625,0.725 -0.5375,0.71875 -0.5375,1.975 0,1.25625 0.53125,1.98125 0.5375,0.71875 1.46875,0.71875 0.91875,0 1.45625,-0.725 0.5375,-0.725 0.5375,-1.975 0,-1.24375 -0.5375,-1.96875 -0.5375,-0.73125 -1.45625,-0.73125 z m 0,-0.975 q 1.5,0 2.35625,0.975 0.85625,0.975 0.85625,2.7 0,1.71875 -0.85625,2.7 -0.85625,0.975 -2.35625,0.975 -1.50625,0 -2.3625,-0.975 -0.85,-0.98125 -0.85,-2.7 0,-1.725 0.85,-2.7 0.85625,-0.975 2.3625,-0.975 z"
       style=""
       id="path1120" />
    <path
       d="m 327.31576,194.4322 h 1.15 v 9.725 h -1.15 z"
       style=""
       id="path1122" />
    <path
       d="m 333.57826,197.96345 q -0.925,0 -1.4625,0.725 -0.5375,0.71875 -0.5375,1.975 0,1.25625 0.53125,1.98125 0.5375,0.71875 1.46875,0.71875 0.91875,0 1.45625,-0.725 0.5375,-0.725 0.5375,-1.975 0,-1.24375 -0.5375,-1.96875 -0.5375,-0.73125 -1.45625,-0.73125 z m 0,-0.975 q 1.5,0 2.35625,0.975 0.85625,0.975 0.85625,2.7 0,1.71875 -0.85625,2.7 -0.85625,0.975 -2.35625,0.975 -1.50625,0 -2.3625,-0.975 -0.85,-0.98125 -0.85,-2.7 0,-1.725 0.85,-2.7 0.85625,-0.975 2.3625,-0.975 z"
       style=""
       id="path1124" />
    <path
       d="m 342.74701,198.2322 q -0.19375,-0.1125 -0.425,-0.1625 -0.225,-0.0563 -0.5,-0.0563 -0.975,0 -1.5,0.6375 -0.51875,0.63125 -0.51875,1.81875 v 3.6875 h -1.15625 v -7 h 1.15625 v 1.0875 q 0.3625,-0.6375 0.94375,-0.94375 0.58125,-0.3125 1.4125,-0.3125 0.11875,0 0.2625,0.0188 0.14375,0.0125 0.31875,0.0437 z"
       style=""
       id="path1126" />
  </g>
  <path
     transform="translate(-1.4,-7.7347995)"
     style="fill:#ffffff;fill-opacity:1;fill-rule:evenodd;stroke:#000000;stroke-width:2;stroke-opacity:1"
     d="m 377.41,179.764 v 22 h -25.7 v -34 h 13.7 z"
     id="polygon34" />
  <path
     transform="translate(-1.4,-7.7347995)"
     style="fill:none;stroke:#000000;stroke-width:1;stroke-opacity:1"
     d="m 365.41,167.764 v 12 h 12"
     id="polyline36" />
  <g
     aria-label="1"
     style="font-style:normal;font-weight:normal;font-size:12.80000019px;font-family:monospace;text-anchor:start;fill:#000000;fill-opacity:1;stroke:none"
     id="text40">
    <path
       d="m 358.9975,183.8667 h 1.9625 v -7.13125 l -2.1125,0.475 v -1.15 l 2.1,-0.4625 h 1.2625 v 8.26875 h 1.9375 v 1.0625 h -5.15 z"
       style=""
       id="path1132" />
  </g>
  <path
     transform="translate(-1.4,-7.7347995)"
     style="fill:#ffffff;fill-opacity:1;fill-rule:evenodd;stroke:#000000;stroke-width:2;stroke-opacity:1"
     d="m 167.822,192.702 h 66.625 v 40 h -66.625 z"
     id="polygon44" />
  <path
     style="fill:none;stroke:#000000;stroke-width:2;stroke-opacity:1"
     d="m 173.08501,184.96719 v 40"
     id="line46" />
  <path
     style="fill:none;stroke:#000000;stroke-width:2;stroke-opacity:1"
     d="m 226.38501,184.96719 v 40"
     id="line48" />
  <g
     aria-label="Pixel"
     style="font-style:normal;font-weight:normal;font-size:12.80000019px;font-family:sans-serif;text-anchor:middle;fill:#000000;fill-opacity:1;stroke:none"
     id="text52">
    <path
       d="m 187.45375,200.67344 v 3.50625 h 1.5875 q 0.88125,0 1.3625,-0.45625 0.48125,-0.45625 0.48125,-1.3 0,-0.8375 -0.48125,-1.29375 -0.48125,-0.45625 -1.3625,-0.45625 z m -1.2625,-1.0375 h 2.85 q 1.56875,0 2.36875,0.7125 0.80625,0.70625 0.80625,2.075 0,1.38125 -0.80625,2.0875 -0.8,0.70625 -2.36875,0.70625 h -1.5875 v 3.75 h -1.2625 z"
       style=""
       id="path1137" />
    <path
       d="m 193.59125,201.96719 h 1.15 v 7 h -1.15 z m 0,-2.725 h 1.15 v 1.45625 h -1.15 z"
       style=""
       id="path1139" />
    <path
       d="m 202.96,201.96719 -2.53125,3.40625 2.6625,3.59375 H 201.735 l -2.0375,-2.75 -2.0375,2.75 h -1.35625 l 2.71875,-3.6625 -2.4875,-3.3375 h 1.35625 l 1.85625,2.49375 1.85625,-2.49375 z"
       style=""
       id="path1141" />
    <path
       d="m 210.30375,205.17969 v 0.5625 h -5.2875 q 0.075,1.1875 0.7125,1.8125 0.64375,0.61875 1.7875,0.61875 0.6625,0 1.28125,-0.1625 0.625,-0.1625 1.2375,-0.4875 v 1.0875 q -0.61875,0.2625 -1.26875,0.4 -0.65,0.1375 -1.31875,0.1375 -1.675,0 -2.65625,-0.975 -0.975,-0.975 -0.975,-2.6375 0,-1.71875 0.925,-2.725 0.93125,-1.0125 2.50625,-1.0125 1.4125,0 2.23125,0.9125 0.825,0.90625 0.825,2.46875 z m -1.15,-0.3375 q -0.0125,-0.94375 -0.53125,-1.50625 -0.5125,-0.5625 -1.3625,-0.5625 -0.9625,0 -1.54375,0.54375 -0.575,0.54375 -0.6625,1.53125 z"
       style=""
       id="path1143" />
    <path
       d="m 212.19125,199.24219 h 1.15 v 9.725 h -1.15 z"
       style=""
       id="path1145" />
  </g>
  <path
     transform="translate(-1.4,-7.7347995)"
     style="fill:#ffffff;fill-opacity:1;fill-rule:evenodd;stroke:#000000;stroke-width:2;stroke-opacity:1"
     d="m 256.424,184.174 v 22 h -33.4 v -34 h 21.4 z"
     id="polygon56" />
  <path
     transform="translate(-1.4,-7.7347995)"
     style="fill:none;stroke:#000000;stroke-width:1;stroke-opacity:1"
     d="m 244.424,172.174 v 12 h 12"
     id="polyline58" />
  <g
     aria-label="64"
     style="font-style:normal;font-weight:normal;font-size:12.80000019px;font-family:monospace;text-anchor:start;fill:#000000;fill-opacity:1;stroke:none"
     id="text62">
    <path
       d="m 234.81776,180.2142 v 1.1625 q -0.39375,-0.23125 -0.8375,-0.35 -0.44375,-0.125 -0.925,-0.125 -1.2,0 -1.81875,0.90625 -0.61875,0.9 -0.61875,2.65625 0.3,-0.625 0.83125,-0.95625 0.53125,-0.3375 1.21875,-0.3375 1.35,0 2.0875,0.83125 0.74375,0.825 0.74375,2.34375 0,1.5125 -0.7625,2.34375 -0.7625,0.83125 -2.14375,0.83125 -1.625,0 -2.38125,-1.1625 -0.75625,-1.16875 -0.75625,-3.675 0,-2.3625 0.90625,-3.6 0.9125,-1.24375 2.6375,-1.24375 0.4625,0 0.925,0.1 0.4625,0.0937 0.89375,0.275 z m -2.25,3.94375 q -0.80625,0 -1.26875,0.58125 -0.4625,0.58125 -0.4625,1.60625 0,1.025 0.4625,1.60625 0.4625,0.58125 1.26875,0.58125 0.8375,0 1.2625,-0.55 0.425,-0.55625 0.425,-1.6375 0,-1.0875 -0.425,-1.6375 -0.425,-0.55 -1.2625,-0.55 z"
       style=""
       id="path1151" />
    <path
       d="m 240.91776,181.15795 -2.94375,4.93125 h 2.94375 z m -0.20625,-1.15 h 1.4625 v 6.08125 h 1.24375 v 1.025 h -1.24375 v 2.225 h -1.25625 v -2.225 h -3.95625 v -1.19375 z"
       style=""
       id="path1153" />
  </g>
  <g
     aria-label=" char"
     style="font-style:normal;font-weight:normal;font-size:12.80000019px;font-family:sans-serif;text-anchor:start;fill:#000000;fill-opacity:1;stroke:none"
     id="text68">
    <path
       d="m 323.18475,289.78996 v 1.075 q -0.4875,-0.26875 -0.98125,-0.4 -0.4875,-0.1375 -0.9875,-0.1375 -1.11875,0 -1.7375,0.7125 -0.61875,0.70625 -0.61875,1.9875 0,1.28125 0.61875,1.99375 0.61875,0.70625 1.7375,0.70625 0.5,0 0.9875,-0.13125 0.49375,-0.1375 0.98125,-0.40625 v 1.0625 q -0.48125,0.225 -1,0.3375 -0.5125,0.1125 -1.09375,0.1125 -1.58125,0 -2.5125,-0.99375 -0.93125,-0.99375 -0.93125,-2.68125 0,-1.7125 0.9375,-2.69375 0.94375,-0.98125 2.58125,-0.98125 0.53125,0 1.0375,0.1125 0.50625,0.10625 0.98125,0.325 z"
       style=""
       id="path1158" />
    <path
       d="m 331.016,292.29621 v 4.225 h -1.15 v -4.1875 q 0,-0.99375 -0.3875,-1.4875 -0.3875,-0.49375 -1.1625,-0.49375 -0.93125,0 -1.46875,0.59375 -0.5375,0.59375 -0.5375,1.61875 v 3.95625 h -1.15625 v -9.725 h 1.15625 v 3.8125 q 0.4125,-0.63125 0.96875,-0.94375 0.5625,-0.3125 1.29375,-0.3125 1.20625,0 1.825,0.75 0.61875,0.74375 0.61875,2.19375 z"
       style=""
       id="path1160" />
    <path
       d="m 336.5035,293.00246 q -1.39375,0 -1.93125,0.31875 -0.5375,0.31875 -0.5375,1.0875 0,0.6125 0.4,0.975 0.40625,0.35625 1.1,0.35625 0.95625,0 1.53125,-0.675 0.58125,-0.68125 0.58125,-1.80625 v -0.25625 z m 2.29375,-0.475 v 3.99375 h -1.15 v -1.0625 q -0.39375,0.6375 -0.98125,0.94375 -0.5875,0.3 -1.4375,0.3 -1.075,0 -1.7125,-0.6 -0.63125,-0.60625 -0.63125,-1.61875 0,-1.18125 0.7875,-1.78125 0.79375,-0.6 2.3625,-0.6 h 1.6125 v -0.1125 q 0,-0.79375 -0.525,-1.225 -0.51875,-0.4375 -1.4625,-0.4375 -0.6,0 -1.16875,0.14375 -0.56875,0.14375 -1.09375,0.43125 v -1.0625 q 0.63125,-0.24375 1.225,-0.3625 0.59375,-0.125 1.15625,-0.125 1.51875,0 2.26875,0.7875 0.75,0.7875 0.75,2.3875 z"
       style=""
       id="path1162" />
    <path
       d="m 345.2285,290.59621 q -0.19375,-0.1125 -0.425,-0.1625 -0.225,-0.0563 -0.5,-0.0563 -0.975,0 -1.5,0.6375 -0.51875,0.63125 -0.51875,1.81875 v 3.6875 h -1.15625 v -7 h 1.15625 v 1.0875 q 0.3625,-0.6375 0.94375,-0.94375 0.58125,-0.3125 1.4125,-0.3125 0.11875,0 0.2625,0.0188 0.14375,0.0125 0.31875,0.0437 z"
       style=""
       id="path1164" />
  </g>
  <path
     style="fill:#ffffff;fill-opacity:1;fill-rule:evenodd;stroke:#000000;stroke-width:2;stroke-opacity:1"
     d="m 300.498,243.9292 h 49.15 c 6.144,8 8.11,12 8.11,20 0,8 -1.966,12 -8.11,20 h -49.15 c -6.144,-8 -8.11,-12 -8.11,-20 0,-8 1.966,-12 8.11,-20 z"
     id="path70"
     inkscape:connector-curvature="0" />
  <g
     aria-label="alpha"
     style="font-style:normal;font-weight:normal;font-size:12.80000019px;font-family:sans-serif;text-anchor:middle;fill:#000000;fill-opacity:1;stroke:none"
     id="text74">
    <path
       d="m 311.7105,264.41045 q -1.39375,0 -1.93125,0.31875 -0.5375,0.31875 -0.5375,1.0875 0,0.6125 0.4,0.975 0.40625,0.35625 1.1,0.35625 0.95625,0 1.53125,-0.675 0.58125,-0.68125 0.58125,-1.80625 v -0.25625 z m 2.29375,-0.475 v 3.99375 h -1.15 v -1.0625 q -0.39375,0.6375 -0.98125,0.94375 -0.5875,0.3 -1.4375,0.3 -1.075,0 -1.7125,-0.6 -0.63125,-0.60625 -0.63125,-1.61875 0,-1.18125 0.7875,-1.78125 0.79375,-0.6 2.3625,-0.6 h 1.6125 v -0.1125 q 0,-0.79375 -0.525,-1.225 -0.51875,-0.4375 -1.4625,-0.4375 -0.6,0 -1.16875,0.14375 -0.56875,0.14375 -1.09375,0.43125 v -1.0625 q 0.63125,-0.24375 1.225,-0.3625 0.59375,-0.125 1.15625,-0.125 1.51875,0 2.26875,0.7875 0.75,0.7875 0.75,2.3875 z"
       style=""
       id="path1167" />
    <path
       d="m 316.37925,258.2042 h 1.15 v 9.725 h -1.15 z"
       style=""
       id="path1169" />
    <path
       d="m 321.04175,266.8792 v 3.7125 h -1.15625 v -9.6625 h 1.15625 v 1.0625 q 0.3625,-0.625 0.9125,-0.925 0.55625,-0.30625 1.325,-0.30625 1.275,0 2.06875,1.0125 0.8,1.0125 0.8,2.6625 0,1.65 -0.8,2.6625 -0.79375,1.0125 -2.06875,1.0125 -0.76875,0 -1.325,-0.3 -0.55,-0.30625 -0.9125,-0.93125 z m 3.9125,-2.44375 q 0,-1.26875 -0.525,-1.9875 -0.51875,-0.725 -1.43125,-0.725 -0.9125,0 -1.4375,0.725 -0.51875,0.71875 -0.51875,1.9875 0,1.26875 0.51875,1.99375 0.525,0.71875 1.4375,0.71875 0.9125,0 1.43125,-0.71875 0.525,-0.725 0.525,-1.99375 z"
       style=""
       id="path1171" />
    <path
       d="m 333.873,263.7042 v 4.225 h -1.15 v -4.1875 q 0,-0.99375 -0.3875,-1.4875 -0.3875,-0.49375 -1.1625,-0.49375 -0.93125,0 -1.46875,0.59375 -0.5375,0.59375 -0.5375,1.61875 v 3.95625 h -1.15625 v -9.725 h 1.15625 v 3.8125 q 0.4125,-0.63125 0.96875,-0.94375 0.5625,-0.3125 1.29375,-0.3125 1.20625,0 1.825,0.75 0.61875,0.74375 0.61875,2.19375 z"
       style=""
       id="path1173" />
    <path
       d="m 339.3605,264.41045 q -1.39375,0 -1.93125,0.31875 -0.5375,0.31875 -0.5375,1.0875 0,0.6125 0.4,0.975 0.40625,0.35625 1.1,0.35625 0.95625,0 1.53125,-0.675 0.58125,-0.68125 0.58125,-1.80625 v -0.25625 z m 2.29375,-0.475 v 3.99375 h -1.15 v -1.0625 q -0.39375,0.6375 -0.98125,0.94375 -0.5875,0.3 -1.4375,0.3 -1.075,0 -1.7125,-0.6 -0.63125,-0.60625 -0.63125,-1.61875 0,-1.18125 0.7875,-1.78125 0.79375,-0.6 2.3625,-0.6 h 1.6125 v -0.1125 q 0,-0.79375 -0.525,-1.225 -0.51875,-0.4375 -1.4625,-0.4375 -0.6,0 -1.16875,0.14375 -0.56875,0.14375 -1.09375,0.43125 v -1.0625 q 0.63125,-0.24375 1.225,-0.3625 0.59375,-0.125 1.15625,-0.125 1.51875,0 2.26875,0.7875 0.75,0.7875 0.75,2.3875 z"
       style=""
       id="path1175" />
  </g>
  <path
     transform="translate(-1.4,-7.7347995)"
     style="fill:#ffffff;fill-opacity:1;fill-rule:evenodd;stroke:#000000;stroke-width:2;stroke-opacity:1"
     d="m 371.294,244.148 v 22 h -25.7 v -34 h 13.7 z"
     id="polygon78" />
  <path
     transform="translate(-1.4,-7.7347995)"
     style="fill:none;stroke:#000000;stroke-width:1;stroke-opacity:1"
     d="m 359.294,232.148 v 12 h 12"
     id="polyline80" />
  <g
     aria-label="1"
     style="font-style:normal;font-weight:normal;font-size:12.80000019px;font-family:monospace;text-anchor:start;fill:#000000;fill-opacity:1;stroke:none"
     id="text84">
    <path
       d="m 352.8815,248.2507 h 1.9625 v -7.13125 l -2.1125,0.475 v -1.15 l 2.1,-0.4625 h 1.2625 v 8.26875 h 1.9375 v 1.0625 h -5.15 z"
       style=""
       id="path1178" />
  </g>
  <path
     style="fill:none;stroke:#000000;stroke-width:2;stroke-opacity:1"
     d="m 99.104996,203.95219 55.312014,0.558"
     id="line88" />
  <path
     transform="translate(-1.4,-7.7347995)"
     style="fill:#000000;fill-opacity:1;fill-rule:evenodd;stroke:#000000;stroke-width:2;stroke-opacity:1"
     d="m 155.766,217.245 10.05,-4.899 -9.949,-5.101 z"
     id="polygon90" />
  <path
     style="fill:none;stroke:#000000;stroke-width:2;stroke-opacity:1"
     d="m 234.05101,203.6702 45.52501,-1.72"
     id="line94" />
  <path
     transform="translate(-1.4,-7.7347995)"
     style="fill:#000000;fill-opacity:1;fill-rule:evenodd;stroke:#000000;stroke-width:2;stroke-opacity:1"
     d="m 281.165,214.681 9.804,-5.374 -10.182,-4.619 z"
     id="polygon96" />
  <path
     style="fill:none;stroke:#000000;stroke-width:2;stroke-opacity:1"
     d="m 234.04501,221.10719 51.13199,24.054"
     id="line100" />
  <path
     transform="translate(-1.4,-7.7347995)"
     style="fill:#000000;fill-opacity:1;fill-rule:evenodd;stroke:#000000;stroke-width:2;stroke-opacity:1"
     d="m 284.448,257.42 11.178,-0.267 -6.921,-8.781 z"
     id="polygon102" />
  <path
     style="fill:none;stroke:#000000;stroke-width:2;stroke-opacity:1"
     d="M 363.36301,209.7782 458.591,234.96919"
     id="line106" />
  <path
     transform="translate(-1.4,-7.7347995)"
     style="fill:#000000;fill-opacity:1;fill-rule:evenodd;stroke:#000000;stroke-width:2;stroke-opacity:1"
     d="m 458.712,247.538 10.946,-2.276 -8.388,-7.391 z"
     id="polygon108" />
  <path
     style="fill:none;stroke:#000000;stroke-width:2;stroke-opacity:1"
     d="m 363.41,200.3672 159.478,0.916"
     id="line112" />
  <path
     transform="translate(-1.4,-7.7347995)"
     style="fill:#000000;fill-opacity:1;fill-rule:evenodd;stroke:#000000;stroke-width:2;stroke-opacity:1"
     d="m 524.259,214.018 10.029,-4.942 -9.971,-5.058 z"
     id="polygon114" />
  <g
     aria-label=" float"
     style="font-style:normal;font-weight:normal;font-size:12.80000019px;font-family:sans-serif;text-anchor:start;fill:#000000;fill-opacity:1;stroke:none"
     id="text120">
    <path
       d="m 404.07551,284.00419 h 3.2 v 9.725 h -1.15625 v -8.76875 h -2.05625 q -0.61875,0 -0.8625,0.25 -0.2375,0.25 -0.2375,0.9 v 0.61875 h 1.89375 v 0.89375 h -1.89375 v 6.10625 h -1.15625 v -6.10625 h -1.1 v -0.89375 h 1.1 v -0.4875 q 0,-1.16875 0.54375,-1.7 0.54375,-0.5375 1.725,-0.5375 z"
       style=""
       id="path1201" />
    <path
       d="m 412.40676,287.53544 q -0.925,0 -1.4625,0.725 -0.5375,0.71875 -0.5375,1.975 0,1.25625 0.53125,1.98125 0.5375,0.71875 1.46875,0.71875 0.91875,0 1.45625,-0.725 0.5375,-0.725 0.5375,-1.975 0,-1.24375 -0.5375,-1.96875 -0.5375,-0.73125 -1.45625,-0.73125 z m 0,-0.975 q 1.5,0 2.35625,0.975 0.85625,0.975 0.85625,2.7 0,1.71875 -0.85625,2.7 -0.85625,0.975 -2.35625,0.975 -1.50625,0 -2.3625,-0.975 -0.85,-0.98125 -0.85,-2.7 0,-1.725 0.85,-2.7 0.85625,-0.975 2.3625,-0.975 z"
       style=""
       id="path1203" />
    <path
       d="m 420.70051,290.21044 q -1.39375,0 -1.93125,0.31875 -0.5375,0.31875 -0.5375,1.0875 0,0.6125 0.4,0.975 0.40625,0.35625 1.1,0.35625 0.95625,0 1.53125,-0.675 0.58125,-0.68125 0.58125,-1.80625 v -0.25625 z m 2.29375,-0.475 v 3.99375 h -1.15 v -1.0625 q -0.39375,0.6375 -0.98125,0.94375 -0.5875,0.3 -1.4375,0.3 -1.075,0 -1.7125,-0.6 -0.63125,-0.60625 -0.63125,-1.61875 0,-1.18125 0.7875,-1.78125 0.79375,-0.6 2.3625,-0.6 h 1.6125 v -0.1125 q 0,-0.79375 -0.525,-1.225 -0.51875,-0.4375 -1.4625,-0.4375 -0.6,0 -1.16875,0.14375 -0.56875,0.14375 -1.09375,0.43125 v -1.0625 q 0.63125,-0.24375 1.225,-0.3625 0.59375,-0.125 1.15625,-0.125 1.51875,0 2.26875,0.7875 0.75,0.7875 0.75,2.3875 z"
       style=""
       id="path1205" />
    <path
       d="m 426.50676,284.74169 v 1.9875 h 2.36875 v 0.89375 h -2.36875 v 3.8 q 0,0.85625 0.23125,1.1 0.2375,0.24375 0.95625,0.24375 h 1.18125 v 0.9625 h -1.18125 q -1.33125,0 -1.8375,-0.49375 -0.50625,-0.5 -0.50625,-1.8125 v -3.8 h -0.84375 v -0.89375 h 0.84375 v -1.9875 z"
       style=""
       id="path1207" />
  </g>
  <path
     style="fill:#ffffff;fill-opacity:1;fill-rule:evenodd;stroke:#000000;stroke-width:2;stroke-opacity:1"
     d="m 399.962,239.0332 h 30.076 c 3.759,8 4.962,12 4.962,20 0,8 -1.203,12 -4.962,20 h -30.076 c -3.759,-8 -4.962,-12 -4.962,-20 0,-8 1.203,-12 4.962,-20 z"
     id="path122"
     inkscape:connector-curvature="0" />
  <g
     aria-label="b"
     style="font-style:normal;font-weight:normal;font-size:12.80000019px;font-family:sans-serif;text-anchor:middle;fill:#000000;fill-opacity:1;stroke:none"
     id="text126">
    <path
       d="m 417.16875,259.53945 q 0,-1.26875 -0.525,-1.9875 -0.51875,-0.725 -1.43125,-0.725 -0.9125,0 -1.4375,0.725 -0.51875,0.71875 -0.51875,1.9875 0,1.26875 0.51875,1.99375 0.525,0.71875 1.4375,0.71875 0.9125,0 1.43125,-0.71875 0.525,-0.725 0.525,-1.99375 z m -3.9125,-2.44375 q 0.3625,-0.625 0.9125,-0.925 0.55625,-0.30625 1.325,-0.30625 1.275,0 2.06875,1.0125 0.8,1.0125 0.8,2.6625 0,1.65 -0.8,2.6625 -0.79375,1.0125 -2.06875,1.0125 -0.76875,0 -1.325,-0.3 -0.55,-0.30625 -0.9125,-0.93125 v 1.05 H 412.1 v -9.725 h 1.15625 z"
       style=""
       id="path1198" />
  </g>
  <path
     transform="translate(-1.4,-7.7347995)"
     style="fill:#ffffff;fill-opacity:1;fill-rule:evenodd;stroke:#000000;stroke-width:2;stroke-opacity:1"
     d="m 451.004,241.3 v 22 h -25.7 v -34 h 13.7 z"
     id="polygon128" />
  <path
     transform="translate(-1.4,-7.7347995)"
     style="fill:none;stroke:#000000;stroke-width:1;stroke-opacity:1"
     d="m 439.004,229.3 v 12 h 12"
     id="polyline130" />
  <g
     aria-label="1"
     style="font-style:normal;font-weight:normal;font-size:12.80000019px;font-family:monospace;text-anchor:start;fill:#000000;fill-opacity:1;stroke:none"
     id="text134">
    <path
       d="m 432.59149,245.40269 h 1.9625 v -7.13125 l -2.1125,0.475 v -1.15 l 2.1,-0.4625 h 1.2625 v 8.26875 h 1.9375 v 1.0625 h -5.15 z"
       style=""
       id="path1193" />
  </g>
  <g
     aria-label=" float"
     style="font-style:normal;font-weight:normal;font-size:12.80000019px;font-family:sans-serif;text-anchor:start;fill:#000000;fill-opacity:1;stroke:none"
     id="text140">
    <path
       d="m 479.0395,268.24021 h 3.2 v 9.725 h -1.15625 v -8.76875 H 479.027 q -0.61875,0 -0.8625,0.25 -0.2375,0.25 -0.2375,0.9 v 0.61875 h 1.89375 v 0.89375 H 477.927 v 6.10625 h -1.15625 v -6.10625 h -1.1 v -0.89375 h 1.1 v -0.4875 q 0,-1.16875 0.54375,-1.7 0.54375,-0.5375 1.725,-0.5375 z"
       style=""
       id="path1218" />
    <path
       d="m 487.37075,271.77146 q -0.925,0 -1.4625,0.725 -0.5375,0.71875 -0.5375,1.975 0,1.25625 0.53125,1.98125 0.5375,0.71875 1.46875,0.71875 0.91875,0 1.45625,-0.725 0.5375,-0.725 0.5375,-1.975 0,-1.24375 -0.5375,-1.96875 -0.5375,-0.73125 -1.45625,-0.73125 z m 0,-0.975 q 1.5,0 2.35625,0.975 0.85625,0.975 0.85625,2.7 0,1.71875 -0.85625,2.7 -0.85625,0.975 -2.35625,0.975 -1.50625,0 -2.3625,-0.975 -0.85,-0.98125 -0.85,-2.7 0,-1.725 0.85,-2.7 0.85625,-0.975 2.3625,-0.975 z"
       style=""
       id="path1220" />
    <path
       d="m 495.6645,274.44646 q -1.39375,0 -1.93125,0.31875 -0.5375,0.31875 -0.5375,1.0875 0,0.6125 0.4,0.975 0.40625,0.35625 1.1,0.35625 0.95625,0 1.53125,-0.675 0.58125,-0.68125 0.58125,-1.80625 v -0.25625 z m 2.29375,-0.475 v 3.99375 h -1.15 v -1.0625 q -0.39375,0.6375 -0.98125,0.94375 -0.5875,0.3 -1.4375,0.3 -1.075,0 -1.7125,-0.6 -0.63125,-0.60625 -0.63125,-1.61875 0,-1.18125 0.7875,-1.78125 0.79375,-0.6 2.3625,-0.6 h 1.6125 v -0.1125 q 0,-0.79375 -0.525,-1.225 -0.51875,-0.4375 -1.4625,-0.4375 -0.6,0 -1.16875,0.14375 -0.56875,0.14375 -1.09375,0.43125 v -1.0625 q 0.63125,-0.24375 1.225,-0.3625 0.59375,-0.125 1.15625,-0.125 1.51875,0 2.26875,0.7875 0.75,0.7875 0.75,2.3875 z"
       style=""
       id="path1222" />
    <path
       d="m 501.47075,268.97771 v 1.9875 h 2.36875 v 0.89375 h -2.36875 v 3.8 q 0,0.85625 0.23125,1.1 0.2375,0.24375 0.95625,0.24375 h 1.18125 v 0.9625 h -1.18125 q -1.33125,0 -1.8375,-0.49375 -0.50625,-0.5 -0.50625,-1.8125 v -3.8 h -0.84375 v -0.89375 h 0.84375 v -1.9875 z"
       style=""
       id="path1224" />
  </g>
  <path
     style="fill:#ffffff;fill-opacity:1;fill-rule:evenodd;stroke:#000000;stroke-width:2;stroke-opacity:1"
     d="m 474.926,223.2692 h 30.076 c 3.759,8 4.962,12 4.962,20 0,8 -1.203,12 -4.962,20 h -30.076 c -3.759,-8 -4.962,-12 -4.962,-20 0,-8 1.203,-12 4.962,-20 z"
     id="path142"
     inkscape:connector-curvature="0" />
  <g
     aria-label="g"
     style="font-style:normal;font-weight:normal;font-size:12.80000019px;font-family:sans-serif;text-anchor:middle;fill:#000000;fill-opacity:1;stroke:none"
     id="text146">
    <path
       d="m 491.71402,243.68795 q 0,-1.25 -0.51875,-1.9375 -0.5125,-0.6875 -1.44375,-0.6875 -0.925,0 -1.44375,0.6875 -0.5125,0.6875 -0.5125,1.9375 0,1.24375 0.5125,1.93125 0.51875,0.6875 1.44375,0.6875 0.93125,0 1.44375,-0.6875 0.51875,-0.6875 0.51875,-1.93125 z m 1.15,2.7125 q 0,1.7875 -0.79375,2.65625 -0.79375,0.875 -2.43125,0.875 -0.60625,0 -1.14375,-0.0937 -0.5375,-0.0875 -1.04375,-0.275 v -1.11875 q 0.50625,0.275 1,0.40625 0.49375,0.13125 1.00625,0.13125 1.13125,0 1.69375,-0.59375 0.5625,-0.5875 0.5625,-1.78125 v -0.56875 q -0.35625,0.61875 -0.9125,0.925 -0.55625,0.30625 -1.33125,0.30625 -1.2875,0 -2.075,-0.98125 -0.7875,-0.98125 -0.7875,-2.6 0,-1.625 0.7875,-2.60625 0.7875,-0.98125 2.075,-0.98125 0.775,0 1.33125,0.30625 0.55625,0.30625 0.9125,0.925 v -1.0625 h 1.15 z"
       style=""
       id="path1215" />
  </g>
  <path
     transform="translate(-1.4,-7.7347995)"
     style="fill:#ffffff;fill-opacity:1;fill-rule:evenodd;stroke:#000000;stroke-width:2;stroke-opacity:1"
     d="m 525.968,225.536 v 22 h -25.7 v -34 h 13.7 z"
     id="polygon148" />
  <path
     transform="translate(-1.4,-7.7347995)"
     style="fill:none;stroke:#000000;stroke-width:1;stroke-opacity:1"
     d="m 513.968,213.536 v 12 h 12"
     id="polyline150" />
  <g
     aria-label="1"
     style="font-style:normal;font-weight:normal;font-size:12.80000019px;font-family:monospace;text-anchor:start;fill:#000000;fill-opacity:1;stroke:none"
     id="text154">
    <path
       d="m 507.55551,229.6387 h 1.9625 v -7.13125 l -2.1125,0.475 v -1.15 l 2.1,-0.4625 h 1.2625 v 8.26875 h 1.9375 v 1.0625 h -5.15 z"
       style=""
       id="path1210" />
  </g>
  <path
     style="fill:#ffffff;fill-opacity:1;fill-rule:evenodd;stroke:#000000;stroke-width:2;stroke-opacity:1"
     d="m 539.838,181.4672 h 30.076 c 3.759,8 4.962,12 4.962,20 0,8 -1.203,12 -4.962,20 h -30.076 c -3.759,-8 -4.962,-12 -4.962,-20 0,-8 1.203,-12 4.962,-20 z"
     id="path158"
     inkscape:connector-curvature="0" />
  <g
     aria-label="r"
     style="font-style:normal;font-weight:normal;font-size:12.80000019px;font-family:sans-serif;text-anchor:middle;fill:#000000;fill-opacity:1;stroke:none"
     id="text162">
    <path
       d="m 557.50098,199.54219 q -0.19375,-0.1125 -0.425,-0.1625 -0.225,-0.0563 -0.5,-0.0563 -0.975,0 -1.5,0.6375 -0.51875,0.63125 -0.51875,1.81875 v 3.6875 h -1.15625 v -7 h 1.15625 v 1.0875 q 0.3625,-0.6375 0.94375,-0.94375 0.58125,-0.3125 1.4125,-0.3125 0.11875,0 0.2625,0.0188 0.14375,0.0125 0.31875,0.0437 z"
       style=""
       id="path1241" />
  </g>
  <g
     aria-label=" float"
     style="font-style:normal;font-weight:normal;font-size:12.80000019px;font-family:sans-serif;text-anchor:start;fill:#000000;fill-opacity:1;stroke:none"
     id="text166">
    <path
       d="m 546.32948,226.82419 h 3.2 v 9.725 h -1.15625 v -8.76875 h -2.05625 q -0.61875,0 -0.8625,0.25 -0.2375,0.25 -0.2375,0.9 v 0.61875 h 1.89375 v 0.89375 h -1.89375 v 6.10625 h -1.15625 v -6.10625 h -1.1 v -0.89375 h 1.1 v -0.4875 q 0,-1.16875 0.54375,-1.7 0.54375,-0.5375 1.725,-0.5375 z"
       style=""
       id="path1232" />
    <path
       d="m 554.66073,230.35544 q -0.925,0 -1.4625,0.725 -0.5375,0.71875 -0.5375,1.975 0,1.25625 0.53125,1.98125 0.5375,0.71875 1.46875,0.71875 0.91875,0 1.45625,-0.725 0.5375,-0.725 0.5375,-1.975 0,-1.24375 -0.5375,-1.96875 -0.5375,-0.73125 -1.45625,-0.73125 z m 0,-0.975 q 1.5,0 2.35625,0.975 0.85625,0.975 0.85625,2.7 0,1.71875 -0.85625,2.7 -0.85625,0.975 -2.35625,0.975 -1.50625,0 -2.3625,-0.975 -0.85,-0.98125 -0.85,-2.7 0,-1.725 0.85,-2.7 0.85625,-0.975 2.3625,-0.975 z"
       style=""
       id="path1234" />
    <path
       d="m 562.95448,233.03044 q -1.39375,0 -1.93125,0.31875 -0.5375,0.31875 -0.5375,1.0875 0,0.6125 0.4,0.975 0.40625,0.35625 1.1,0.35625 0.95625,0 1.53125,-0.675 0.58125,-0.68125 0.58125,-1.80625 v -0.25625 z m 2.29375,-0.475 v 3.99375 h -1.15 v -1.0625 q -0.39375,0.6375 -0.98125,0.94375 -0.5875,0.3 -1.4375,0.3 -1.075,0 -1.7125,-0.6 -0.63125,-0.60625 -0.63125,-1.61875 0,-1.18125 0.7875,-1.78125 0.79375,-0.6 2.3625,-0.6 h 1.6125 v -0.1125 q 0,-0.79375 -0.525,-1.225 -0.51875,-0.4375 -1.4625,-0.4375 -0.6,0 -1.16875,0.14375 -0.56875,0.14375 -1.09375,0.43125 v -1.0625 q 0.63125,-0.24375 1.225,-0.3625 0.59375,-0.125 1.15625,-0.125 1.51875,0 2.26875,0.7875 0.75,0.7875 0.75,2.3875 z"
       style=""
       id="path1236" />
    <path
       d="m 568.76073,227.56169 v 1.9875 h 2.36875 v 0.89375 h -2.36875 v 3.8 q 0,0.85625 0.23125,1.1 0.2375,0.24375 0.95625,0.24375 h 1.18125 v 0.9625 h -1.18125 q -1.33125,0 -1.8375,-0.49375 -0.50625,-0.5 -0.50625,-1.8125 v -3.8 h -0.84375 v -0.89375 h 0.84375 v -1.9875 z"
       style=""
       id="path1238" />
  </g>
  <path
     transform="translate(-1.4,-7.7347995)"
     style="fill:#ffffff;fill-opacity:1;fill-rule:evenodd;stroke:#000000;stroke-width:2;stroke-opacity:1"
     d="m 593.924,183.162 v 22 h -25.7 v -34 h 13.7 z"
     id="polygon168" />
  <path
     transform="translate(-1.4,-7.7347995)"
     style="fill:none;stroke:#000000;stroke-width:1;stroke-opacity:1"
     d="m 581.924,171.162 v 12 h 12"
     id="polyline170" />
  <g
     aria-label="1"
     style="font-style:normal;font-weight:normal;font-size:12.80000019px;font-family:monospace;text-anchor:start;fill:#000000;fill-opacity:1;stroke:none"
     id="text174">
    <path
       d="m 575.51147,187.26469 h 1.9625 v -7.13125 l -2.1125,0.475 v -1.15 l 2.1,-0.4625 h 1.2625 v 8.26875 h 1.9375 v 1.0625 h -5.15 z"
       style=""
       id="path1227" />
  </g>
  <path
     style="fill:none;stroke:#000000;stroke-width:2;stroke-opacity:1"
     d="m 358.38699,221.1582 28.34302,18.96199"
     id="line178" />
  <path
     transform="translate(-1.4,-7.7347995)"
     style="fill:#000000;fill-opacity:1;fill-rule:evenodd;stroke:#000000;stroke-width:2;stroke-opacity:1"
     d="m 385.35,252.011 11.092,1.405 -5.531,-9.717 z"
     id="polygon180" />
</svg>
