<?xml version="1.0" encoding="UTF-8" standalone="no"?>
<!DOCTYPE svg PUBLIC "-//W3C//DTD SVG 1.0//EN" "http://www.w3.org/TR/2001/PR-SVG-20010719/DTD/svg10.dtd">
<svg width="9cm" height="14cm" viewBox="160 67 171 262" xmlns="http://www.w3.org/2000/svg" xmlns:xlink="http://www.w3.org/1999/xlink">
  <g id="Hintergrund">
    <g>
      <line style="fill: none; stroke-opacity: 1; stroke-width: 2; stroke: #000000" x1="235.002" y1="127.3" x2="208.76" y2="161.839"/>
      <polygon style="fill: #000000; fill-opacity: 1; stroke-opacity: 1; stroke-width: 2; stroke: #000000" fill-rule="evenodd" points="204.779,158.814 202.71,169.801 212.741,164.863 "/>
    </g>
    <g>
      <line style="fill: none; stroke-opacity: 1; stroke-width: 2; stroke: #000000" x1="235.002" y1="127.3" x2="274.806" y2="161.654"/>
      <polygon style="fill: #000000; fill-opacity: 1; stroke-opacity: 1; stroke-width: 2; stroke: #000000" fill-rule="evenodd" points="271.539,165.439 282.376,168.188 278.073,157.869 "/>
    </g>
    <g>
      <line style="fill: none; stroke-opacity: 1; stroke-width: 2; stroke: #000000" x1="202.105" y1="210.597" x2="186.298" y2="259.483"/>
      <polygon style="fill: #000000; fill-opacity: 1; stroke-opacity: 1; stroke-width: 2; stroke: #000000" fill-rule="evenodd" points="181.54,257.945 183.221,268.998 191.055,261.021 "/>
    </g>
    <g>
      <line style="fill: none; stroke-opacity: 1; stroke-width: 2; stroke: #000000" x1="202.105" y1="210.597" x2="236.23" y2="261.617"/>
      <polygon style="fill: #000000; fill-opacity: 1; stroke-opacity: 1; stroke-width: 2; stroke: #000000" fill-rule="evenodd" points="232.074,264.397 241.79,269.929 240.386,258.837 "/>
    </g>
    <g>
      <line style="fill: none; stroke-opacity: 1; stroke-width: 2; stroke: #000000" x1="202.105" y1="210.597" x2="289.525" y2="265.084"/>
      <polygon style="fill: #000000; fill-opacity: 1; stroke-opacity: 1; stroke-width: 2; stroke: #000000" fill-rule="evenodd" points="286.88,269.328 298.012,270.374 292.17,260.841 "/>
    </g>
    <g>
      <path style="fill: #ffffff; fill-opacity: 1; stroke-opacity: 1; stroke-width: 2; stroke: #000000" fill-rule="evenodd" d="M 167.876 269.95 L 197.951,269.95 C 201.711,277.95 202.914,281.95 202.914,289.95 C 202.914,297.95 201.711,301.95 197.951,309.95 L 167.876,309.95 C 164.117,301.95 162.914,297.95 162.914,289.95 C 162.914,281.95 164.117,277.95 167.876,269.95z"/>
      <text font-size="12.8" style="fill: #000000; fill-opacity: 1; stroke: none;text-anchor:middle;font-family:sans-serif;font-style:normal;font-weight:normal" x="182.914" y="293.95">
        <tspan x="182.914" y="293.95">r</tspan>
      </text>
      <text font-size="12.8" style="fill: #000000; fill-opacity: 1; stroke: none;text-anchor:start;font-family:sans-serif;font-style:normal;font-weight:normal" x="166.63" y="325.032">
        <tspan xml:space="preserve" x="166.63" y="325.032"> float</tspan>
      </text>
      <polygon style="fill: #ffffff; fill-opacity: 1; stroke-opacity: 1; stroke-width: 2; stroke: #000000" fill-rule="evenodd" points="187.22,250.595 200.92,250.595 212.92,262.595 212.92,284.595 187.22,284.595 "/>
      <polyline style="fill: none; stroke-opacity: 1; stroke-width: 1; stroke: #000000" points="200.92,250.595 200.92,262.595 212.92,262.595 "/>
      <text font-size="12.8" style="fill: #000000; fill-opacity: 1; stroke: none;text-anchor:start;font-family:monospace;font-style:normal;font-weight:normal" x="194.22" y="275.495">
        <tspan x="194.22" y="275.495">1</tspan>
      </text>
    </g>
    <g>
      <path style="fill: #ffffff; fill-opacity: 1; stroke-opacity: 1; stroke-width: 2; stroke: #000000" fill-rule="evenodd" d="M 227.308 270.76 L 257.383,270.76 C 261.142,278.76 262.345,282.76 262.345,290.76 C 262.345,298.76 261.142,302.76 257.383,310.76 L 227.308,310.76 C 223.548,302.76 222.345,298.76 222.345,290.76 C 222.345,282.76 223.548,278.76 227.308,270.76z"/>
      <text font-size="12.8" style="fill: #000000; fill-opacity: 1; stroke: none;text-anchor:middle;font-family:sans-serif;font-style:normal;font-weight:normal" x="242.345" y="294.76">
        <tspan x="242.345" y="294.76">g</tspan>
      </text>
      <text font-size="12.8" style="fill: #000000; fill-opacity: 1; stroke: none;text-anchor:start;font-family:sans-serif;font-style:normal;font-weight:normal" x="223.683" y="325.456">
        <tspan xml:space="preserve" x="223.683" y="325.456"> float</tspan>
      </text>
      <polygon style="fill: #ffffff; fill-opacity: 1; stroke-opacity: 1; stroke-width: 2; stroke: #000000" fill-rule="evenodd" points="247.129,249.969 260.829,249.969 272.829,261.969 272.829,283.969 247.129,283.969 "/>
      <polyline style="fill: none; stroke-opacity: 1; stroke-width: 1; stroke: #000000" points="260.829,249.969 260.829,261.969 272.829,261.969 "/>
      <text font-size="12.8" style="fill: #000000; fill-opacity: 1; stroke: none;text-anchor:start;font-family:monospace;font-style:normal;font-weight:normal" x="254.129" y="274.869">
        <tspan x="254.129" y="274.869">1</tspan>
      </text>
    </g>
    <g>
      <path style="fill: #ffffff; fill-opacity: 1; stroke-opacity: 1; stroke-width: 2; stroke: #000000" fill-rule="evenodd" d="M 283.823 270.903 L 313.898,270.903 C 317.657,278.903 318.86,282.903 318.86,290.903 C 318.86,298.903 317.657,302.903 313.898,310.903 L 283.823,310.903 C 280.063,302.903 278.86,298.903 278.86,290.903 C 278.86,282.903 280.063,278.903 283.823,270.903z"/>
      <text font-size="12.8" style="fill: #000000; fill-opacity: 1; stroke: none;text-anchor:middle;font-family:sans-serif;font-style:normal;font-weight:normal" x="298.86" y="294.903">
        <tspan x="298.86" y="294.903">b</tspan>
      </text>
      <text font-size="12.8" style="fill: #000000; fill-opacity: 1; stroke: none;text-anchor:start;font-family:sans-serif;font-style:normal;font-weight:normal" x="281" y="325.535">
        <tspan xml:space="preserve" x="281" y="325.535"> float</tspan>
      </text>
      <polygon style="fill: #ffffff; fill-opacity: 1; stroke-opacity: 1; stroke-width: 2; stroke: #000000" fill-rule="evenodd" points="304.89,252.201 318.59,252.201 330.59,264.201 330.59,286.201 304.89,286.201 "/>
      <polyline style="fill: none; stroke-opacity: 1; stroke-width: 1; stroke: #000000" points="318.59,252.201 318.59,264.201 330.59,264.201 "/>
      <text font-size="12.8" style="fill: #000000; fill-opacity: 1; stroke: none;text-anchor:start;font-family:monospace;font-style:normal;font-weight:normal" x="311.89" y="277.101">
        <tspan x="311.89" y="277.101">1</tspan>
      </text>
    </g>
    <g>
      <path style="fill: #ffffff; fill-opacity: 1; stroke-opacity: 1; stroke-width: 2; stroke: #000000" fill-rule="evenodd" d="M 259.36 168.841 L 306.906,168.841 C 312.85,176.841 314.752,180.841 314.752,188.841 C 314.752,196.841 312.85,200.841 306.906,208.841 L 259.36,208.841 C 253.416,200.841 251.515,196.841 251.515,188.841 C 251.515,180.841 253.416,176.841 259.36,168.841z"/>
      <text font-size="12.8" style="fill: #000000; fill-opacity: 1; stroke: none;text-anchor:middle;font-family:sans-serif;font-style:normal;font-weight:normal" x="283.133" y="192.841">
        <tspan x="283.133" y="192.841">alpha</tspan>
      </text>
      <text font-size="12.8" style="fill: #000000; fill-opacity: 1; stroke: none;text-anchor:start;font-family:sans-serif;font-style:normal;font-weight:normal" x="265.701" y="222.788">
        <tspan xml:space="preserve" x="265.701" y="222.788"> char</tspan>
      </text>
      <polygon style="fill: #ffffff; fill-opacity: 1; stroke-opacity: 1; stroke-width: 2; stroke: #000000" fill-rule="evenodd" points="298.86,148.499 312.56,148.499 324.56,160.499 324.56,182.499 298.86,182.499 "/>
      <polyline style="fill: none; stroke-opacity: 1; stroke-width: 1; stroke: #000000" points="312.56,148.499 312.56,160.499 324.56,160.499 "/>
      <text font-size="12.8" style="fill: #000000; fill-opacity: 1; stroke: none;text-anchor:start;font-family:monospace;font-style:normal;font-weight:normal" x="305.86" y="173.399">
        <tspan x="305.86" y="173.399">1</tspan>
      </text>
    </g>
    <g>
      <polygon style="fill: #ffffff; fill-opacity: 1; stroke-opacity: 1; stroke-width: 2; stroke: #000000" fill-rule="evenodd" points="166.668,170.597 237.543,170.597 237.543,210.597 166.668,210.597 "/>
      <line style="fill: none; stroke-opacity: 1; stroke-width: 2; stroke: #000000" x1="173.755" y1="170.597" x2="173.755" y2="210.597"/>
      <line style="fill: none; stroke-opacity: 1; stroke-width: 2; stroke: #000000" x1="230.455" y1="170.597" x2="230.455" y2="210.597"/>
      <text font-size="12.8" style="fill: #000000; fill-opacity: 1; stroke: none;text-anchor:middle;font-family:sans-serif;font-style:normal;font-weight:normal" x="202.105" y="194.597">
        <tspan x="202.105" y="194.597">Color</tspan>
      </text>
      <polygon style="fill: #ffffff; fill-opacity: 1; stroke-opacity: 1; stroke-width: 2; stroke: #000000" fill-rule="evenodd" points="220.22,151.116 233.92,151.116 245.92,163.116 245.92,185.116 220.22,185.116 "/>
      <polyline style="fill: none; stroke-opacity: 1; stroke-width: 1; stroke: #000000" points="233.92,151.116 233.92,163.116 245.92,163.116 "/>
      <text font-size="12.8" style="fill: #000000; fill-opacity: 1; stroke: none;text-anchor:start;font-family:monospace;font-style:normal;font-weight:normal" x="227.22" y="176.016">
        <tspan x="227.22" y="176.016">1</tspan>
      </text>
    </g>
    <g>
      <polygon style="fill: #ffffff; fill-opacity: 1; stroke-opacity: 1; stroke-width: 2; stroke: #000000" fill-rule="evenodd" points="201.69,87.3 268.315,87.3 268.315,127.3 201.69,127.3 "/>
      <line style="fill: none; stroke-opacity: 1; stroke-width: 2; stroke: #000000" x1="208.352" y1="87.3" x2="208.352" y2="127.3"/>
      <line style="fill: none; stroke-opacity: 1; stroke-width: 2; stroke: #000000" x1="261.652" y1="87.3" x2="261.652" y2="127.3"/>
      <text font-size="12.8" style="fill: #000000; fill-opacity: 1; stroke: none;text-anchor:middle;font-family:sans-serif;font-style:normal;font-weight:normal" x="235.002" y="111.3">
        <tspan x="235.002" y="111.3">Pixel</tspan>
      </text>
      <polygon style="fill: #ffffff; fill-opacity: 1; stroke-opacity: 1; stroke-width: 2; stroke: #000000" fill-rule="evenodd" points="251.024,68.5794 264.724,68.5794 276.724,80.5794 276.724,102.579 251.024,102.579 "/>
      <polyline style="fill: none; stroke-opacity: 1; stroke-width: 1; stroke: #000000" points="264.724,68.5794 264.724,80.5794 276.724,80.5794 "/>
      <text font-size="12.8" style="fill: #000000; fill-opacity: 1; stroke: none;text-anchor:start;font-family:monospace;font-style:normal;font-weight:normal" x="258.024" y="93.4794">
        <tspan x="258.024" y="93.4794">1</tspan>
      </text>
    </g>
  </g>
</svg>
