<?xml version="1.0" encoding="UTF-8" standalone="no"?>
<!-- Created with Inkscape (http://www.inkscape.org/) -->

<svg
   xmlns:dc="http://purl.org/dc/elements/1.1/"
   xmlns:cc="http://creativecommons.org/ns#"
   xmlns:rdf="http://www.w3.org/1999/02/22-rdf-syntax-ns#"
   xmlns:svg="http://www.w3.org/2000/svg"
   xmlns="http://www.w3.org/2000/svg"
   xmlns:sodipodi="http://sodipodi.sourceforge.net/DTD/sodipodi-0.dtd"
   xmlns:inkscape="http://www.inkscape.org/namespaces/inkscape"
   width="44.576092mm"
   height="14.97583mm"
   viewBox="0 0 44.576092 14.97583"
   version="1.1"
   id="svg8"
   inkscape:version="0.92.3 (2405546, 2018-03-11)"
   sodipodi:docname="logo.svg">
  <defs
     id="defs2" />
  <sodipodi:namedview
     id="base"
     pagecolor="#ffffff"
     bordercolor="#666666"
     borderopacity="1.0"
     inkscape:pageopacity="0.0"
     inkscape:pageshadow="2"
     inkscape:zoom="2.8"
     inkscape:cx="84.768278"
     inkscape:cy="-50.09593"
     inkscape:document-units="mm"
     inkscape:current-layer="layer1"
     showgrid="false"
     fit-margin-top="0"
     fit-margin-left="0"
     fit-margin-right="0"
     fit-margin-bottom="0"
     inkscape:window-width="1920"
     inkscape:window-height="1028"
     inkscape:window-x="0"
     inkscape:window-y="28"
     inkscape:window-maximized="1" />
  <metadata
     id="metadata5">
    <rdf:RDF>
      <cc:Work
         rdf:about="">
        <dc:format>image/svg+xml</dc:format>
        <dc:type
           rdf:resource="http://purl.org/dc/dcmitype/StillImage" />
        <dc:title></dc:title>
      </cc:Work>
    </rdf:RDF>
  </metadata>
  <g
     inkscape:label="Ebene 1"
     inkscape:groupmode="layer"
     id="layer1"
     transform="translate(-33.447938,-36.962716)">
    <g
       aria-label="llama"
       style="font-style:normal;font-weight:normal;font-size:5.29166651px;line-height:5.66208363px;font-family:Sans;letter-spacing:0px;word-spacing:0px;fill:#000000;fill-opacity:1;stroke:none;stroke-width:0.26458332px;stroke-linecap:butt;stroke-linejoin:miter;stroke-opacity:1"
       id="text817">
      <path
         d="m 35.318625,36.962716 q 0.248047,0 0.671794,0.06201 0.1757,0.02067 0.310058,0.03101 0.392741,0.02067 0.485759,0.144694 0.06201,0.08268 0.06201,0.248047 0,0.237712 -0.113688,1.312581 l -0.113688,1.97404 -0.186035,3.048909 q -0.02067,0.299724 -0.02067,2.335775 0,2.87321 0.248047,4.599202 0.05168,0.372071 0.05168,0.516765 0,0.1757 -0.124024,0.248047 -0.09302,0.05168 -0.89917,0.09302 -0.496093,0.113688 -0.630452,0.113688 -0.54777,0 -1.064535,-0.186035 -0.227376,-0.07235 -0.227376,-0.248047 0,-0.04134 0.02067,-0.134358 0.08268,-0.227377 0.103353,-1.167888 0.01033,-0.578776 0.03101,-1.333252 0.113689,-3.131591 0.113689,-3.751709 0,-2.335774 -0.186036,-4.826578 -0.134358,-1.891358 -0.299723,-2.315104 -0.103353,-0.258382 -0.103353,-0.361735 0,-0.403076 1.870687,-0.403076 z"
         style="fill:#f17017"
         id="path842" />
      <path
         d="m 40.403586,36.962716 q 0.248047,0 0.671794,0.06201 0.175699,0.02067 0.310058,0.03101 0.392741,0.02067 0.485759,0.144694 0.06201,0.08268 0.06201,0.248047 0,0.237712 -0.113688,1.312581 l -0.113688,1.97404 -0.186035,3.048909 q -0.02067,0.299724 -0.02067,2.335775 0,2.87321 0.248047,4.599202 0.05168,0.372071 0.05168,0.516765 0,0.1757 -0.124024,0.248047 -0.09302,0.05168 -0.89917,0.09302 -0.496093,0.113688 -0.630452,0.113688 -0.54777,0 -1.064535,-0.186035 -0.227376,-0.07235 -0.227376,-0.248047 0,-0.04134 0.02067,-0.134358 0.08268,-0.227377 0.103352,-1.167888 0.01034,-0.578776 0.03101,-1.333252 0.113689,-3.131591 0.113689,-3.751709 0,-2.335774 -0.186036,-4.826578 -0.134358,-1.891358 -0.299723,-2.315104 -0.103353,-0.258382 -0.103353,-0.361735 0,-0.403076 1.870687,-0.403076 z"
         style="fill:#f17017"
         id="path844" />
      <path
         d="m 47.679628,43.659981 q -0.661459,0 -2.604493,1.477946 -0.382405,0.289388 -0.589111,0.671794 -0.124023,0.217041 -0.268717,0.217041 -0.144694,0 -0.289388,-0.103353 -0.144694,-0.113688 -0.196371,-0.258382 -0.06201,-0.144694 -0.08268,-0.1757 -0.144694,-0.320394 -0.144694,-0.392741 0,-0.15503 0.289388,-0.444418 0.785482,-0.816487 1.395264,-1.322916 0.56844,-0.485759 1.374593,-0.764811 0.558105,-0.186035 0.91984,-0.186035 0.248047,0 1.395264,0.268717 1.302246,0.268717 1.508952,0.361735 0.754475,0.37207 1.012858,0.878499 0.330729,0.651123 0.330729,2.211752 0,1.415934 -0.134359,3.09025 -0.03101,0.392741 -0.03101,0.589111 0,0.372071 0.09302,0.909506 0.06201,0.403076 0.06201,0.692464 0,0.341064 -0.227376,0.465088 -0.155029,0.08268 -0.692464,0.09302 h -0.3514 q -0.248047,-0.02067 -0.661458,-0.1757 -0.403076,-0.144694 -0.485758,-0.237711 -0.15503,-0.1757 -0.196371,-0.206706 -0.05168,-0.03101 -0.186035,-0.03101 -0.165365,0 -0.403076,0.02067 -1.581299,0.144694 -1.953369,0.144694 -1.643311,0 -2.511475,-0.826823 -0.878499,-0.847494 -0.878499,-1.736328 0,-0.682129 0.527099,-1.209229 0.682129,-0.682129 1.881023,-1.043864 1.209228,-0.361735 3.038574,-0.444417 0.299723,-0.01034 0.413411,-0.113688 0.113688,-0.113688 0.113688,-0.392741 0,-0.37207 -0.134358,-0.857829 -0.134359,-0.485758 -0.299724,-0.692464 -0.155029,-0.206706 -0.496094,-0.3514 -0.310058,-0.124023 -0.537434,-0.124023 z m 0.91984,4.14445 q -0.382406,0 -1.881022,0.330729 -0.961182,0.206706 -1.395264,0.630452 -0.454752,0.434082 -0.454752,0.640788 0,0.7028 2.036051,0.7028 0.713135,0 1.705322,-0.320394 0.341065,-0.113688 0.423747,-0.196371 0.144694,-0.134358 0.144694,-0.444417 0,-0.651123 -0.03101,-0.930176 -0.04134,-0.413411 -0.54777,-0.413411 z"
         style="fill:#00599d"
         id="path846" />
      <path
         d="m 56.567974,43.050199 q 0.299723,-0.07235 0.775146,-0.07235 0.186036,0 0.537435,-0.103353 0.475423,-0.144694 0.8785,-0.144694 1.405599,0 2.480468,0.713135 0.237712,0.165365 0.372071,0.165365 0.103352,0 0.702799,-0.310059 0.868164,-0.465088 1.498617,-0.589111 0.589111,-0.113688 1.250569,-0.113688 1.054199,0 1.767334,0.403076 1.302246,0.72347 1.302246,2.428792 0,0.206706 -0.05168,1.240234 l -0.05168,0.950847 -0.02067,0.361735 0.07235,1.612304 q 0.04134,0.909505 0.07235,1.023194 0.05168,0.237711 0.05168,0.351399 0,0.289388 -0.279053,0.454753 -0.206705,0.124023 -0.423746,0.124023 -0.651123,0 -1.312582,-0.09302 -0.651123,-0.09302 -0.888834,-0.206706 -0.217041,-0.113688 -0.217041,-0.341064 0,-0.124024 0.08268,-0.361735 0.248047,-0.775147 0.248047,-3.937744 0,-2.976563 -1.136882,-2.976563 -0.826822,0 -1.405598,0.868164 -0.403077,0.589111 -0.578777,2.036052 -0.310058,2.645833 -0.310058,3.369303 0,0.506429 0.08268,1.043864 0.02067,0.103353 0.02067,0.165364 0,0.248047 -0.403076,0.361735 -0.403077,0.113688 -1.281576,0.113688 -0.392741,0 -0.692464,-0.103352 -0.186035,-0.07235 -0.320394,-0.227377 -0.124023,-0.165364 -0.124023,-0.330729 0,-0.206706 0.165364,-0.702799 0.186035,-0.54777 0.186035,-1.808675 0,-2.821533 -0.268717,-3.627686 -0.361735,-1.085205 -1.229899,-1.085205 -0.713135,0 -1.147217,0.682129 -0.299723,0.465088 -0.475423,1.198893 -0.1757,0.72347 -0.299723,1.99471 -0.103353,1.0542 -0.103353,1.788005 0,1.105876 0.08268,1.570963 0.03101,0.144694 0.03101,0.227377 0,0.1757 -0.1757,0.227376 -0.05168,0.01034 -1.891357,0.103353 -0.682129,-0.06201 -0.682129,-0.413412 0,-0.103352 0.07235,-0.330729 0.07235,-0.03101 0.07235,-0.91984 0,-0.248047 0.03101,-0.930176 0.09302,-2.005045 0.09302,-4.041097 0,-0.599446 -0.155029,-1.570963 -0.03101,-0.196371 -0.103353,-0.330729 -0.05168,-0.09302 -0.05168,-0.15503 0,-0.19637 0.227376,-0.299723 0.382406,-0.165365 0.992187,-0.165365 0.403077,0 0.888835,0.06201 0.485759,0.05168 0.640788,0.113688 0.186035,0.07235 0.268717,0.1757 0.02067,0.03101 0.134359,0.361735 z"
         style="fill:#00599d"
         id="path848" />
      <path
         d="m 73.972596,43.659981 q -0.661458,0 -2.604492,1.477946 -0.382405,0.289388 -0.589111,0.671794 -0.124024,0.217041 -0.268718,0.217041 -0.144694,0 -0.289388,-0.103353 -0.144694,-0.113688 -0.19637,-0.258382 -0.06201,-0.144694 -0.08268,-0.1757 -0.144694,-0.320394 -0.144694,-0.392741 0,-0.15503 0.289388,-0.444418 0.785481,-0.816487 1.395263,-1.322916 0.568441,-0.485759 1.374593,-0.764811 0.558106,-0.186035 0.919841,-0.186035 0.248047,0 1.395264,0.268717 1.302246,0.268717 1.508951,0.361735 0.754476,0.37207 1.012858,0.878499 0.33073,0.651123 0.33073,2.211752 0,1.415934 -0.134359,3.09025 -0.03101,0.392741 -0.03101,0.589111 0,0.372071 0.09302,0.909506 0.06201,0.403076 0.06201,0.692464 0,0.341064 -0.227376,0.465088 -0.155029,0.08268 -0.692464,0.09302 h -0.3514 q -0.248047,-0.02067 -0.661458,-0.1757 -0.403076,-0.144694 -0.485759,-0.237711 -0.155029,-0.1757 -0.19637,-0.206706 -0.05168,-0.03101 -0.186035,-0.03101 -0.165365,0 -0.403076,0.02067 -1.581299,0.144694 -1.95337,0.144694 -1.64331,0 -2.511474,-0.826823 -0.878499,-0.847494 -0.878499,-1.736328 0,-0.682129 0.527099,-1.209229 0.682129,-0.682129 1.881022,-1.043864 1.209229,-0.361735 3.038574,-0.444417 0.299724,-0.01034 0.413412,-0.113688 0.113688,-0.113688 0.113688,-0.392741 0,-0.37207 -0.134359,-0.857829 -0.134358,-0.485758 -0.299723,-0.692464 -0.155029,-0.206706 -0.496094,-0.3514 -0.310058,-0.124023 -0.537435,-0.124023 z m 0.919841,4.14445 q -0.382406,0 -1.881022,0.330729 -0.961182,0.206706 -1.395264,0.630452 -0.454752,0.434082 -0.454752,0.640788 0,0.7028 2.036051,0.7028 0.713135,0 1.705322,-0.320394 0.341065,-0.113688 0.423747,-0.196371 0.144694,-0.134358 0.144694,-0.444417 0,-0.651123 -0.03101,-0.930176 -0.04134,-0.413411 -0.54777,-0.413411 z"
         style="fill:#00599d"
         id="path850" />
    </g>
  </g>
</svg>
