<?xml version="1.0" encoding="UTF-8" standalone="no"?>
<!-- Created with Inkscape (http://www.inkscape.org/) -->

<svg
   xmlns:dc="http://purl.org/dc/elements/1.1/"
   xmlns:cc="http://creativecommons.org/ns#"
   xmlns:rdf="http://www.w3.org/1999/02/22-rdf-syntax-ns#"
   xmlns:svg="http://www.w3.org/2000/svg"
   xmlns="http://www.w3.org/2000/svg"
   xmlns:sodipodi="http://sodipodi.sourceforge.net/DTD/sodipodi-0.dtd"
   xmlns:inkscape="http://www.inkscape.org/namespaces/inkscape"
   width="36.472321mm"
   height="15.404262mm"
   viewBox="0 0 36.472321 15.404262"
   version="1.1"
   id="svg8"
   inkscape:version="0.92.3 (2405546, 2018-03-11)"
   sodipodi:docname="logo.svg">
  <defs
     id="defs2" />
  <sodipodi:namedview
     id="base"
     pagecolor="#ffffff"
     bordercolor="#666666"
     borderopacity="1.0"
     inkscape:pageopacity="0.0"
     inkscape:pageshadow="2"
     inkscape:zoom="5.6"
     inkscape:cx="68.807808"
     inkscape:cy="43.10221"
     inkscape:document-units="mm"
     inkscape:current-layer="layer1"
     showgrid="false"
     fit-margin-top="0"
     fit-margin-left="0"
     fit-margin-right="0"
     fit-margin-bottom="0"
     inkscape:window-width="1920"
     inkscape:window-height="1028"
     inkscape:window-x="0"
     inkscape:window-y="28"
     inkscape:window-maximized="1" />
  <metadata
     id="metadata5">
    <rdf:RDF>
      <cc:Work
         rdf:about="">
        <dc:format>image/svg+xml</dc:format>
        <dc:type
           rdf:resource="http://purl.org/dc/dcmitype/StillImage" />
        <dc:title></dc:title>
      </cc:Work>
    </rdf:RDF>
  </metadata>
  <g
     inkscape:label="Ebene 1"
     inkscape:groupmode="layer"
     id="layer1"
     transform="translate(-33.750711,-37.224663)">
    <path
       style="opacity:1;fill:#00599d;fill-opacity:1;fill-rule:evenodd;stroke:none;stroke-width:0.89636195;stroke-linecap:round;stroke-linejoin:round;stroke-miterlimit:4;stroke-dasharray:none;stroke-dashoffset:0;stroke-opacity:1;paint-order:stroke fill markers"
       d="m 34.254932,52.123165 h 18.653019 v 0.500171 H 34.254932 Z"
       id="rect845" />
    <path
       style="fill:#00599d;fill-rule:evenodd;stroke:#f17017;stroke-width:1;stroke-linecap:round;stroke-linejoin:miter;stroke-miterlimit:4;stroke-dasharray:none;stroke-opacity:1"
       d="M 44.669296,49.752888 C 47.578722,45.836727 44.28046,37.43591 42.11746,37.73239 c -1.50401,0.164527 1.989213,7.545631 -0.738691,11.684729"
       id="path820-3"
       inkscape:connector-curvature="0"
       sodipodi:nodetypes="ccc" />
    <g
       aria-label="AMA"
       style="font-style:normal;font-weight:normal;font-size:5.29166651px;line-height:5.66208363px;font-family:Sans;letter-spacing:0px;word-spacing:0px;fill:#00599d;fill-opacity:1;stroke:none;stroke-width:0.26458332px;stroke-linecap:butt;stroke-linejoin:miter;stroke-opacity:1"
       id="text839">
      <path
         d="m 52.91312,48.993231 q -0.191203,0 -0.37207,-0.113688 -0.191203,-0.139526 -0.232544,-0.310058 l -0.465088,-1.235067 h -3.302125 l -0.465088,1.235067 q -0.160197,0.403076 -0.604614,0.403076 -0.222209,0 -0.387574,-0.134359 -0.160197,-0.139526 -0.170532,-0.361735 l 0.03101,-0.149862 0.03101,-0.113688 2.444296,-6.309693 q 0.129191,-0.325562 0.320393,-0.454753 0.201539,-0.170532 0.444418,-0.170532 0.537435,0 0.769979,0.604614 l 2.475301,6.330364 q 0.04651,0.160197 0.04651,0.294556 0,0.211873 -0.160197,0.361735 -0.160197,0.124023 -0.403076,0.124023 z M 50.205274,42.8334 48.923699,46.306057 h 2.563151 z"
         style="font-style:normal;font-variant:normal;font-weight:bold;font-stretch:normal;font-size:10.58333492px;font-family:UnDinaru;-inkscape-font-specification:'UnDinaru Bold';letter-spacing:0.7355417px;fill:#00599d;stroke-width:0.26458332px"
         id="path853" />
      <path
         d="m 62.640362,48.807196 q -0.165364,0.196371 -0.418579,0.196371 -0.532267,0 -0.604614,-0.516765 l -0.785482,-5.333008 -1.669149,5.39502 q -0.139527,0.454753 -0.583944,0.454753 -0.201538,0 -0.37207,-0.134359 -0.165365,-0.139526 -0.232544,-0.320394 l -1.648479,-5.39502 -0.806152,5.37435 q -0.03101,0.222208 -0.211874,0.39274 -0.191202,0.160197 -0.434082,0.160197 -0.232544,0 -0.413411,-0.211873 -0.144694,-0.211873 -0.144694,-0.444417 l 0.02067,-0.211874 1.100709,-6.180502 q 0.06201,-0.361735 0.28422,-0.563273 0.268717,-0.191203 0.542603,-0.191203 0.640787,0 0.81132,0.583944 l 1.483114,4.940267 1.514119,-4.971273 q 0.160197,-0.552938 0.780314,-0.552938 0.744141,0 0.847494,0.713135 l 1.100708,6.263184 q 0,0.382406 -0.160197,0.552938 z"
         style="font-style:normal;font-variant:normal;font-weight:bold;font-stretch:normal;font-size:10.58333492px;font-family:UnDinaru;-inkscape-font-specification:'UnDinaru Bold';letter-spacing:0.7355417px;fill:#00599d;stroke-width:0.26458332px"
         id="path855" />
      <path
         d="m 69.659759,48.993231 q -0.191203,0 -0.37207,-0.113688 -0.191203,-0.139526 -0.232544,-0.310058 l -0.465088,-1.235067 h -3.302125 l -0.465088,1.235067 q -0.160197,0.403076 -0.604614,0.403076 -0.222209,0 -0.387573,-0.134359 -0.160197,-0.139526 -0.170533,-0.361735 l 0.03101,-0.149862 0.03101,-0.113688 2.444296,-6.309693 q 0.129191,-0.325562 0.320394,-0.454753 0.201538,-0.170532 0.444417,-0.170532 0.537435,0 0.769979,0.604614 l 2.475302,6.330364 q 0.04651,0.160197 0.04651,0.294556 0,0.211873 -0.160197,0.361735 -0.160197,0.124023 -0.403076,0.124023 z M 66.951914,42.8334 65.670338,46.306057 h 2.563151 z"
         style="font-style:normal;font-variant:normal;font-weight:bold;font-stretch:normal;font-size:10.58333492px;font-family:UnDinaru;-inkscape-font-specification:'UnDinaru Bold';letter-spacing:0.7355417px;fill:#00599d;stroke-width:0.26458332px"
         id="path857" />
    </g>
    <path
       style="fill:#00599d;fill-rule:evenodd;stroke:#f17017;stroke-width:1;stroke-linecap:round;stroke-linejoin:round;stroke-miterlimit:4;stroke-dasharray:none;stroke-opacity:1"
       d="m 34.254932,52.123165 c 0.375584,-0.514117 0.754283,-0.824636 1.205692,-1.146892 -3.269017,-3.772325 1.020982,-13.27495 3.223371,-12.994226 1.50401,0.164527 -2.324982,7.478477 0.402923,11.617576 7.949669,-0.112104 10.324706,1.230561 13.80433,2.523541"
       id="path820"
       inkscape:connector-curvature="0"
       sodipodi:nodetypes="ccccc" />
  </g>
</svg>
