<?xml version="1.0" encoding="UTF-8" standalone="no"?>
<svg
   xmlns:dc="http://purl.org/dc/elements/1.1/"
   xmlns:cc="http://creativecommons.org/ns#"
   xmlns:rdf="http://www.w3.org/1999/02/22-rdf-syntax-ns#"
   xmlns:svg="http://www.w3.org/2000/svg"
   xmlns="http://www.w3.org/2000/svg"
   xmlns:sodipodi="http://sodipodi.sourceforge.net/DTD/sodipodi-0.dtd"
   xmlns:inkscape="http://www.inkscape.org/namespaces/inkscape"
   width="15.914778cm"
   height="17.530201cm"
   viewBox="174 182 312.61171 338.91722"
   version="1.1"
   id="svg219"
   sodipodi:docname="padding_tree_2.svg"
   inkscape:version="0.92.3 (2405546, 2018-03-11)">
  <metadata
     id="metadata225">
    <rdf:RDF>
      <cc:Work
         rdf:about="">
        <dc:format>image/svg+xml</dc:format>
        <dc:type
           rdf:resource="http://purl.org/dc/dcmitype/StillImage" />
        <dc:title></dc:title>
      </cc:Work>
    </rdf:RDF>
  </metadata>
  <defs
     id="defs223" />
  <sodipodi:namedview
     pagecolor="#ffffff"
     bordercolor="#666666"
     borderopacity="1"
     objecttolerance="10"
     gridtolerance="10"
     guidetolerance="10"
     inkscape:pageopacity="0"
     inkscape:pageshadow="2"
     inkscape:window-width="1920"
     inkscape:window-height="1028"
     id="namedview221"
     showgrid="false"
     fit-margin-left="1"
     fit-margin-right="1"
     fit-margin-top="0"
     fit-margin-bottom="0"
     inkscape:zoom="0.98117614"
     inkscape:cx="157.81674"
     inkscape:cy="294.36537"
     inkscape:window-x="0"
     inkscape:window-y="28"
     inkscape:window-maximized="1"
     inkscape:current-layer="svg219" />
  <path
     transform="translate(18.242857,-3.085712)"
     style="fill:#ffffff;fill-opacity:1;fill-rule:evenodd;stroke:#000000;stroke-width:2;stroke-opacity:1"
     d="M 281.971,241 H 226.84 v -40 h 55.131 z"
     id="polygon2" />
  <path
     style="fill:none;stroke:#000000;stroke-width:2;stroke-opacity:1"
     d="m 250.59586,197.91429 v 40"
     id="line4" />
  <path
     style="fill:none;stroke:#000000;stroke-width:2;stroke-opacity:1"
     d="m 294.70087,197.91429 v 40"
     id="line6" />
  <g
     style="font-style:normal;font-weight:normal;font-size:12.80000019px;font-family:sans-serif;text-anchor:middle;fill:#000000;fill-opacity:1;stroke:none"
     id="text10" />
  <path
     transform="translate(18.242857,-3.085712)"
     style="fill:#ffffff;fill-opacity:1;fill-rule:evenodd;stroke:#000000;stroke-width:2;stroke-opacity:1"
     d="m 277.178,183.3 12,12 v 22 h -25.7 v -34 z"
     id="polygon14" />
  <path
     transform="translate(18.242857,-3.085712)"
     style="fill:none;stroke:#000000;stroke-width:1;stroke-opacity:1"
     d="m 277.178,183.3 v 12 h 12"
     id="polyline16" />
  <g
     aria-label="1"
     style="font-style:normal;font-weight:normal;font-size:12.80000019px;font-family:monospace;text-anchor:start;fill:#000000;fill-opacity:1;stroke:none"
     id="text20">
    <path
       d="m 290.40836,204.05179 h 1.9625 v -7.13125 l -2.1125,0.475 v -1.15 l 2.1,-0.4625 h 1.2625 v 8.26875 h 1.9375 v 1.0625 h -5.15 z"
       style=""
       id="path2285" />
  </g>
  <path
     transform="translate(18.242857,-3.085712)"
     style="fill:#ffffff;fill-opacity:1;fill-rule:evenodd;stroke:#000000;stroke-width:2;stroke-opacity:1"
     d="M 247.275,419.492 H 176.4 v -40 h 70.875 z"
     id="polygon24" />
  <path
     style="fill:none;stroke:#000000;stroke-width:2;stroke-opacity:1"
     d="m 201.72986,376.40628 v 40"
     id="line26" />
  <path
     style="fill:none;stroke:#000000;stroke-width:2;stroke-opacity:1"
     d="m 258.42984,376.40628 v 40"
     id="line28" />
  <g
     aria-label="color"
     style="font-style:normal;font-weight:normal;font-size:12.80000019px;font-family:sans-serif;text-anchor:middle;fill:#000000;fill-opacity:1;stroke:none"
     id="text32">
    <path
       d="m 220.56111,393.67503 v 1.075 q -0.4875,-0.26875 -0.98125,-0.4 -0.4875,-0.1375 -0.9875,-0.1375 -1.11875,0 -1.7375,0.7125 -0.61875,0.70625 -0.61875,1.9875 0,1.28125 0.61875,1.99375 0.61875,0.70625 1.7375,0.70625 0.5,0 0.9875,-0.13125 0.49375,-0.1375 0.98125,-0.40625 v 1.0625 q -0.48125,0.225 -1,0.3375 -0.5125,0.1125 -1.09375,0.1125 -1.58125,0 -2.5125,-0.99375 -0.93125,-0.99375 -0.93125,-2.68125 0,-1.7125 0.9375,-2.69375 0.94375,-0.98125 2.58125,-0.98125 0.53125,0 1.0375,0.1125 0.50625,0.10625 0.98125,0.325 z"
       style=""
       id="path2290" />
    <path
       d="m 225.28611,394.21253 q -0.925,0 -1.4625,0.725 -0.5375,0.71875 -0.5375,1.975 0,1.25625 0.53125,1.98125 0.5375,0.71875 1.46875,0.71875 0.91875,0 1.45625,-0.725 0.5375,-0.725 0.5375,-1.975 0,-1.24375 -0.5375,-1.96875 -0.5375,-0.73125 -1.45625,-0.73125 z m 0,-0.975 q 1.5,0 2.35625,0.975 0.85625,0.975 0.85625,2.7 0,1.71875 -0.85625,2.7 -0.85625,0.975 -2.35625,0.975 -1.50625,0 -2.3625,-0.975 -0.85,-0.98125 -0.85,-2.7 0,-1.725 0.85,-2.7 0.85625,-0.975 2.3625,-0.975 z"
       style=""
       id="path2292" />
    <path
       d="m 230.39861,390.68128 h 1.15 v 9.725 h -1.15 z"
       style=""
       id="path2294" />
    <path
       d="m 236.66112,394.21253 q -0.925,0 -1.4625,0.725 -0.5375,0.71875 -0.5375,1.975 0,1.25625 0.53125,1.98125 0.5375,0.71875 1.46875,0.71875 0.91875,0 1.45625,-0.725 0.5375,-0.725 0.5375,-1.975 0,-1.24375 -0.5375,-1.96875 -0.5375,-0.73125 -1.45625,-0.73125 z m 0,-0.975 q 1.5,0 2.35625,0.975 0.85625,0.975 0.85625,2.7 0,1.71875 -0.85625,2.7 -0.85625,0.975 -2.35625,0.975 -1.50625,0 -2.3625,-0.975 -0.85,-0.98125 -0.85,-2.7 0,-1.725 0.85,-2.7 0.85625,-0.975 2.3625,-0.975 z"
       style=""
       id="path2296" />
    <path
       d="m 245.82986,394.48128 q -0.19375,-0.1125 -0.425,-0.1625 -0.225,-0.0562 -0.5,-0.0562 -0.975,0 -1.5,0.6375 -0.51875,0.63125 -0.51875,1.81875 v 3.6875 h -1.15625 v -7 h 1.15625 v 1.0875 q 0.3625,-0.6375 0.94375,-0.94375 0.58125,-0.3125 1.4125,-0.3125 0.11875,0 0.2625,0.0188 0.14375,0.0125 0.31875,0.0437 z"
       style=""
       id="path2298" />
  </g>
  <path
     transform="translate(18.242857,-3.085712)"
     style="fill:#ffffff;fill-opacity:1;fill-rule:evenodd;stroke:#000000;stroke-width:2;stroke-opacity:1"
     d="m 248.85,359.364 12,12 v 22 h -25.7 v -34 z"
     id="polygon36" />
  <path
     transform="translate(18.242857,-3.085712)"
     style="fill:none;stroke:#000000;stroke-width:1;stroke-opacity:1"
     d="m 248.85,359.364 v 12 h 12"
     id="polyline38" />
  <g
     aria-label="1"
     style="font-style:normal;font-weight:normal;font-size:12.80000019px;font-family:monospace;text-anchor:start;fill:#000000;fill-opacity:1;stroke:none"
     id="text42">
    <path
       d="m 262.08035,380.11578 h 1.9625 v -7.13125 l -2.1125,0.475 v -1.15 l 2.1,-0.4625 h 1.2625 v 8.26875 h 1.9375 v 1.0625 h -5.15 z"
       style=""
       id="path2304" />
  </g>
  <path
     transform="translate(18.242857,-3.085712)"
     style="fill:#ffffff;fill-opacity:1;fill-rule:evenodd;stroke:#000000;stroke-width:2;stroke-opacity:1"
     d="m 286.887,336.302 h -66.625 v -40 h 66.625 z"
     id="polygon46" />
  <path
     style="fill:none;stroke:#000000;stroke-width:2;stroke-opacity:1"
     d="m 245.16685,293.21628 v 40"
     id="line48" />
  <path
     style="fill:none;stroke:#000000;stroke-width:2;stroke-opacity:1"
     d="m 298.46686,293.21628 v 40"
     id="line50" />
  <g
     aria-label="Pixel"
     style="font-style:normal;font-weight:normal;font-size:12.80000019px;font-family:sans-serif;text-anchor:middle;fill:#000000;fill-opacity:1;stroke:none"
     id="text54">
    <path
       d="m 259.53561,308.92253 v 3.50625 h 1.5875 q 0.88125,0 1.3625,-0.45625 0.48125,-0.45625 0.48125,-1.3 0,-0.8375 -0.48125,-1.29375 -0.48125,-0.45625 -1.3625,-0.45625 z m -1.2625,-1.0375 h 2.85 q 1.56875,0 2.36875,0.7125 0.80625,0.70625 0.80625,2.075 0,1.38125 -0.80625,2.0875 -0.8,0.70625 -2.36875,0.70625 h -1.5875 v 3.75 h -1.2625 z"
       style=""
       id="path2309" />
    <path
       d="m 265.67311,310.21628 h 1.15 v 7 h -1.15 z m 0,-2.725 h 1.15 v 1.45625 h -1.15 z"
       style=""
       id="path2311" />
    <path
       d="m 275.04186,310.21628 -2.53125,3.40625 2.6625,3.59375 h -1.35625 l -2.0375,-2.75 -2.0375,2.75 h -1.35625 l 2.71875,-3.6625 -2.4875,-3.3375 h 1.35625 l 1.85625,2.49375 1.85625,-2.49375 z"
       style=""
       id="path2313" />
    <path
       d="m 282.38562,313.42878 v 0.5625 h -5.28751 q 0.075,1.1875 0.7125,1.8125 0.64375,0.61875 1.78751,0.61875 0.6625,0 1.28125,-0.1625 0.625,-0.1625 1.2375,-0.4875 v 1.0875 q -0.61875,0.2625 -1.26875,0.4 -0.65,0.1375 -1.31875,0.1375 -1.67501,0 -2.65626,-0.975 -0.975,-0.975 -0.975,-2.6375 0,-1.71875 0.925,-2.725 0.93125,-1.0125 2.50625,-1.0125 1.41251,0 2.23126,0.9125 0.825,0.90625 0.825,2.46875 z m -1.15,-0.3375 q -0.0125,-0.94375 -0.53125,-1.50625 -0.5125,-0.5625 -1.36251,-0.5625 -0.9625,0 -1.54375,0.54375 -0.575,0.54375 -0.6625,1.53125 z"
       style=""
       id="path2315" />
    <path
       d="m 284.27311,307.49128 h 1.15 v 9.725 h -1.15 z"
       style=""
       id="path2317" />
  </g>
  <path
     transform="translate(18.242857,-3.085712)"
     style="fill:#ffffff;fill-opacity:1;fill-rule:evenodd;stroke:#000000;stroke-width:2;stroke-opacity:1"
     d="m 289.164,275.774 12,12 v 22 h -25.7 v -34 z"
     id="polygon58" />
  <path
     transform="translate(18.242857,-3.085712)"
     style="fill:none;stroke:#000000;stroke-width:1;stroke-opacity:1"
     d="m 289.164,275.774 v 12 h 12"
     id="polyline60" />
  <g
     aria-label="8"
     style="font-style:normal;font-weight:normal;font-size:12.80000019px;font-family:monospace;text-anchor:start;fill:#000000;fill-opacity:1;stroke:none"
     id="text64">
    <path
       d="m 304.55685,293.15704 q -0.84375,0 -1.30625,0.475 -0.45625,0.46875 -0.45625,1.33125 0,0.8625 0.4625,1.34375 0.46875,0.475 1.3,0.475 0.85,0 1.30625,-0.46875 0.4625,-0.475 0.4625,-1.35 0,-0.85625 -0.46875,-1.33125 -0.4625,-0.475 -1.3,-0.475 z m -1.1,-0.525 q -0.80625,-0.20625 -1.2625,-0.76875 -0.45,-0.5625 -0.45,-1.35625 0,-1.1125 0.75625,-1.7625 0.75625,-0.65625 2.05625,-0.65625 1.30625,0 2.0625,0.65625 0.75625,0.65 0.75625,1.7625 0,0.79375 -0.45625,1.35625 -0.45,0.5625 -1.25625,0.76875 0.9375,0.20625 1.43125,0.83125 0.5,0.625 0.5,1.61875 0,1.2625 -0.80625,1.975 -0.80625,0.7125 -2.23125,0.7125 -1.425,0 -2.23125,-0.70625 -0.8,-0.7125 -0.8,-1.96875 0,-1 0.49375,-1.625 0.5,-0.63125 1.4375,-0.8375 z m -0.45625,-2.00625 q 0,0.75 0.4,1.14375 0.4,0.39375 1.15625,0.39375 0.7625,0 1.1625,-0.39375 0.4,-0.39375 0.4,-1.14375 0,-0.7625 -0.4,-1.1625 -0.39375,-0.4 -1.1625,-0.4 -0.75625,0 -1.15625,0.40625 -0.4,0.4 -0.4,1.15625 z"
       style=""
       id="path2323" />
  </g>
  <path
     style="fill:none;stroke:#000000;stroke-width:2;stroke-opacity:1"
     d="m 272.64886,237.91429 -0.66601,44.303"
     id="line68" />
  <path
     transform="translate(18.242857,-3.085712)"
     style="fill:#000000;fill-opacity:1;fill-rule:evenodd;stroke:#000000;stroke-width:2;stroke-opacity:1"
     d="m 248.74,285.228 4.85,10.074 5.149,-9.924 z"
     id="polygon70" />
  <path
     style="fill:none;stroke:#000000;stroke-width:2;stroke-opacity:1"
     d="m 257.94885,334.21228 -21.806,33.01498"
     id="line74" />
  <path
     transform="translate(18.242857,-3.085712)"
     style="fill:#000000;fill-opacity:1;fill-rule:evenodd;stroke:#000000;stroke-width:2;stroke-opacity:1"
     d="m 213.728,367.558 -1.339,11.1 9.683,-5.589 z"
     id="polygon76" />
  <path
     style="fill:none;stroke:#000000;stroke-width:2;stroke-opacity:1"
     d="m 288.94485,334.22128 27.25901,33.43201"
     id="line80" />
  <path
     transform="translate(18.242857,-3.085712)"
     style="fill:#000000;fill-opacity:1;fill-rule:evenodd;stroke:#000000;stroke-width:2;stroke-opacity:1"
     d="m 294.086,373.898 10.195,4.591 -2.444,-10.91 z"
     id="polygon82" />
  <path
     style="fill:none;stroke:#000000;stroke-width:2;stroke-opacity:1"
     d="m 254.89386,417.41226 52.16199,44.16101"
     id="line86" />
  <path
     transform="translate(18.242857,-3.085712)"
     style="fill:#000000;fill-opacity:1;fill-rule:evenodd;stroke:#000000;stroke-width:2;stroke-opacity:1"
     d="m 285.583,468.475 10.863,2.645 -4.402,-10.277 z"
     id="polygon88" />
  <path
     style="fill:none;stroke:#000000;stroke-width:2;stroke-opacity:1"
     d="m 226.68686,417.34827 -6.239,38.51001"
     id="line92" />
  <path
     transform="translate(18.242857,-3.085712)"
     style="fill:#000000;fill-opacity:1;fill-rule:evenodd;stroke:#000000;stroke-width:2;stroke-opacity:1"
     d="m 197.269,458.144 3.336,10.671 6.535,-9.072 z"
     id="polygon94" />
  <path
     style="fill:none;stroke:#000000;stroke-width:2;stroke-opacity:1"
     d="m 266.49185,411.07028 131.569,52.987"
     id="line98" />
  <path
     transform="translate(18.242857,-3.085712)"
     style="fill:#000000;fill-opacity:1;fill-rule:evenodd;stroke:#000000;stroke-width:2;stroke-opacity:1"
     d="m 377.95,471.781 11.144,-0.902 -7.408,-8.374 z"
     id="polygon100" />
  <path
     style="fill:#ffffff;fill-opacity:1;fill-rule:evenodd;stroke:#000000;stroke-width:2;stroke-opacity:1"
     d="m 203.65086,466.71629 h 30.075 c 3.76,8 4.963,12 4.963,20 0,8 -1.203,12 -4.963,20 h -30.075 c -3.759,-8 -4.962,-12 -4.962,-20 0,-8 1.203,-12 4.962,-20 z"
     id="path104"
     inkscape:connector-curvature="0" />
  <g
     aria-label="r"
     style="font-style:normal;font-weight:normal;font-size:12.80000019px;font-family:sans-serif;text-anchor:middle;fill:#000000;fill-opacity:1;stroke:none"
     id="text108">
    <path
       d="m 221.31386,484.79128 q -0.19375,-0.1125 -0.425,-0.1625 -0.225,-0.0563 -0.5,-0.0563 -0.975,0 -1.5,0.6375 -0.51875,0.63125 -0.51875,1.81875 v 3.6875 h -1.15625 v -7 h 1.15625 v 1.0875 q 0.3625,-0.6375 0.94375,-0.94375 0.58125,-0.3125 1.4125,-0.3125 0.11875,0 0.2625,0.0188 0.14375,0.0125 0.31875,0.0437 z"
       style=""
       id="path2340" />
  </g>
  <g
     aria-label=" float"
     style="font-style:normal;font-weight:normal;font-size:12.80000019px;font-family:sans-serif;text-anchor:start;fill:#000000;fill-opacity:1;stroke:none"
     id="text114">
    <path
       d="m 210.14236,512.07328 h 3.2 v 9.725 h -1.15625 v -8.76875 h -2.05625 q -0.61875,0 -0.8625,0.25 -0.2375,0.25 -0.2375,0.9 v 0.61875 h 1.89375 v 0.89375 h -1.89375 v 6.10625 h -1.15625 v -6.10625 h -1.1 v -0.89375 h 1.1 v -0.4875 q 0,-1.16875 0.54375,-1.7 0.54375,-0.5375 1.725,-0.5375 z"
       style=""
       id="path2343" />
    <path
       d="m 218.47361,515.60453 q -0.925,0 -1.4625,0.725 -0.5375,0.71875 -0.5375,1.975 0,1.25625 0.53125,1.98125 0.5375,0.71875 1.46875,0.71875 0.91875,0 1.45625,-0.725 0.5375,-0.725 0.5375,-1.975 0,-1.24375 -0.5375,-1.96875 -0.5375,-0.73125 -1.45625,-0.73125 z m 0,-0.975 q 1.5,0 2.35625,0.975 0.85625,0.975 0.85625,2.7 0,1.71875 -0.85625,2.7 -0.85625,0.975 -2.35625,0.975 -1.50625,0 -2.3625,-0.975 -0.85,-0.98125 -0.85,-2.7 0,-1.725 0.85,-2.7 0.85625,-0.975 2.3625,-0.975 z"
       style=""
       id="path2345" />
    <path
       d="m 226.76736,518.27953 q -1.39375,0 -1.93125,0.31875 -0.5375,0.31875 -0.5375,1.0875 0,0.6125 0.4,0.975 0.40625,0.35625 1.1,0.35625 0.95625,0 1.53125,-0.675 0.58125,-0.68125 0.58125,-1.80625 v -0.25625 z m 2.29375,-0.475 v 3.99375 h -1.15 v -1.0625 q -0.39375,0.6375 -0.98125,0.94375 -0.5875,0.3 -1.4375,0.3 -1.075,0 -1.7125,-0.6 -0.63125,-0.60625 -0.63125,-1.61875 0,-1.18125 0.7875,-1.78125 0.79375,-0.6 2.3625,-0.6 h 1.6125 v -0.1125 q 0,-0.79375 -0.525,-1.225 -0.51875,-0.4375 -1.4625,-0.4375 -0.6,0 -1.16875,0.14375 -0.56875,0.14375 -1.09375,0.43125 v -1.0625 q 0.63125,-0.24375 1.225,-0.3625 0.59375,-0.125 1.15625,-0.125 1.51875,0 2.26875,0.7875 0.75,0.7875 0.75,2.3875 z"
       style=""
       id="path2347" />
    <path
       d="m 232.57361,512.81078 v 1.9875 h 2.36875 v 0.89375 h -2.36875 v 3.8 q 0,0.85625 0.23125,1.1 0.2375,0.24375 0.95625,0.24375 h 1.18125 v 0.9625 h -1.18125 q -1.33125,0 -1.8375,-0.49375 -0.50625,-0.5 -0.50625,-1.8125 v -3.8 h -0.84375 v -0.89375 h 0.84375 v -1.9875 z"
       style=""
       id="path2349" />
  </g>
  <path
     transform="translate(18.242857,-3.085712)"
     style="fill:#ffffff;fill-opacity:1;fill-rule:evenodd;stroke:#000000;stroke-width:2;stroke-opacity:1"
     d="m 249.194,451.762 12,12 v 22 h -48.8 v -34 z"
     id="polygon116" />
  <path
     transform="translate(18.242857,-3.085712)"
     style="fill:none;stroke:#000000;stroke-width:1;stroke-opacity:1"
     d="m 249.194,451.762 v 12 h 12"
     id="polyline118" />
  <g
     aria-label="1024"
     style="font-style:normal;font-weight:normal;font-size:12.80000019px;font-family:monospace;text-anchor:start;fill:#000000;fill-opacity:1;stroke:none"
     id="text122">
    <path
       d="m 239.32436,472.51376 h 1.9625 v -7.13125 l -2.1125,0.475 v -1.15 l 2.1,-0.4625 h 1.2625 v 8.26875 h 1.9375 v 1.0625 h -5.15 z"
       style=""
       id="path2352" />
    <path
       d="m 248.35561,468.88876 q 0,-0.34375 0.2375,-0.59375 0.24375,-0.25 0.58125,-0.25 0.35,0 0.6,0.25 0.25,0.25 0.25,0.59375 0,0.35 -0.25,0.59375 -0.24375,0.24375 -0.6,0.24375 -0.35,0 -0.5875,-0.2375 -0.23125,-0.2375 -0.23125,-0.6 z m 0.83125,-3.8125 q -0.88125,0 -1.31875,0.95 -0.43125,0.95 -0.43125,2.89375 0,1.9375 0.43125,2.8875 0.4375,0.95 1.31875,0.95 0.8875,0 1.31875,-0.95 0.4375,-0.95 0.4375,-2.8875 0,-1.94375 -0.4375,-2.89375 -0.43125,-0.95 -1.31875,-0.95 z m 0,-1 q 1.49375,0 2.25625,1.225 0.76875,1.225 0.76875,3.61875 0,2.3875 -0.76875,3.6125 -0.7625,1.225 -2.25625,1.225 -1.49375,0 -2.25625,-1.225 -0.7625,-1.225 -0.7625,-3.6125 0,-2.39375 0.7625,-3.61875 0.7625,-1.225 2.25625,-1.225 z"
       style=""
       id="path2354" />
    <path
       d="m 255.36811,472.51376 h 4.2875 v 1.0625 h -5.66875 v -1.0625 q 1.16875,-1.23125 2.04375,-2.175 0.875,-0.94375 1.20625,-1.33125 0.625,-0.7625 0.84375,-1.23125 0.21875,-0.475 0.21875,-0.96875 0,-0.78125 -0.4625,-1.225 -0.45625,-0.44375 -1.25625,-0.44375 -0.56875,0 -1.19375,0.20625 -0.625,0.20625 -1.325,0.625 v -1.275 q 0.64375,-0.30625 1.2625,-0.4625 0.625,-0.15625 1.23125,-0.15625 1.36875,0 2.2,0.73125 0.8375,0.725 0.8375,1.90625 0,0.6 -0.28125,1.2 -0.275,0.6 -0.9,1.325 -0.35,0.40625 -1.01875,1.125 -0.6625,0.71875 -2.025,2.15 z"
       style=""
       id="path2356" />
    <path
       d="m 265.33061,465.39501 -2.94375,4.93125 h 2.94375 z m -0.20625,-1.15 h 1.4625 v 6.08125 h 1.24375 v 1.025 h -1.24375 v 2.225 h -1.25625 v -2.225 h -3.95625 v -1.19375 z"
       style=""
       id="path2358" />
  </g>
  <g
     aria-label=" float"
     style="font-style:normal;font-weight:normal;font-size:12.80000019px;font-family:sans-serif;text-anchor:start;fill:#000000;fill-opacity:1;stroke:none"
     id="text128">
    <path
       d="m 304.52736,513.65128 h 3.2 v 9.725 h -1.15625 v -8.76875 h -2.05625 q -0.61875,0 -0.8625,0.25 -0.2375,0.25 -0.2375,0.9 v 0.61875 h 1.89375 v 0.89375 h -1.89375 v 6.10625 h -1.15625 v -6.10625 h -1.1 v -0.89375 h 1.1 v -0.4875 q 0,-1.16875 0.54375,-1.7 0.54375,-0.5375 1.725,-0.5375 z"
       style=""
       id="path2363" />
    <path
       d="m 312.85861,517.18253 q -0.925,0 -1.4625,0.725 -0.5375,0.71875 -0.5375,1.975 0,1.25625 0.53125,1.98125 0.5375,0.71875 1.46875,0.71875 0.91875,0 1.45625,-0.725 0.5375,-0.725 0.5375,-1.975 0,-1.24375 -0.5375,-1.96875 -0.5375,-0.73125 -1.45625,-0.73125 z m 0,-0.975 q 1.5,0 2.35625,0.975 0.85625,0.975 0.85625,2.7 0,1.71875 -0.85625,2.7 -0.85625,0.975 -2.35625,0.975 -1.50625,0 -2.3625,-0.975 -0.85,-0.98125 -0.85,-2.7 0,-1.725 0.85,-2.7 0.85625,-0.975 2.3625,-0.975 z"
       style=""
       id="path2365" />
    <path
       d="m 321.15236,519.85753 q -1.39375,0 -1.93125,0.31875 -0.5375,0.31875 -0.5375,1.0875 0,0.6125 0.4,0.975 0.40625,0.35625 1.1,0.35625 0.95625,0 1.53125,-0.675 0.58125,-0.68125 0.58125,-1.80625 v -0.25625 z m 2.29375,-0.475 v 3.99375 h -1.15 v -1.0625 q -0.39375,0.6375 -0.98125,0.94375 -0.5875,0.3 -1.4375,0.3 -1.075,0 -1.7125,-0.6 -0.63125,-0.60625 -0.63125,-1.61875 0,-1.18125 0.7875,-1.78125 0.79375,-0.6 2.3625,-0.6 h 1.6125 v -0.1125 q 0,-0.79375 -0.525,-1.225 -0.51875,-0.4375 -1.4625,-0.4375 -0.6,0 -1.16875,0.14375 -0.56875,0.14375 -1.09375,0.43125 v -1.0625 q 0.63125,-0.24375 1.225,-0.3625 0.59375,-0.125 1.15625,-0.125 1.51875,0 2.26875,0.7875 0.75,0.7875 0.75,2.3875 z"
       style=""
       id="path2367" />
    <path
       d="m 326.95861,514.38878 v 1.9875 h 2.36875 v 0.89375 h -2.36875 v 3.8 q 0,0.85625 0.23125,1.1 0.2375,0.24375 0.95625,0.24375 h 1.18125 v 0.9625 h -1.18125 q -1.33125,0 -1.8375,-0.49375 -0.50625,-0.5 -0.50625,-1.8125 v -3.8 h -0.84375 v -0.89375 h 0.84375 v -1.9875 z"
       style=""
       id="path2369" />
  </g>
  <path
     style="fill:#ffffff;fill-opacity:1;fill-rule:evenodd;stroke:#000000;stroke-width:2;stroke-opacity:1"
     d="m 300.41386,468.68029 h 30.075 c 3.76,8 4.963,12 4.963,20 0,8 -1.203,12 -4.963,20 h -30.075 c -3.759,-8 -4.962,-12 -4.962,-20 0,-8 1.203,-12 4.962,-20 z"
     id="path130"
     inkscape:connector-curvature="0" />
  <g
     aria-label="g"
     style="font-style:normal;font-weight:normal;font-size:12.80000019px;font-family:sans-serif;text-anchor:middle;fill:#000000;fill-opacity:1;stroke:none"
     id="text134">
    <path
       d="m 317.20187,489.09902 q 0,-1.25 -0.51875,-1.9375 -0.5125,-0.6875 -1.44375,-0.6875 -0.925,0 -1.44375,0.6875 -0.5125,0.6875 -0.5125,1.9375 0,1.24375 0.5125,1.93125 0.51875,0.6875 1.44375,0.6875 0.93125,0 1.44375,-0.6875 0.51875,-0.6875 0.51875,-1.93125 z m 1.15,2.7125 q 0,1.7875 -0.79375,2.65625 -0.79375,0.875 -2.43125,0.875 -0.60625,0 -1.14375,-0.0937 -0.5375,-0.0875 -1.04375,-0.275 v -1.11875 q 0.50625,0.275 1,0.40625 0.49375,0.13125 1.00625,0.13125 1.13125,0 1.69375,-0.59375 0.5625,-0.5875 0.5625,-1.78125 v -0.56875 q -0.35625,0.61875 -0.9125,0.925 -0.55625,0.30625 -1.33125,0.30625 -1.2875,0 -2.075,-0.98125 -0.7875,-0.98125 -0.7875,-2.6 0,-1.625 0.7875,-2.60625 0.7875,-0.98125 2.075,-0.98125 0.775,0 1.33125,0.30625 0.55625,0.30625 0.9125,0.925 v -1.0625 h 1.15 z"
       style=""
       id="path2372" />
  </g>
  <path
     transform="translate(18.242857,-3.085712)"
     style="fill:#ffffff;fill-opacity:1;fill-rule:evenodd;stroke:#000000;stroke-width:2;stroke-opacity:1"
     d="m 342.913,454.298 12,12 v 22 h -48.8 v -34 z"
     id="polygon138" />
  <path
     transform="translate(18.242857,-3.085712)"
     style="fill:none;stroke:#000000;stroke-width:1;stroke-opacity:1"
     d="m 342.913,454.298 v 12 h 12"
     id="polyline140" />
  <g
     aria-label="1024"
     style="font-style:normal;font-weight:normal;font-size:12.80000019px;font-family:monospace;text-anchor:start;fill:#000000;fill-opacity:1;stroke:none"
     id="text144">
    <path
       d="m 333.04337,475.04977 h 1.9625 v -7.13125 l -2.1125,0.475 v -1.15 l 2.1,-0.4625 h 1.2625 v 8.26875 h 1.9375 v 1.0625 h -5.15 z"
       style=""
       id="path2375" />
    <path
       d="m 342.07462,471.42477 q 0,-0.34375 0.2375,-0.59375 0.24375,-0.25 0.58125,-0.25 0.35,0 0.6,0.25 0.25,0.25 0.25,0.59375 0,0.35 -0.25,0.59375 -0.24375,0.24375 -0.6,0.24375 -0.35,0 -0.5875,-0.2375 -0.23125,-0.2375 -0.23125,-0.6 z m 0.83125,-3.8125 q -0.88125,0 -1.31875,0.95 -0.43125,0.95 -0.43125,2.89375 0,1.9375 0.43125,2.8875 0.4375,0.95 1.31875,0.95 0.8875,0 1.31875,-0.95 0.4375,-0.95 0.4375,-2.8875 0,-1.94375 -0.4375,-2.89375 -0.43125,-0.95 -1.31875,-0.95 z m 0,-1 q 1.49375,0 2.25625,1.225 0.76875,1.225 0.76875,3.61875 0,2.3875 -0.76875,3.6125 -0.7625,1.225 -2.25625,1.225 -1.49375,0 -2.25625,-1.225 -0.7625,-1.225 -0.7625,-3.6125 0,-2.39375 0.7625,-3.61875 0.7625,-1.225 2.25625,-1.225 z"
       style=""
       id="path2377" />
    <path
       d="m 349.08712,475.04977 h 4.2875 v 1.0625 h -5.66875 v -1.0625 q 1.16875,-1.23125 2.04375,-2.175 0.875,-0.94375 1.20625,-1.33125 0.625,-0.7625 0.84375,-1.23125 0.21875,-0.475 0.21875,-0.96875 0,-0.78125 -0.4625,-1.225 -0.45625,-0.44375 -1.25625,-0.44375 -0.56875,0 -1.19375,0.20625 -0.625,0.20625 -1.325,0.625 v -1.275 q 0.64375,-0.30625 1.2625,-0.4625 0.625,-0.15625 1.23125,-0.15625 1.36875,0 2.2,0.73125 0.8375,0.725 0.8375,1.90625 0,0.6 -0.28125,1.2 -0.275,0.6 -0.9,1.325 -0.35,0.40625 -1.01875,1.125 -0.6625,0.71875 -2.025,2.15 z"
       style=""
       id="path2379" />
    <path
       d="m 359.04962,467.93102 -2.94375,4.93125 h 2.94375 z m -0.20625,-1.15 h 1.4625 v 6.08125 h 1.24375 v 1.025 h -1.24375 v 2.225 h -1.25625 v -2.225 h -3.95625 v -1.19375 z"
       style=""
       id="path2381" />
  </g>
  <g
     aria-label=" float"
     style="font-style:normal;font-weight:normal;font-size:12.80000019px;font-family:sans-serif;text-anchor:start;fill:#000000;fill-opacity:1;stroke:none"
     id="text150">
    <path
       d="m 397.34034,513.1373 h 3.2 v 9.725 h -1.15625 v -8.76875 h -2.05625 q -0.61875,0 -0.8625,0.25 -0.2375,0.25 -0.2375,0.9 v 0.61875 h 1.89375 v 0.89375 h -1.89375 v 6.10625 h -1.15625 v -6.10625 h -1.1 v -0.89375 h 1.1 v -0.4875 q 0,-1.16875 0.54375,-1.7 0.54375,-0.5375 1.725,-0.5375 z"
       style=""
       id="path2386" />
    <path
       d="m 405.67159,516.66855 q -0.925,0 -1.4625,0.725 -0.5375,0.71875 -0.5375,1.975 0,1.25625 0.53125,1.98125 0.5375,0.71875 1.46875,0.71875 0.91875,0 1.45625,-0.725 0.5375,-0.725 0.5375,-1.975 0,-1.24375 -0.5375,-1.96875 -0.5375,-0.73125 -1.45625,-0.73125 z m 0,-0.975 q 1.5,0 2.35625,0.975 0.85625,0.975 0.85625,2.7 0,1.71875 -0.85625,2.7 -0.85625,0.975 -2.35625,0.975 -1.50625,0 -2.3625,-0.975 -0.85,-0.98125 -0.85,-2.7 0,-1.725 0.85,-2.7 0.85625,-0.975 2.3625,-0.975 z"
       style=""
       id="path2388" />
    <path
       d="m 413.96534,519.34355 q -1.39375,0 -1.93125,0.31875 -0.5375,0.31875 -0.5375,1.0875 0,0.6125 0.4,0.975 0.40625,0.35625 1.1,0.35625 0.95625,0 1.53125,-0.675 0.58125,-0.68125 0.58125,-1.80625 v -0.25625 z m 2.29375,-0.475 v 3.99375 h -1.15 v -1.0625 q -0.39375,0.6375 -0.98125,0.94375 -0.5875,0.3 -1.4375,0.3 -1.075,0 -1.7125,-0.6 -0.63125,-0.60625 -0.63125,-1.61875 0,-1.18125 0.7875,-1.78125 0.79375,-0.6 2.3625,-0.6 h 1.6125 v -0.1125 q 0,-0.79375 -0.525,-1.225 -0.51875,-0.4375 -1.4625,-0.4375 -0.6,0 -1.16875,0.14375 -0.56875,0.14375 -1.09375,0.43125 v -1.0625 q 0.63125,-0.24375 1.225,-0.3625 0.59375,-0.125 1.15625,-0.125 1.51875,0 2.26875,0.7875 0.75,0.7875 0.75,2.3875 z"
       style=""
       id="path2390" />
    <path
       d="m 419.7716,513.8748 v 1.9875 h 2.36875 v 0.89375 h -2.36875 v 3.8 q 0,0.85625 0.23125,1.1 0.2375,0.24375 0.95625,0.24375 h 1.18125 v 0.9625 h -1.18125 q -1.33125,0 -1.8375,-0.49375 -0.50625,-0.5 -0.50625,-1.8125 v -3.8 h -0.84375 v -0.89375 h 0.84375 v -1.9875 z"
       style=""
       id="path2392" />
  </g>
  <path
     style="fill:#ffffff;fill-opacity:1;fill-rule:evenodd;stroke:#000000;stroke-width:2;stroke-opacity:1"
     d="m 393.22686,468.16629 h 30.075 c 3.76,8 4.963,12 4.963,20 0,8 -1.203,12 -4.963,20 h -30.075 c -3.759,-8 -4.962,-12 -4.962,-20 0,-8 1.203,-12 4.962,-20 z"
     id="path152"
     inkscape:connector-curvature="0" />
  <g
     aria-label="b"
     style="font-style:normal;font-weight:normal;font-size:12.80000019px;font-family:sans-serif;text-anchor:middle;fill:#000000;fill-opacity:1;stroke:none"
     id="text156">
    <path
       d="m 410.43361,488.67254 q 0,-1.26875 -0.525,-1.9875 -0.51875,-0.725 -1.43125,-0.725 -0.9125,0 -1.4375,0.725 -0.51875,0.71875 -0.51875,1.9875 0,1.26875 0.51875,1.99375 0.525,0.71875 1.4375,0.71875 0.9125,0 1.43125,-0.71875 0.525,-0.725 0.525,-1.99375 z m -3.9125,-2.44375 q 0.3625,-0.625 0.9125,-0.925 0.55625,-0.30625 1.325,-0.30625 1.275,0 2.06875,1.0125 0.8,1.0125 0.8,2.6625 0,1.65 -0.8,2.6625 -0.79375,1.0125 -2.06875,1.0125 -0.76875,0 -1.325,-0.3 -0.55,-0.30625 -0.9125,-0.93125 v 1.05 h -1.15625 v -9.725 h 1.15625 z"
       style=""
       id="path2395" />
  </g>
  <path
     transform="translate(18.242857,-3.085712)"
     style="fill:#ffffff;fill-opacity:1;fill-rule:evenodd;stroke:#000000;stroke-width:2;stroke-opacity:1"
     d="m 435.726,453.784 12,12 v 22 h -48.8 v -34 z"
     id="polygon160" />
  <path
     transform="translate(18.242857,-3.085712)"
     style="fill:none;stroke:#000000;stroke-width:1;stroke-opacity:1"
     d="m 435.726,453.784 v 12 h 12"
     id="polyline162" />
  <g
     aria-label="1024"
     style="font-style:normal;font-weight:normal;font-size:12.80000019px;font-family:monospace;text-anchor:start;fill:#000000;fill-opacity:1;stroke:none"
     id="text166">
    <path
       d="m 425.85635,474.53577 h 1.9625 v -7.13125 l -2.1125,0.475 v -1.15 l 2.1,-0.4625 h 1.2625 v 8.26875 h 1.9375 v 1.0625 h -5.15 z"
       style=""
       id="path2398" />
    <path
       d="m 434.8876,470.91077 q 0,-0.34375 0.2375,-0.59375 0.24375,-0.25 0.58125,-0.25 0.35,0 0.6,0.25 0.25,0.25 0.25,0.59375 0,0.35 -0.25,0.59375 -0.24375,0.24375 -0.6,0.24375 -0.35,0 -0.5875,-0.2375 -0.23125,-0.2375 -0.23125,-0.6 z m 0.83125,-3.8125 q -0.88125,0 -1.31875,0.95 -0.43125,0.95 -0.43125,2.89375 0,1.9375 0.43125,2.8875 0.4375,0.95 1.31875,0.95 0.8875,0 1.31875,-0.95 0.4375,-0.95 0.4375,-2.8875 0,-1.94375 -0.4375,-2.89375 -0.43125,-0.95 -1.31875,-0.95 z m 0,-1 q 1.49375,0 2.25625,1.225 0.76875,1.225 0.76875,3.61875 0,2.3875 -0.76875,3.6125 -0.7625,1.225 -2.25625,1.225 -1.49375,0 -2.25625,-1.225 -0.7625,-1.225 -0.7625,-3.6125 0,-2.39375 0.7625,-3.61875 0.7625,-1.225 2.25625,-1.225 z"
       style=""
       id="path2400" />
    <path
       d="m 441.9001,474.53577 h 4.2875 v 1.0625 h -5.66875 v -1.0625 q 1.16875,-1.23125 2.04375,-2.175 0.875,-0.94375 1.20625,-1.33125 0.625,-0.7625 0.84375,-1.23125 0.21875,-0.475 0.21875,-0.96875 0,-0.78125 -0.4625,-1.225 -0.45625,-0.44375 -1.25625,-0.44375 -0.56875,0 -1.19375,0.20625 -0.625,0.20625 -1.325,0.625 v -1.275 q 0.64375,-0.30625 1.2625,-0.4625 0.625,-0.15625 1.23125,-0.15625 1.36875,0 2.2,0.73125 0.8375,0.725 0.8375,1.90625 0,0.6 -0.28125,1.2 -0.275,0.6 -0.9,1.325 -0.35,0.40625 -1.01875,1.125 -0.6625,0.71875 -2.025,2.15 z"
       style=""
       id="path2402" />
    <path
       d="m 451.8626,467.41702 -2.94375,4.93125 h 2.94375 z m -0.20625,-1.15 h 1.4625 v 6.08125 h 1.24375 v 1.025 h -1.24375 v 2.225 h -1.25625 v -2.225 h -3.95625 v -1.19375 z"
       style=""
       id="path2404" />
  </g>
  <g
     aria-label=" pad"
     style="font-style:normal;font-weight:normal;font-size:12.80000019px;font-family:sans-serif;text-anchor:start;fill:#000000;fill-opacity:1;stroke:none"
     id="text172">
    <path
       d="m 418.2816,427.78228 v 3.7125 h -1.15625 v -9.6625 h 1.15625 v 1.0625 q 0.3625,-0.625 0.9125,-0.925 0.55625,-0.30625 1.325,-0.30625 1.275,0 2.06875,1.0125 0.8,1.0125 0.8,2.6625 0,1.65 -0.8,2.6625 -0.79375,1.0125 -2.06875,1.0125 -0.76875,0 -1.325,-0.3 -0.55,-0.30625 -0.9125,-0.93125 z m 3.9125,-2.44375 q 0,-1.26875 -0.525,-1.9875 -0.51875,-0.725 -1.43125,-0.725 -0.9125,0 -1.4375,0.725 -0.51875,0.71875 -0.51875,1.9875 0,1.26875 0.51875,1.99375 0.525,0.71875 1.4375,0.71875 0.9125,0 1.43125,-0.71875 0.525,-0.725 0.525,-1.99375 z"
       style=""
       id="path2415" />
    <path
       d="m 428.47535,425.31353 q -1.39375,0 -1.93125,0.31875 -0.5375,0.31875 -0.5375,1.0875 0,0.6125 0.4,0.975 0.40625,0.35625 1.1,0.35625 0.95625,0 1.53125,-0.675 0.58125,-0.68125 0.58125,-1.80625 v -0.25625 z m 2.29375,-0.475 v 3.99375 h -1.15 v -1.0625 q -0.39375,0.6375 -0.98125,0.94375 -0.5875,0.3 -1.4375,0.3 -1.075,0 -1.7125,-0.6 -0.63125,-0.60625 -0.63125,-1.61875 0,-1.18125 0.7875,-1.78125 0.79375,-0.6 2.3625,-0.6 h 1.6125 v -0.1125 q 0,-0.79375 -0.525,-1.225 -0.51875,-0.4375 -1.4625,-0.4375 -0.6,0 -1.16875,0.14375 -0.56875,0.14375 -1.09375,0.43125 v -1.0625 q 0.63125,-0.24375 1.225,-0.3625 0.59375,-0.125 1.15625,-0.125 1.51875,0 2.26875,0.7875 0.75,0.7875 0.75,2.3875 z"
       style=""
       id="path2417" />
    <path
       d="m 437.75035,422.89478 v -3.7875 h 1.15 v 9.725 h -1.15 v -1.05 q -0.3625,0.625 -0.91875,0.93125 -0.55,0.3 -1.325,0.3 -1.26875,0 -2.06875,-1.0125 -0.79375,-1.0125 -0.79375,-2.6625 0,-1.65 0.79375,-2.6625 0.8,-1.0125 2.06875,-1.0125 0.775,0 1.325,0.30625 0.55625,0.3 0.91875,0.925 z m -3.91875,2.44375 q 0,1.26875 0.51875,1.99375 0.525,0.71875 1.4375,0.71875 0.9125,0 1.4375,-0.71875 0.525,-0.725 0.525,-1.99375 0,-1.26875 -0.525,-1.9875 -0.525,-0.725 -1.4375,-0.725 -0.9125,0 -1.4375,0.725 -0.51875,0.71875 -0.51875,1.9875 z"
       style=""
       id="path2419" />
  </g>
  <path
     style="fill:#ffffff;fill-opacity:1;fill-rule:evenodd;stroke:#000000;stroke-width:2;stroke-opacity:1"
     d="m 410.60486,374.68229 h 30.076 c 3.759,8 4.962,12 4.962,20 0,8 -1.203,12 -4.962,20 h -30.076 c -3.759,-8 -4.962,-12 -4.962,-20 0,-8 1.203,-12 4.962,-20 z"
     id="path174"
     inkscape:connector-curvature="0" />
  <g
     style="font-style:normal;font-weight:normal;font-size:12.80000019px;font-family:sans-serif;text-anchor:middle;fill:#000000;fill-opacity:1;stroke:none"
     id="text178" />
  <path
     transform="translate(18.242857,-3.085712)"
     style="fill:#ffffff;fill-opacity:1;fill-rule:evenodd;stroke:#000000;stroke-width:2;stroke-opacity:1"
     d="m 430.004,360.3 12,12 v 22 h -25.7 v -34 z"
     id="polygon180" />
  <path
     transform="translate(18.242857,-3.085712)"
     style="fill:none;stroke:#000000;stroke-width:1;stroke-opacity:1"
     d="m 430.004,360.3 v 12 h 12"
     id="polyline182" />
  <g
     aria-label="1"
     style="font-style:normal;font-weight:normal;font-size:12.80000019px;font-family:monospace;text-anchor:start;fill:#000000;fill-opacity:1;stroke:none"
     id="text186">
    <path
       d="m 443.23434,381.05179 h 1.9625 v -7.13125 l -2.1125,0.475 v -1.15 l 2.1,-0.4625 h 1.2625 v 8.26875 h 1.9375 v 1.0625 h -5.15 z"
       style=""
       id="path2409" />
  </g>
  <path
     style="fill:none;stroke:#000000;stroke-width:2;stroke-opacity:1"
     d="m 306.10486,326.91727 109.323,43.68301"
     id="line190" />
  <path
     transform="translate(18.242857,-3.085712)"
     style="fill:#000000;fill-opacity:1;fill-rule:evenodd;stroke:#000000;stroke-width:2;stroke-opacity:1"
     d="m 395.33,378.329 11.141,-0.932 -7.43,-8.354 z"
     id="polygon192" />
  <g
     aria-label=" char"
     style="font-style:normal;font-weight:normal;font-size:12.80000019px;font-family:sans-serif;text-anchor:start;fill:#000000;fill-opacity:1;stroke:none"
     id="text198">
    <path
       d="m 317.69961,422.03901 v 1.075 q -0.4875,-0.26875 -0.98125,-0.4 -0.4875,-0.1375 -0.9875,-0.1375 -1.11875,0 -1.7375,0.7125 -0.61875,0.70625 -0.61875,1.9875 0,1.28125 0.61875,1.99375 0.61875,0.70625 1.7375,0.70625 0.5,0 0.9875,-0.13125 0.49375,-0.1375 0.98125,-0.40625 v 1.0625 q -0.48125,0.225 -1,0.3375 -0.5125,0.1125 -1.09375,0.1125 -1.58125,0 -2.5125,-0.99375 -0.93125,-0.99375 -0.93125,-2.68125 0,-1.7125 0.9375,-2.69375 0.94375,-0.98125 2.58125,-0.98125 0.53125,0 1.0375,0.1125 0.50625,0.10625 0.98125,0.325 z"
       style=""
       id="path2424" />
    <path
       d="m 325.53086,424.54526 v 4.225 h -1.15 v -4.1875 q 0,-0.99375 -0.3875,-1.4875 -0.3875,-0.49375 -1.1625,-0.49375 -0.93125,0 -1.46875,0.59375 -0.5375,0.59375 -0.5375,1.61875 v 3.95625 h -1.15625 v -9.725 h 1.15625 v 3.8125 q 0.4125,-0.63125 0.96875,-0.94375 0.5625,-0.3125 1.29375,-0.3125 1.20625,0 1.825,0.75 0.61875,0.74375 0.61875,2.19375 z"
       style=""
       id="path2426" />
    <path
       d="m 331.01836,425.25151 q -1.39375,0 -1.93125,0.31875 -0.5375,0.31875 -0.5375,1.0875 0,0.6125 0.4,0.975 0.40625,0.35625 1.1,0.35625 0.95625,0 1.53125,-0.675 0.58125,-0.68125 0.58125,-1.80625 v -0.25625 z m 2.29375,-0.475 v 3.99375 h -1.15 v -1.0625 q -0.39375,0.6375 -0.98125,0.94375 -0.5875,0.3 -1.4375,0.3 -1.075,0 -1.7125,-0.6 -0.63125,-0.60625 -0.63125,-1.61875 0,-1.18125 0.7875,-1.78125 0.79375,-0.6 2.3625,-0.6 h 1.6125 v -0.1125 q 0,-0.79375 -0.525,-1.225 -0.51875,-0.4375 -1.4625,-0.4375 -0.6,0 -1.16875,0.14375 -0.56875,0.14375 -1.09375,0.43125 v -1.0625 q 0.63125,-0.24375 1.225,-0.3625 0.59375,-0.125 1.15625,-0.125 1.51875,0 2.26875,0.7875 0.75,0.7875 0.75,2.3875 z"
       style=""
       id="path2428" />
    <path
       d="m 339.74336,422.84526 q -0.19375,-0.1125 -0.425,-0.1625 -0.225,-0.0562 -0.5,-0.0562 -0.975,0 -1.5,0.6375 -0.51875,0.63125 -0.51875,1.81875 v 3.6875 h -1.15625 v -7 h 1.15625 v 1.0875 q 0.3625,-0.6375 0.94375,-0.94375 0.58125,-0.3125 1.4125,-0.3125 0.11875,0 0.2625,0.0187 0.14375,0.0125 0.31875,0.0438 z"
       style=""
       id="path2430" />
  </g>
  <path
     style="fill:#ffffff;fill-opacity:1;fill-rule:evenodd;stroke:#000000;stroke-width:2;stroke-opacity:1"
     d="m 298.58086,376.17829 h 49.15 c 6.143,8 8.109,12 8.109,20 0,8 -1.966,12 -8.109,20 h -49.15 c -6.144,-8 -8.11,-12 -8.11,-20 0,-8 1.966,-12 8.11,-20 z"
     id="path200"
     inkscape:connector-curvature="0" />
  <g
     aria-label="alpha"
     style="font-style:normal;font-weight:normal;font-size:12.80000019px;font-family:sans-serif;text-anchor:middle;fill:#000000;fill-opacity:1;stroke:none"
     id="text204">
    <path
       d="m 309.79335,396.65953 q -1.39375,0 -1.93125,0.31875 -0.5375,0.31875 -0.5375,1.0875 0,0.6125 0.4,0.975 0.40625,0.35625 1.1,0.35625 0.95625,0 1.53125,-0.675 0.58125,-0.68125 0.58125,-1.80625 v -0.25625 z m 2.29375,-0.475 v 3.99375 h -1.15 v -1.0625 q -0.39375,0.6375 -0.98125,0.94375 -0.5875,0.3 -1.4375,0.3 -1.075,0 -1.7125,-0.6 -0.63125,-0.60625 -0.63125,-1.61875 0,-1.18125 0.7875,-1.78125 0.79375,-0.6 2.3625,-0.6 h 1.6125 v -0.1125 q 0,-0.79375 -0.525,-1.225 -0.51875,-0.4375 -1.4625,-0.4375 -0.6,0 -1.16875,0.14375 -0.56875,0.14375 -1.09375,0.43125 v -1.0625 q 0.63125,-0.24375 1.225,-0.3625 0.59375,-0.125 1.15625,-0.125 1.51875,0 2.26875,0.7875 0.75,0.7875 0.75,2.3875 z"
       style=""
       id="path2433" />
    <path
       d="m 314.4621,390.45328 h 1.15 v 9.725 h -1.15 z"
       style=""
       id="path2435" />
    <path
       d="m 319.1246,399.12828 v 3.7125 h -1.15625 v -9.6625 h 1.15625 v 1.0625 q 0.3625,-0.625 0.9125,-0.925 0.55625,-0.30625 1.325,-0.30625 1.275,0 2.06875,1.0125 0.8,1.0125 0.8,2.6625 0,1.65 -0.8,2.6625 -0.79375,1.0125 -2.06875,1.0125 -0.76875,0 -1.325,-0.3 -0.55,-0.30625 -0.9125,-0.93125 z m 3.9125,-2.44375 q 0,-1.26875 -0.525,-1.9875 -0.51875,-0.725 -1.43125,-0.725 -0.9125,0 -1.4375,0.725 -0.51875,0.71875 -0.51875,1.9875 0,1.26875 0.51875,1.99375 0.525,0.71875 1.4375,0.71875 0.9125,0 1.43125,-0.71875 0.525,-0.725 0.525,-1.99375 z"
       style=""
       id="path2437" />
    <path
       d="m 331.95585,395.95328 v 4.225 h -1.15 v -4.1875 q 0,-0.99375 -0.3875,-1.4875 -0.3875,-0.49375 -1.1625,-0.49375 -0.93125,0 -1.46875,0.59375 -0.5375,0.59375 -0.5375,1.61875 v 3.95625 h -1.15625 v -9.725 h 1.15625 v 3.8125 q 0.4125,-0.63125 0.96875,-0.94375 0.5625,-0.3125 1.29375,-0.3125 1.20625,0 1.825,0.75 0.61875,0.74375 0.61875,2.19375 z"
       style=""
       id="path2439" />
    <path
       d="m 337.44335,396.65953 q -1.39375,0 -1.93125,0.31875 -0.5375,0.31875 -0.5375,1.0875 0,0.6125 0.4,0.975 0.40625,0.35625 1.1,0.35625 0.95625,0 1.53125,-0.675 0.58125,-0.68125 0.58125,-1.80625 v -0.25625 z m 2.29375,-0.475 v 3.99375 h -1.15 v -1.0625 q -0.39375,0.6375 -0.98125,0.94375 -0.5875,0.3 -1.4375,0.3 -1.075,0 -1.7125,-0.6 -0.63125,-0.60625 -0.63125,-1.61875 0,-1.18125 0.7875,-1.78125 0.79375,-0.6 2.3625,-0.6 h 1.6125 v -0.1125 q 0,-0.79375 -0.525,-1.225 -0.51875,-0.4375 -1.4625,-0.4375 -0.6,0 -1.16875,0.14375 -0.56875,0.14375 -1.09375,0.43125 v -1.0625 q 0.63125,-0.24375 1.225,-0.3625 0.59375,-0.125 1.15625,-0.125 1.51875,0 2.26875,0.7875 0.75,0.7875 0.75,2.3875 z"
       style=""
       id="path2441" />
  </g>
  <path
     transform="translate(18.242857,-3.085712)"
     style="fill:#ffffff;fill-opacity:1;fill-rule:evenodd;stroke:#000000;stroke-width:2;stroke-opacity:1"
     d="m 360.834,359.748 12,12 v 22 h -48.8 v -34 z"
     id="polygon208" />
  <path
     transform="translate(18.242857,-3.085712)"
     style="fill:none;stroke:#000000;stroke-width:1;stroke-opacity:1"
     d="m 360.834,359.748 v 12 h 12"
     id="polyline210" />
  <g
     aria-label="1024"
     style="font-style:normal;font-weight:normal;font-size:12.80000019px;font-family:monospace;text-anchor:start;fill:#000000;fill-opacity:1;stroke:none"
     id="text214">
    <path
       d="m 350.96436,380.49979 h 1.9625 v -7.13125 l -2.1125,0.475 v -1.15 l 2.1,-0.4625 h 1.2625 v 8.26875 h 1.9375 v 1.0625 h -5.15 z"
       style=""
       id="path2444" />
    <path
       d="m 359.99561,376.87479 q 0,-0.34375 0.2375,-0.59375 0.24375,-0.25 0.58125,-0.25 0.35,0 0.6,0.25 0.25,0.25 0.25,0.59375 0,0.35 -0.25,0.59375 -0.24375,0.24375 -0.6,0.24375 -0.35,0 -0.5875,-0.2375 -0.23125,-0.2375 -0.23125,-0.6 z m 0.83125,-3.8125 q -0.88125,0 -1.31875,0.95 -0.43125,0.95 -0.43125,2.89375 0,1.9375 0.43125,2.8875 0.4375,0.95 1.31875,0.95 0.8875,0 1.31875,-0.95 0.4375,-0.95 0.4375,-2.8875 0,-1.94375 -0.4375,-2.89375 -0.43125,-0.95 -1.31875,-0.95 z m 0,-1 q 1.49375,0 2.25625,1.225 0.76875,1.225 0.76875,3.61875 0,2.3875 -0.76875,3.6125 -0.7625,1.225 -2.25625,1.225 -1.49375,0 -2.25625,-1.225 -0.7625,-1.225 -0.7625,-3.6125 0,-2.39375 0.7625,-3.61875 0.7625,-1.225 2.25625,-1.225 z"
       style=""
       id="path2446" />
    <path
       d="m 367.00811,380.49979 h 4.2875 v 1.0625 h -5.66875 v -1.0625 q 1.16875,-1.23125 2.04375,-2.175 0.875,-0.94375 1.20625,-1.33125 0.625,-0.7625 0.84375,-1.23125 0.21875,-0.475 0.21875,-0.96875 0,-0.78125 -0.4625,-1.225 -0.45625,-0.44375 -1.25625,-0.44375 -0.56875,0 -1.19375,0.20625 -0.625,0.20625 -1.325,0.625 v -1.275 q 0.64375,-0.30625 1.2625,-0.4625 0.625,-0.15625 1.23125,-0.15625 1.36875,0 2.2,0.73125 0.8375,0.725 0.8375,1.90625 0,0.6 -0.28125,1.2 -0.275,0.6 -0.9,1.325 -0.35,0.40625 -1.01875,1.125 -0.6625,0.71875 -2.025,2.15 z"
       style=""
       id="path2448" />
    <path
       d="m 376.97061,373.38104 -2.94375,4.93125 h 2.94375 z m -0.20625,-1.15 h 1.4625 v 6.08125 h 1.24375 v 1.025 h -1.24375 v 2.225 h -1.25625 v -2.225 h -3.95625 v -1.19375 z"
       style=""
       id="path2450" />
  </g>
</svg>
