<?xml version="1.0" encoding="UTF-8" standalone="no"?>
<svg
   xmlns:dc="http://purl.org/dc/elements/1.1/"
   xmlns:cc="http://creativecommons.org/ns#"
   xmlns:rdf="http://www.w3.org/1999/02/22-rdf-syntax-ns#"
   xmlns:svg="http://www.w3.org/2000/svg"
   xmlns="http://www.w3.org/2000/svg"
   xmlns:sodipodi="http://sodipodi.sourceforge.net/DTD/sodipodi-0.dtd"
   xmlns:inkscape="http://www.inkscape.org/namespaces/inkscape"
   width="14.873908cm"
   height="17.836933cm"
   viewBox="239 160 288.32499 346.82926"
   version="1.1"
   id="svg412"
   sodipodi:docname="soa_tree_2.svg"
   inkscape:version="0.92.3 (2405546, 2018-03-11)">
  <metadata
     id="metadata418">
    <rdf:RDF>
      <cc:Work
         rdf:about="">
        <dc:format>image/svg+xml</dc:format>
        <dc:type
           rdf:resource="http://purl.org/dc/dcmitype/StillImage" />
        <dc:title></dc:title>
      </cc:Work>
    </rdf:RDF>
  </metadata>
  <defs
     id="defs416" />
  <sodipodi:namedview
     pagecolor="#ffffff"
     bordercolor="#666666"
     borderopacity="1"
     objecttolerance="10"
     gridtolerance="10"
     guidetolerance="10"
     inkscape:pageopacity="0"
     inkscape:pageshadow="2"
     inkscape:window-width="1920"
     inkscape:window-height="1028"
     id="namedview414"
     showgrid="false"
     fit-margin-left="1"
     fit-margin-right="1"
     fit-margin-top="0"
     fit-margin-bottom="0"
     inkscape:zoom="0.98117614"
     inkscape:cx="437.49999"
     inkscape:cy="312.66783"
     inkscape:window-x="0"
     inkscape:window-y="28"
     inkscape:window-maximized="1"
     inkscape:current-layer="svg412" />
  <path
     transform="translate(17.65555,-0.3)"
     style="fill:#ffffff;fill-opacity:1;fill-rule:evenodd;stroke:#000000;stroke-width:2;stroke-opacity:1"
     d="M 346.971,219 H 291.84 v -40 h 55.131 z"
     id="polygon227" />
  <path
     style="fill:none;stroke:#000000;stroke-width:2;stroke-opacity:1"
     d="m 315.00854,178.7 v 40"
     id="line229" />
  <path
     style="fill:none;stroke:#000000;stroke-width:2;stroke-opacity:1"
     d="m 359.11356,178.7 v 40"
     id="line231" />
  <g
     style="font-style:normal;font-weight:normal;font-size:12.80000019px;font-family:sans-serif;text-anchor:middle;fill:#000000;fill-opacity:1;stroke:none"
     id="text235" />
  <path
     transform="translate(17.65555,-0.3)"
     style="fill:#ffffff;fill-opacity:1;fill-rule:evenodd;stroke:#000000;stroke-width:2;stroke-opacity:1"
     d="m 342.178,161.3 12,12 v 22 h -25.7 v -34 z"
     id="polygon239" />
  <path
     transform="translate(17.65555,-0.3)"
     style="fill:none;stroke:#000000;stroke-width:1;stroke-opacity:1"
     d="m 342.178,161.3 v 12 h 12"
     id="polyline241" />
  <g
     aria-label="1"
     style="font-style:normal;font-weight:normal;font-size:12.80000019px;font-family:monospace;text-anchor:start;fill:#000000;fill-opacity:1;stroke:none"
     id="text245">
    <path
       d="m 354.82104,184.83749 h 1.9625 v -7.13125 l -2.1125,0.475 v -1.15 l 2.1,-0.4625 h 1.2625 v 8.26875 h 1.93751 v 1.0625 h -5.15001 z"
       style=""
       id="path1786" />
  </g>
  <path
     transform="translate(17.65555,-0.3)"
     style="fill:#ffffff;fill-opacity:1;fill-rule:evenodd;stroke:#000000;stroke-width:2;stroke-opacity:1"
     d="M 312.275,397.492 H 241.4 v -40 h 70.875 z"
     id="polygon249" />
  <path
     style="fill:none;stroke:#000000;stroke-width:2;stroke-opacity:1"
     d="m 266.14255,357.19202 v 40"
     id="line251" />
  <path
     style="fill:none;stroke:#000000;stroke-width:2;stroke-opacity:1"
     d="m 322.84256,357.19202 v 40"
     id="line253" />
  <g
     aria-label="color"
     style="font-style:normal;font-weight:normal;font-size:12.80000019px;font-family:sans-serif;text-anchor:middle;fill:#000000;fill-opacity:1;stroke:none"
     id="text257">
    <path
       d="m 284.9738,374.46077 v 1.075 q -0.4875,-0.26875 -0.98125,-0.4 -0.4875,-0.1375 -0.9875,-0.1375 -1.11875,0 -1.7375,0.7125 -0.61875,0.70625 -0.61875,1.9875 0,1.28125 0.61875,1.99375 0.61875,0.70625 1.7375,0.70625 0.5,0 0.9875,-0.13125 0.49375,-0.1375 0.98125,-0.40625 v 1.0625 q -0.48125,0.225 -1,0.3375 -0.5125,0.1125 -1.09375,0.1125 -1.58125,0 -2.5125,-0.99375 -0.93125,-0.99375 -0.93125,-2.68125 0,-1.7125 0.9375,-2.69375 0.94375,-0.98125 2.58125,-0.98125 0.53125,0 1.0375,0.1125 0.50625,0.10625 0.98125,0.325 z"
       style=""
       id="path1791" />
    <path
       d="m 289.6988,374.99827 q -0.925,0 -1.4625,0.725 -0.5375,0.71875 -0.5375,1.975 0,1.25625 0.53125,1.98125 0.5375,0.71875 1.46875,0.71875 0.91875,0 1.45625,-0.725 0.5375,-0.725 0.5375,-1.975 0,-1.24375 -0.5375,-1.96875 -0.5375,-0.73125 -1.45625,-0.73125 z m 0,-0.975 q 1.5,0 2.35625,0.975 0.85625,0.975 0.85625,2.7 0,1.71875 -0.85625,2.7 -0.85625,0.975 -2.35625,0.975 -1.50625,0 -2.3625,-0.975 -0.85,-0.98125 -0.85,-2.7 0,-1.725 0.85,-2.7 0.85625,-0.975 2.3625,-0.975 z"
       style=""
       id="path1793" />
    <path
       d="m 294.8113,371.46702 h 1.15 v 9.725 h -1.15 z"
       style=""
       id="path1795" />
    <path
       d="m 301.0738,374.99827 q -0.925,0 -1.4625,0.725 -0.5375,0.71875 -0.5375,1.975 0,1.25625 0.53125,1.98125 0.5375,0.71875 1.46875,0.71875 0.91875,0 1.45625,-0.725 0.5375,-0.725 0.5375,-1.975 0,-1.24375 -0.5375,-1.96875 -0.5375,-0.73125 -1.45625,-0.73125 z m 0,-0.975 q 1.5,0 2.35625,0.975 0.85625,0.975 0.85625,2.7 0,1.71875 -0.85625,2.7 -0.85625,0.975 -2.35625,0.975 -1.50625,0 -2.3625,-0.975 -0.85,-0.98125 -0.85,-2.7 0,-1.725 0.85,-2.7 0.85625,-0.975 2.3625,-0.975 z"
       style=""
       id="path1797" />
    <path
       d="m 310.24255,375.26702 q -0.19375,-0.1125 -0.425,-0.1625 -0.225,-0.0562 -0.5,-0.0562 -0.975,0 -1.5,0.6375 -0.51875,0.63125 -0.51875,1.81875 v 3.6875 h -1.15625 v -7 h 1.15625 v 1.0875 q 0.3625,-0.6375 0.94375,-0.94375 0.58125,-0.3125 1.4125,-0.3125 0.11875,0 0.2625,0.0187 0.14375,0.0125 0.31875,0.0438 z"
       style=""
       id="path1799" />
  </g>
  <path
     transform="translate(17.65555,-0.3)"
     style="fill:#ffffff;fill-opacity:1;fill-rule:evenodd;stroke:#000000;stroke-width:2;stroke-opacity:1"
     d="m 313.85,337.364 12,12 v 22 h -25.7 v -34 z"
     id="polygon261" />
  <path
     transform="translate(17.65555,-0.3)"
     style="fill:none;stroke:#000000;stroke-width:1;stroke-opacity:1"
     d="m 313.85,337.364 v 12 h 12"
     id="polyline263" />
  <g
     aria-label="1"
     style="font-style:normal;font-weight:normal;font-size:12.80000019px;font-family:monospace;text-anchor:start;fill:#000000;fill-opacity:1;stroke:none"
     id="text267">
    <path
       d="m 326.49304,360.90152 h 1.9625 v -7.13125 l -2.1125,0.475 v -1.15 l 2.1,-0.4625 h 1.2625 v 8.26875 h 1.9375 v 1.0625 h -5.15 z"
       style=""
       id="path1805" />
  </g>
  <path
     transform="translate(17.65555,-0.3)"
     style="fill:#ffffff;fill-opacity:1;fill-rule:evenodd;stroke:#000000;stroke-width:2;stroke-opacity:1"
     d="m 351.887,314.302 h -66.625 v -40 h 66.625 z"
     id="polygon271" />
  <path
     style="fill:none;stroke:#000000;stroke-width:2;stroke-opacity:1"
     d="m 309.57956,274.00201 v 40"
     id="line273" />
  <path
     style="fill:none;stroke:#000000;stroke-width:2;stroke-opacity:1"
     d="m 362.88055,274.00201 v 40"
     id="line275" />
  <g
     aria-label="Pixel"
     style="font-style:normal;font-weight:normal;font-size:12.80000019px;font-family:sans-serif;text-anchor:middle;fill:#000000;fill-opacity:1;stroke:none"
     id="text279">
    <path
       d="m 323.94931,289.70826 v 3.50625 h 1.5875 q 0.88125,0 1.3625,-0.45625 0.48125,-0.45625 0.48125,-1.3 0,-0.8375 -0.48125,-1.29375 -0.48125,-0.45625 -1.3625,-0.45625 z m -1.2625,-1.0375 h 2.85 q 1.56875,0 2.36875,0.7125 0.80625,0.70625 0.80625,2.075 0,1.38125 -0.80625,2.0875 -0.8,0.70625 -2.36875,0.70625 h -1.5875 v 3.75 h -1.2625 z"
       style=""
       id="path1810" />
    <path
       d="m 330.08681,291.00201 h 1.15 v 7 h -1.15 z m 0,-2.725 h 1.15 v 1.45625 h -1.15 z"
       style=""
       id="path1812" />
    <path
       d="m 339.45556,291.00201 -2.53125,3.40625 2.6625,3.59375 h -1.35625 l -2.0375,-2.75 -2.0375,2.75 h -1.35625 l 2.71875,-3.6625 -2.4875,-3.3375 h 1.35625 l 1.85625,2.49375 1.85625,-2.49375 z"
       style=""
       id="path1814" />
    <path
       d="m 346.79931,294.21451 v 0.5625 h -5.2875 q 0.075,1.1875 0.7125,1.8125 0.64375,0.61875 1.7875,0.61875 0.6625,0 1.28125,-0.1625 0.625,-0.1625 1.2375,-0.4875 v 1.0875 q -0.61875,0.2625 -1.26875,0.4 -0.65,0.1375 -1.31875,0.1375 -1.675,0 -2.65625,-0.975 -0.975,-0.975 -0.975,-2.6375 0,-1.71875 0.925,-2.725 0.93125,-1.0125 2.50625,-1.0125 1.4125,0 2.23125,0.9125 0.825,0.90625 0.825,2.46875 z m -1.15,-0.3375 q -0.0125,-0.94375 -0.53125,-1.50625 -0.5125,-0.5625 -1.3625,-0.5625 -0.9625,0 -1.54375,0.54375 -0.575,0.54375 -0.6625,1.53125 z"
       style=""
       id="path1816" />
    <path
       d="m 348.68681,288.27701 h 1.15 v 9.725 h -1.15 z"
       style=""
       id="path1818" />
  </g>
  <path
     transform="translate(17.65555,-0.3)"
     style="fill:#ffffff;fill-opacity:1;fill-rule:evenodd;stroke:#000000;stroke-width:2;stroke-opacity:1"
     d="m 354.164,253.774 12,12 v 22 h -25.7 v -34 z"
     id="polygon283" />
  <path
     transform="translate(17.65555,-0.3)"
     style="fill:none;stroke:#000000;stroke-width:1;stroke-opacity:1"
     d="m 354.164,253.774 v 12 h 12"
     id="polyline285" />
  <g
     aria-label="1"
     style="font-style:normal;font-weight:normal;font-size:12.80000019px;font-family:monospace;text-anchor:start;fill:#000000;fill-opacity:1;stroke:none"
     id="text289">
    <path
       d="m 366.80704,277.31152 h 1.9625 v -7.13125 l -2.1125,0.475 v -1.15 l 2.1,-0.4625 h 1.2625 v 8.26875 h 1.9375 v 1.0625 h -5.15 z"
       style=""
       id="path1824" />
  </g>
  <g
     aria-label=" char"
     style="font-style:normal;font-weight:normal;font-size:12.80000019px;font-family:sans-serif;text-anchor:start;fill:#000000;fill-opacity:1;stroke:none"
     id="text295">
    <path
       d="m 394.1123,401.82475 v 1.075 q -0.4875,-0.26875 -0.98125,-0.4 -0.4875,-0.1375 -0.9875,-0.1375 -1.11875,0 -1.7375,0.7125 -0.61875,0.70625 -0.61875,1.9875 0,1.28125 0.61875,1.99375 0.61875,0.70625 1.7375,0.70625 0.5,0 0.9875,-0.13125 0.49375,-0.1375 0.98125,-0.40625 v 1.0625 q -0.48125,0.225 -1,0.3375 -0.5125,0.1125 -1.09375,0.1125 -1.58125,0 -2.5125,-0.99375 -0.93125,-0.99375 -0.93125,-2.68125 0,-1.7125 0.9375,-2.69375 0.94375,-0.98125 2.58125,-0.98125 0.53125,0 1.0375,0.1125 0.50625,0.10625 0.98125,0.325 z"
       style=""
       id="path1829" />
    <path
       d="m 401.94355,404.331 v 4.225 h -1.15 v -4.1875 q 0,-0.99375 -0.3875,-1.4875 -0.3875,-0.49375 -1.1625,-0.49375 -0.93125,0 -1.46875,0.59375 -0.5375,0.59375 -0.5375,1.61875 v 3.95625 h -1.15625 v -9.725 h 1.15625 v 3.8125 q 0.4125,-0.63125 0.96875,-0.94375 0.5625,-0.3125 1.29375,-0.3125 1.20625,0 1.825,0.75 0.61875,0.74375 0.61875,2.19375 z"
       style=""
       id="path1831" />
    <path
       d="m 407.43105,405.03725 q -1.39375,0 -1.93125,0.31875 -0.5375,0.31875 -0.5375,1.0875 0,0.6125 0.4,0.975 0.40625,0.35625 1.1,0.35625 0.95625,0 1.53125,-0.675 0.58125,-0.68125 0.58125,-1.80625 v -0.25625 z m 2.29375,-0.475 v 3.99375 h -1.15 v -1.0625 q -0.39375,0.6375 -0.98125,0.94375 -0.5875,0.3 -1.4375,0.3 -1.075,0 -1.7125,-0.6 -0.63125,-0.60625 -0.63125,-1.61875 0,-1.18125 0.7875,-1.78125 0.79375,-0.6 2.3625,-0.6 h 1.6125 v -0.1125 q 0,-0.79375 -0.525,-1.225 -0.51875,-0.4375 -1.4625,-0.4375 -0.6,0 -1.16875,0.14375 -0.56875,0.14375 -1.09375,0.43125 v -1.0625 q 0.63125,-0.24375 1.225,-0.3625 0.59375,-0.125 1.15625,-0.125 1.51875,0 2.26875,0.7875 0.75,0.7875 0.75,2.3875 z"
       style=""
       id="path1833" />
    <path
       d="m 416.15605,402.631 q -0.19375,-0.1125 -0.425,-0.1625 -0.225,-0.0563 -0.5,-0.0563 -0.975,0 -1.5,0.6375 -0.51875,0.63125 -0.51875,1.81875 v 3.6875 h -1.15625 v -7 h 1.15625 v 1.0875 q 0.3625,-0.6375 0.94375,-0.94375 0.58125,-0.3125 1.4125,-0.3125 0.11875,0 0.2625,0.0188 0.14375,0.0125 0.31875,0.0437 z"
       style=""
       id="path1835" />
  </g>
  <path
     style="fill:#ffffff;fill-opacity:1;fill-rule:evenodd;stroke:#000000;stroke-width:2;stroke-opacity:1"
     d="m 374.99355,355.964 h 49.15 c 6.144,8 8.11,12 8.11,20 0,8 -1.966,12 -8.11,20 h -49.15 c -6.144,-8 -8.11,-12 -8.11,-20 0,-8 1.966,-12 8.11,-20 z"
     id="path297"
     inkscape:connector-curvature="0" />
  <g
     aria-label="alpha"
     style="font-style:normal;font-weight:normal;font-size:12.80000019px;font-family:sans-serif;text-anchor:middle;fill:#000000;fill-opacity:1;stroke:none"
     id="text301">
    <path
       d="m 386.20604,376.44527 q -1.39375,0 -1.93125,0.31875 -0.5375,0.31875 -0.5375,1.0875 0,0.6125 0.4,0.975 0.40625,0.35625 1.1,0.35625 0.95625,0 1.53125,-0.675 0.58125,-0.68125 0.58125,-1.80625 v -0.25625 z m 2.29375,-0.475 v 3.99375 h -1.15 v -1.0625 q -0.39375,0.6375 -0.98125,0.94375 -0.5875,0.3 -1.4375,0.3 -1.075,0 -1.7125,-0.6 -0.63125,-0.60625 -0.63125,-1.61875 0,-1.18125 0.7875,-1.78125 0.79375,-0.6 2.3625,-0.6 h 1.6125 v -0.1125 q 0,-0.79375 -0.525,-1.225 -0.51875,-0.4375 -1.4625,-0.4375 -0.6,0 -1.16875,0.14375 -0.56875,0.14375 -1.09375,0.43125 v -1.0625 q 0.63125,-0.24375 1.225,-0.3625 0.59375,-0.125 1.15625,-0.125 1.51875,0 2.26875,0.7875 0.75,0.7875 0.75,2.3875 z"
       style=""
       id="path1838" />
    <path
       d="m 390.87479,370.23902 h 1.15 v 9.725 h -1.15 z"
       style=""
       id="path1840" />
    <path
       d="m 395.53729,378.91402 v 3.7125 h -1.15625 v -9.6625 h 1.15625 v 1.0625 q 0.3625,-0.625 0.9125,-0.925 0.55625,-0.30625 1.325,-0.30625 1.275,0 2.06875,1.0125 0.8,1.0125 0.8,2.6625 0,1.65 -0.8,2.6625 -0.79375,1.0125 -2.06875,1.0125 -0.76875,0 -1.325,-0.3 -0.55,-0.30625 -0.9125,-0.93125 z m 3.9125,-2.44375 q 0,-1.26875 -0.525,-1.9875 -0.51875,-0.725 -1.43125,-0.725 -0.9125,0 -1.4375,0.725 -0.51875,0.71875 -0.51875,1.9875 0,1.26875 0.51875,1.99375 0.525,0.71875 1.4375,0.71875 0.9125,0 1.43125,-0.71875 0.525,-0.725 0.525,-1.99375 z"
       style=""
       id="path1842" />
    <path
       d="m 408.36854,375.73902 v 4.225 h -1.15 v -4.1875 q 0,-0.99375 -0.3875,-1.4875 -0.3875,-0.49375 -1.1625,-0.49375 -0.93125,0 -1.46875,0.59375 -0.5375,0.59375 -0.5375,1.61875 v 3.95625 h -1.15625 v -9.725 h 1.15625 v 3.8125 q 0.4125,-0.63125 0.96875,-0.94375 0.5625,-0.3125 1.29375,-0.3125 1.20625,0 1.825,0.75 0.61875,0.74375 0.61875,2.19375 z"
       style=""
       id="path1844" />
    <path
       d="m 413.85604,376.44527 q -1.39375,0 -1.93125,0.31875 -0.5375,0.31875 -0.5375,1.0875 0,0.6125 0.4,0.975 0.40625,0.35625 1.1,0.35625 0.95625,0 1.53125,-0.675 0.58125,-0.68125 0.58125,-1.80625 v -0.25625 z m 2.29375,-0.475 v 3.99375 h -1.15 v -1.0625 q -0.39375,0.6375 -0.98125,0.94375 -0.5875,0.3 -1.4375,0.3 -1.075,0 -1.7125,-0.6 -0.63125,-0.60625 -0.63125,-1.61875 0,-1.18125 0.7875,-1.78125 0.79375,-0.6 2.3625,-0.6 h 1.6125 v -0.1125 q 0,-0.79375 -0.525,-1.225 -0.51875,-0.4375 -1.4625,-0.4375 -0.6,0 -1.16875,0.14375 -0.56875,0.14375 -1.09375,0.43125 v -1.0625 q 0.63125,-0.24375 1.225,-0.3625 0.59375,-0.125 1.15625,-0.125 1.51875,0 2.26875,0.7875 0.75,0.7875 0.75,2.3875 z"
       style=""
       id="path1846" />
  </g>
  <path
     transform="translate(17.65555,-0.3)"
     style="fill:#ffffff;fill-opacity:1;fill-rule:evenodd;stroke:#000000;stroke-width:2;stroke-opacity:1"
     d="m 437.834,336.748 12,12 v 22 h -48.8 v -34 z"
     id="polygon305" />
  <path
     transform="translate(17.65555,-0.3)"
     style="fill:none;stroke:#000000;stroke-width:1;stroke-opacity:1"
     d="m 437.834,336.748 v 12 h 12"
     id="polyline307" />
  <g
     aria-label="8192"
     style="font-style:normal;font-weight:normal;font-size:12.80000019px;font-family:monospace;text-anchor:start;fill:#000000;fill-opacity:1;stroke:none"
     id="text311">
    <path
       d="m 429.53954,356.91677 q -0.84375,0 -1.30625,0.475 -0.45625,0.46875 -0.45625,1.33125 0,0.8625 0.4625,1.34375 0.46875,0.475 1.3,0.475 0.85,0 1.30625,-0.46875 0.4625,-0.475 0.4625,-1.35 0,-0.85625 -0.46875,-1.33125 -0.4625,-0.475 -1.3,-0.475 z m -1.1,-0.525 q -0.80625,-0.20625 -1.2625,-0.76875 -0.45,-0.5625 -0.45,-1.35625 0,-1.1125 0.75625,-1.7625 0.75625,-0.65625 2.05625,-0.65625 1.30625,0 2.0625,0.65625 0.75625,0.65 0.75625,1.7625 0,0.79375 -0.45625,1.35625 -0.45,0.5625 -1.25625,0.76875 0.9375,0.20625 1.43125,0.83125 0.5,0.625 0.5,1.61875 0,1.2625 -0.80625,1.975 -0.80625,0.7125 -2.23125,0.7125 -1.425,0 -2.23125,-0.70625 -0.8,-0.7125 -0.8,-1.96875 0,-1 0.49375,-1.625 0.5,-0.63125 1.4375,-0.8375 z m -0.45625,-2.00625 q 0,0.75 0.4,1.14375 0.4,0.39375 1.15625,0.39375 0.7625,0 1.1625,-0.39375 0.4,-0.39375 0.4,-1.14375 0,-0.7625 -0.4,-1.1625 -0.39375,-0.4 -1.1625,-0.4 -0.75625,0 -1.15625,0.40625 -0.4,0.4 -0.4,1.15625 z"
       style=""
       id="path1849" />
    <path
       d="m 435.07704,360.28552 h 1.96251 v -7.13125 l -2.11251,0.475 v -1.15 l 2.10001,-0.4625 h 1.2625 v 8.26875 h 1.9375 v 1.0625 h -5.15001 z"
       style=""
       id="path1851" />
    <path
       d="m 444.81455,357.21052 q 0.80625,0 1.2625,-0.58125 0.4625,-0.58125 0.4625,-1.60625 0,-1.025 -0.4625,-1.60625 -0.45625,-0.58125 -1.2625,-0.58125 -0.8375,0 -1.2625,0.55625 -0.425,0.55 -0.425,1.63125 0,1.0875 0.41875,1.6375 0.425,0.55 1.26875,0.55 z m -2.25,3.94375 v -1.1625 q 0.39375,0.23125 0.8375,0.35625 0.44375,0.11875 0.925,0.11875 1.2,0 1.8125,-0.9 0.61875,-0.90625 0.61875,-2.6625 -0.29375,0.625 -0.825,0.9625 -0.53125,0.33125 -1.21875,0.33125 -1.35,0 -2.09375,-0.83125 -0.7375,-0.83125 -0.7375,-2.35625 0,-1.50625 0.75625,-2.33125 0.7625,-0.83125 2.15,-0.83125 1.625,0 2.38125,1.16875 0.75625,1.16875 0.75625,3.675 0,2.35625 -0.9125,3.6 -0.90625,1.2375 -2.6375,1.2375 -0.45625,0 -0.91875,-0.1 -0.4625,-0.0937 -0.89375,-0.275 z"
       style=""
       id="path1853" />
    <path
       d="m 451.1208,360.28552 h 4.2875 v 1.0625 h -5.66875 v -1.0625 q 1.16875,-1.23125 2.04375,-2.175 0.875,-0.94375 1.20625,-1.33125 0.625,-0.7625 0.84375,-1.23125 0.21875,-0.475 0.21875,-0.96875 0,-0.78125 -0.4625,-1.225 -0.45625,-0.44375 -1.25625,-0.44375 -0.56875,0 -1.19375,0.20625 -0.625,0.20625 -1.325,0.625 v -1.275 q 0.64375,-0.30625 1.2625,-0.4625 0.625,-0.15625 1.23125,-0.15625 1.36875,0 2.2,0.73125 0.8375,0.725 0.8375,1.90625 0,0.6 -0.28125,1.2 -0.275,0.6 -0.9,1.325 -0.35,0.40625 -1.01875,1.125 -0.6625,0.71875 -2.025,2.15 z"
       style=""
       id="path1855" />
  </g>
  <path
     style="fill:none;stroke:#000000;stroke-width:2;stroke-opacity:1"
     d="m 337.06155,218.7 -0.66601,44.30302"
     id="line315" />
  <path
     transform="translate(17.65555,-0.3)"
     style="fill:#000000;fill-opacity:1;fill-rule:evenodd;stroke:#000000;stroke-width:2;stroke-opacity:1"
     d="m 313.74,263.228 4.85,10.074 5.149,-9.924 z"
     id="polygon317" />
  <path
     style="fill:none;stroke:#000000;stroke-width:2;stroke-opacity:1"
     d="m 322.36154,314.99802 -21.806,33.01498"
     id="line321" />
  <path
     transform="translate(17.65555,-0.3)"
     style="fill:#000000;fill-opacity:1;fill-rule:evenodd;stroke:#000000;stroke-width:2;stroke-opacity:1"
     d="m 278.728,345.558 -1.339,11.1 9.683,-5.589 z"
     id="polygon323" />
  <path
     style="fill:none;stroke:#000000;stroke-width:2;stroke-opacity:1"
     d="M 357.70056,315.00601 391.70554,348.272"
     id="line327" />
  <path
     transform="translate(17.65555,-0.3)"
     style="fill:#000000;fill-opacity:1;fill-rule:evenodd;stroke:#000000;stroke-width:2;stroke-opacity:1"
     d="m 370.553,352.146 10.645,3.419 -3.652,-10.567 z"
     id="polygon329" />
  <path
     style="fill:none;stroke:#000000;stroke-width:2;stroke-opacity:1"
     d="m 315.23755,398.198 42.89801,43.44101"
     id="line333" />
  <path
     transform="translate(17.65555,-0.3)"
     style="fill:#000000;fill-opacity:1;fill-rule:evenodd;stroke:#000000;stroke-width:2;stroke-opacity:1"
     d="m 336.922,445.453 10.584,3.602 -3.469,-10.629 z"
     id="polygon335" />
  <path
     style="fill:none;stroke:#000000;stroke-width:2;stroke-opacity:1"
     d="M 290.60556,398.18201 283.10455,438.686"
     id="line339" />
  <path
     transform="translate(17.65555,-0.3)"
     style="fill:#000000;fill-opacity:1;fill-rule:evenodd;stroke:#000000;stroke-width:2;stroke-opacity:1"
     d="m 260.532,438.075 3.096,10.744 6.737,-8.923 z"
     id="polygon341" />
  <path
     style="fill:none;stroke:#000000;stroke-width:2;stroke-opacity:1"
     d="m 330.90256,394.73203 108.86499,52.44598"
     id="line345" />
  <path
     transform="translate(17.65555,-0.3)"
     style="fill:#000000;fill-opacity:1;fill-rule:evenodd;stroke:#000000;stroke-width:2;stroke-opacity:1"
     d="m 419.942,451.983 11.179,-0.165 -6.839,-8.845 z"
     id="polygon347" />
  <path
     style="fill:#ffffff;fill-opacity:1;fill-rule:evenodd;stroke:#000000;stroke-width:2;stroke-opacity:1"
     d="m 266.06355,449.502 h 30.075 c 3.76,8 4.963,12 4.963,20 0,8 -1.203,12 -4.963,20 h -30.075 c -3.759,-8 -4.962,-12 -4.962,-20 0,-8 1.203,-12 4.962,-20 z"
     id="path351"
     inkscape:connector-curvature="0" />
  <g
     aria-label="r"
     style="font-style:normal;font-weight:normal;font-size:12.80000019px;font-family:sans-serif;text-anchor:middle;fill:#000000;fill-opacity:1;stroke:none"
     id="text355">
    <path
       d="m 283.72656,467.57701 q -0.19375,-0.1125 -0.425,-0.1625 -0.225,-0.0563 -0.5,-0.0563 -0.975,0 -1.5,0.6375 -0.51875,0.63125 -0.51875,1.81875 v 3.6875 h -1.15625 v -7 h 1.15625 v 1.0875 q 0.3625,-0.6375 0.94375,-0.94375 0.58125,-0.3125 1.4125,-0.3125 0.11875,0 0.2625,0.0188 0.14375,0.0125 0.31875,0.0437 z"
       style=""
       id="path1892" />
  </g>
  <g
     aria-label=" float"
     style="font-style:normal;font-weight:normal;font-size:12.80000019px;font-family:sans-serif;text-anchor:start;fill:#000000;fill-opacity:1;stroke:none"
     id="text359">
    <path
       d="m 272.55507,494.85901 h 3.2 v 9.725 h -1.15625 v -8.76875 h -2.05625 q -0.61875,0 -0.8625,0.25 -0.2375,0.25 -0.2375,0.9 v 0.61875 h 1.89375 v 0.89375 h -1.89375 v 6.10625 h -1.15625 v -6.10625 h -1.1 v -0.89375 h 1.1 v -0.4875 q 0,-1.16875 0.54375,-1.7 0.54375,-0.5375 1.725,-0.5375 z"
       style=""
       id="path1883" />
    <path
       d="m 280.88632,498.39026 q -0.925,0 -1.4625,0.725 -0.5375,0.71875 -0.5375,1.975 0,1.25625 0.53125,1.98125 0.5375,0.71875 1.46875,0.71875 0.91875,0 1.45625,-0.725 0.5375,-0.725 0.5375,-1.975 0,-1.24375 -0.5375,-1.96875 -0.5375,-0.73125 -1.45625,-0.73125 z m 0,-0.975 q 1.5,0 2.35625,0.975 0.85625,0.975 0.85625,2.7 0,1.71875 -0.85625,2.7 -0.85625,0.975 -2.35625,0.975 -1.50625,0 -2.3625,-0.975 -0.85,-0.98125 -0.85,-2.7 0,-1.725 0.85,-2.7 0.85625,-0.975 2.3625,-0.975 z"
       style=""
       id="path1885" />
    <path
       d="m 289.18007,501.06526 q -1.39375,0 -1.93125,0.31875 -0.5375,0.31875 -0.5375,1.0875 0,0.6125 0.4,0.975 0.40625,0.35625 1.1,0.35625 0.95625,0 1.53125,-0.675 0.58125,-0.68125 0.58125,-1.80625 v -0.25625 z m 2.29375,-0.475 v 3.99375 h -1.15 v -1.0625 q -0.39375,0.6375 -0.98125,0.94375 -0.5875,0.3 -1.4375,0.3 -1.075,0 -1.7125,-0.6 -0.63125,-0.60625 -0.63125,-1.61875 0,-1.18125 0.7875,-1.78125 0.79375,-0.6 2.3625,-0.6 h 1.6125 v -0.1125 q 0,-0.79375 -0.525,-1.225 -0.51875,-0.4375 -1.4625,-0.4375 -0.6,0 -1.16875,0.14375 -0.56875,0.14375 -1.09375,0.43125 v -1.0625 q 0.63125,-0.24375 1.225,-0.3625 0.59375,-0.125 1.15625,-0.125 1.51875,0 2.26875,0.7875 0.75,0.7875 0.75,2.3875 z"
       style=""
       id="path1887" />
    <path
       d="m 294.98632,495.59651 v 1.9875 h 2.36875 v 0.89375 h -2.36875 v 3.8 q 0,0.85625 0.23125,1.1 0.2375,0.24375 0.95625,0.24375 h 1.18125 v 0.9625 h -1.18125 q -1.33125,0 -1.8375,-0.49375 -0.50625,-0.5 -0.50625,-1.8125 v -3.8 h -0.84375 v -0.89375 h 0.84375 v -1.9875 z"
       style=""
       id="path1889" />
  </g>
  <path
     transform="translate(17.65555,-0.3)"
     style="fill:#ffffff;fill-opacity:1;fill-rule:evenodd;stroke:#000000;stroke-width:2;stroke-opacity:1"
     d="m 312.194,431.762 12,12 v 22 h -48.8 v -34 z"
     id="polygon361" />
  <path
     transform="translate(17.65555,-0.3)"
     style="fill:none;stroke:#000000;stroke-width:1;stroke-opacity:1"
     d="m 312.194,431.762 v 12 h 12"
     id="polyline363" />
  <g
     aria-label="8192"
     style="font-style:normal;font-weight:normal;font-size:12.80000019px;font-family:monospace;text-anchor:start;fill:#000000;fill-opacity:1;stroke:none"
     id="text367">
    <path
       d="m 303.89956,451.93075 q -0.84375,0 -1.30625,0.475 -0.45625,0.46875 -0.45625,1.33125 0,0.8625 0.4625,1.34375 0.46875,0.475 1.3,0.475 0.85,0 1.30625,-0.46875 0.4625,-0.475 0.4625,-1.35 0,-0.85625 -0.46875,-1.33125 -0.4625,-0.475 -1.3,-0.475 z m -1.1,-0.525 q -0.80625,-0.20625 -1.2625,-0.76875 -0.45,-0.5625 -0.45,-1.35625 0,-1.1125 0.75625,-1.7625 0.75625,-0.65625 2.05625,-0.65625 1.30625,0 2.0625,0.65625 0.75625,0.65 0.75625,1.7625 0,0.79375 -0.45625,1.35625 -0.45,0.5625 -1.25625,0.76875 0.9375,0.20625 1.43125,0.83125 0.5,0.625 0.5,1.61875 0,1.2625 -0.80625,1.975 -0.80625,0.7125 -2.23125,0.7125 -1.425,0 -2.23125,-0.70625 -0.8,-0.7125 -0.8,-1.96875 0,-1 0.49375,-1.625 0.5,-0.63125 1.4375,-0.8375 z m -0.45625,-2.00625 q 0,0.75 0.4,1.14375 0.4,0.39375 1.15625,0.39375 0.7625,0 1.1625,-0.39375 0.4,-0.39375 0.4,-1.14375 0,-0.7625 -0.4,-1.1625 -0.39375,-0.4 -1.1625,-0.4 -0.75625,0 -1.15625,0.40625 -0.4,0.4 -0.4,1.15625 z"
       style=""
       id="path1872" />
    <path
       d="m 309.43706,455.2995 h 1.9625 v -7.13125 l -2.1125,0.475 v -1.15 l 2.1,-0.4625 h 1.2625 v 8.26875 h 1.9375 v 1.0625 h -5.15 z"
       style=""
       id="path1874" />
    <path
       d="m 319.17456,452.2245 q 0.80625,0 1.2625,-0.58125 0.4625,-0.58125 0.4625,-1.60625 0,-1.025 -0.4625,-1.60625 -0.45625,-0.58125 -1.2625,-0.58125 -0.8375,0 -1.2625,0.55625 -0.425,0.55 -0.425,1.63125 0,1.0875 0.41875,1.6375 0.425,0.55 1.26875,0.55 z m -2.25,3.94375 v -1.1625 q 0.39375,0.23125 0.8375,0.35625 0.44375,0.11875 0.925,0.11875 1.2,0 1.8125,-0.9 0.61875,-0.90625 0.61875,-2.6625 -0.29375,0.625 -0.825,0.9625 -0.53125,0.33125 -1.21875,0.33125 -1.35,0 -2.09375,-0.83125 -0.7375,-0.83125 -0.7375,-2.35625 0,-1.50625 0.75625,-2.33125 0.7625,-0.83125 2.15,-0.83125 1.625,0 2.38125,1.16875 0.75625,1.16875 0.75625,3.675 0,2.35625 -0.9125,3.6 -0.90625,1.2375 -2.6375,1.2375 -0.45625,0 -0.91875,-0.1 -0.4625,-0.0937 -0.89375,-0.275 z"
       style=""
       id="path1876" />
    <path
       d="m 325.48081,455.2995 h 4.2875 v 1.0625 h -5.66875 v -1.0625 q 1.16875,-1.23125 2.04375,-2.175 0.875,-0.94375 1.20625,-1.33125 0.625,-0.7625 0.84375,-1.23125 0.21875,-0.475 0.21875,-0.96875 0,-0.78125 -0.4625,-1.225 -0.45625,-0.44375 -1.25625,-0.44375 -0.56875,0 -1.19375,0.20625 -0.625,0.20625 -1.325,0.625 v -1.275 q 0.64375,-0.30625 1.2625,-0.4625 0.625,-0.15625 1.23125,-0.15625 1.36875,0 2.2,0.73125 0.8375,0.725 0.8375,1.90625 0,0.6 -0.28125,1.2 -0.275,0.6 -0.9,1.325 -0.35,0.40625 -1.01875,1.125 -0.6625,0.71875 -2.025,2.15 z"
       style=""
       id="path1878" />
  </g>
  <g
     aria-label=" float"
     style="font-style:normal;font-weight:normal;font-size:12.80000019px;font-family:sans-serif;text-anchor:start;fill:#000000;fill-opacity:1;stroke:none"
     id="text373">
    <path
       d="m 354.94005,494.43702 h 3.2 v 9.725 h -1.15625 v -8.76875 h -2.05625 q -0.61875,0 -0.8625,0.25 -0.2375,0.25 -0.2375,0.9 v 0.61875 h 1.89375 v 0.89375 h -1.89375 v 6.10625 h -1.15625 v -6.10625 h -1.1 v -0.89375 h 1.1 v -0.4875 q 0,-1.16875 0.54375,-1.7 0.54375,-0.5375 1.725,-0.5375 z"
       style=""
       id="path1909" />
    <path
       d="m 363.27129,497.96827 q -0.925,0 -1.4625,0.725 -0.5375,0.71875 -0.5375,1.975 0,1.25625 0.53125,1.98125 0.5375,0.71875 1.46875,0.71875 0.91875,0 1.45625,-0.725 0.5375,-0.725 0.5375,-1.975 0,-1.24375 -0.5375,-1.96875 -0.5375,-0.73125 -1.45625,-0.73125 z m 0,-0.975 q 1.5,0 2.35625,0.975 0.85625,0.975 0.85625,2.7 0,1.71875 -0.85625,2.7 -0.85625,0.975 -2.35625,0.975 -1.50625,0 -2.3625,-0.975 -0.85,-0.98125 -0.85,-2.7 0,-1.725 0.85,-2.7 0.85625,-0.975 2.3625,-0.975 z"
       style=""
       id="path1911" />
    <path
       d="m 371.56505,500.64327 q -1.39375,0 -1.93125,0.31875 -0.5375,0.31875 -0.5375,1.0875 0,0.6125 0.4,0.975 0.40625,0.35625 1.1,0.35625 0.95625,0 1.53125,-0.675 0.58125,-0.68125 0.58125,-1.80625 v -0.25625 z m 2.29375,-0.475 v 3.99375 h -1.15 v -1.0625 q -0.39375,0.6375 -0.98125,0.94375 -0.5875,0.3 -1.4375,0.3 -1.075,0 -1.7125,-0.6 -0.63125,-0.60625 -0.63125,-1.61875 0,-1.18125 0.7875,-1.78125 0.79375,-0.6 2.3625,-0.6 h 1.6125 v -0.1125 q 0,-0.79375 -0.525,-1.225 -0.51875,-0.4375 -1.4625,-0.4375 -0.6,0 -1.16875,0.14375 -0.56875,0.14375 -1.09375,0.43125 v -1.0625 q 0.63125,-0.24375 1.225,-0.3625 0.59375,-0.125 1.15625,-0.125 1.51875,0 2.26875,0.7875 0.75,0.7875 0.75,2.3875 z"
       style=""
       id="path1913" />
    <path
       d="m 377.3713,495.17452 v 1.9875 h 2.36875 v 0.89375 h -2.36875 v 3.8 q 0,0.85625 0.23125,1.1 0.2375,0.24375 0.95625,0.24375 h 1.18125 v 0.9625 h -1.18125 q -1.33125,0 -1.8375,-0.49375 -0.50625,-0.5 -0.50625,-1.8125 v -3.8 h -0.84375 v -0.89375 h 0.84375 v -1.9875 z"
       style=""
       id="path1915" />
  </g>
  <path
     style="fill:#ffffff;fill-opacity:1;fill-rule:evenodd;stroke:#000000;stroke-width:2;stroke-opacity:1"
     d="m 350.82655,449.466 h 30.075 c 3.76,8 4.963,12 4.963,20 0,8 -1.203,12 -4.963,20 h -30.075 c -3.759,-8 -4.962,-12 -4.962,-20 0,-8 1.203,-12 4.962,-20 z"
     id="path375"
     inkscape:connector-curvature="0" />
  <g
     aria-label="g"
     style="font-style:normal;font-weight:normal;font-size:12.80000019px;font-family:sans-serif;text-anchor:middle;fill:#000000;fill-opacity:1;stroke:none"
     id="text379">
    <path
       d="m 367.61456,469.88475 q 0,-1.25 -0.51875,-1.9375 -0.5125,-0.6875 -1.44375,-0.6875 -0.925,0 -1.44375,0.6875 -0.5125,0.6875 -0.5125,1.9375 0,1.24375 0.5125,1.93125 0.51875,0.6875 1.44375,0.6875 0.93125,0 1.44375,-0.6875 0.51875,-0.6875 0.51875,-1.93125 z m 1.15,2.7125 q 0,1.7875 -0.79375,2.65625 -0.79375,0.875 -2.43125,0.875 -0.60625,0 -1.14375,-0.0937 -0.5375,-0.0875 -1.04375,-0.275 V 474.641 q 0.50625,0.275 1,0.40625 0.49375,0.13125 1.00625,0.13125 1.13125,0 1.69375,-0.59375 0.5625,-0.5875 0.5625,-1.78125 v -0.56875 q -0.35625,0.61875 -0.9125,0.925 -0.55625,0.30625 -1.33125,0.30625 -1.2875,0 -2.075,-0.98125 -0.7875,-0.98125 -0.7875,-2.6 0,-1.625 0.7875,-2.60625 0.7875,-0.98125 2.075,-0.98125 0.775,0 1.33125,0.30625 0.55625,0.30625 0.9125,0.925 v -1.0625 h 1.15 z"
       style=""
       id="path1906" />
  </g>
  <path
     transform="translate(17.65555,-0.3)"
     style="fill:#ffffff;fill-opacity:1;fill-rule:evenodd;stroke:#000000;stroke-width:2;stroke-opacity:1"
     d="m 393.913,432.298 12,12 v 22 h -48.8 v -34 z"
     id="polygon381" />
  <path
     transform="translate(17.65555,-0.3)"
     style="fill:none;stroke:#000000;stroke-width:1;stroke-opacity:1"
     d="m 393.913,432.298 v 12 h 12"
     id="polyline383" />
  <g
     aria-label="8192"
     style="font-style:normal;font-weight:normal;font-size:12.80000019px;font-family:monospace;text-anchor:start;fill:#000000;fill-opacity:1;stroke:none"
     id="text387">
    <path
       d="m 385.61855,452.46676 q -0.84375,0 -1.30625,0.475 -0.45625,0.46875 -0.45625,1.33125 0,0.8625 0.4625,1.34375 0.46875,0.475 1.3,0.475 0.85,0 1.30625,-0.46875 0.4625,-0.475 0.4625,-1.35 0,-0.85625 -0.46875,-1.33125 -0.4625,-0.475 -1.3,-0.475 z m -1.1,-0.525 q -0.80625,-0.20625 -1.2625,-0.76875 -0.45,-0.5625 -0.45,-1.35625 0,-1.1125 0.75625,-1.7625 0.75625,-0.65625 2.05625,-0.65625 1.30625,0 2.0625,0.65625 0.75625,0.65 0.75625,1.7625 0,0.79375 -0.45625,1.35625 -0.45,0.5625 -1.25625,0.76875 0.9375,0.20625 1.43125,0.83125 0.5,0.625 0.5,1.61875 0,1.2625 -0.80625,1.975 -0.80625,0.7125 -2.23125,0.7125 -1.425,0 -2.23125,-0.70625 -0.8,-0.7125 -0.8,-1.96875 0,-1 0.49375,-1.625 0.5,-0.63125 1.4375,-0.8375 z m -0.45625,-2.00625 q 0,0.75 0.4,1.14375 0.4,0.39375 1.15625,0.39375 0.7625,0 1.1625,-0.39375 0.4,-0.39375 0.4,-1.14375 0,-0.7625 -0.4,-1.1625 -0.39375,-0.4 -1.1625,-0.4 -0.75625,0 -1.15625,0.40625 -0.4,0.4 -0.4,1.15625 z"
       style=""
       id="path1895" />
    <path
       d="m 391.15605,455.83551 h 1.96251 v -7.13125 l -2.11251,0.475 v -1.15 l 2.10001,-0.4625 h 1.2625 v 8.26875 h 1.9375 v 1.0625 h -5.15001 z"
       style=""
       id="path1897" />
    <path
       d="m 400.89356,452.76051 q 0.80625,0 1.2625,-0.58125 0.4625,-0.58125 0.4625,-1.60625 0,-1.025 -0.4625,-1.60625 -0.45625,-0.58125 -1.2625,-0.58125 -0.8375,0 -1.2625,0.55625 -0.425,0.55 -0.425,1.63125 0,1.0875 0.41875,1.6375 0.425,0.55 1.26875,0.55 z m -2.25,3.94375 v -1.1625 q 0.39375,0.23125 0.8375,0.35625 0.44375,0.11875 0.925,0.11875 1.2,0 1.8125,-0.9 0.61875,-0.90625 0.61875,-2.6625 -0.29375,0.625 -0.825,0.9625 -0.53125,0.33125 -1.21875,0.33125 -1.35,0 -2.09375,-0.83125 -0.7375,-0.83125 -0.7375,-2.35625 0,-1.50625 0.75625,-2.33125 0.7625,-0.83125 2.15,-0.83125 1.625,0 2.38125,1.16875 0.75625,1.16875 0.75625,3.675 0,2.35625 -0.9125,3.6 -0.90625,1.2375 -2.6375,1.2375 -0.45625,0 -0.91875,-0.1 -0.4625,-0.0937 -0.89375,-0.275 z"
       style=""
       id="path1899" />
    <path
       d="m 407.19981,455.83551 h 4.2875 v 1.0625 h -5.66875 v -1.0625 q 1.16875,-1.23125 2.04375,-2.175 0.875,-0.94375 1.20625,-1.33125 0.625,-0.7625 0.84375,-1.23125 0.21875,-0.475 0.21875,-0.96875 0,-0.78125 -0.4625,-1.225 -0.45625,-0.44375 -1.25625,-0.44375 -0.56875,0 -1.19375,0.20625 -0.625,0.20625 -1.325,0.625 v -1.275 q 0.64375,-0.30625 1.2625,-0.4625 0.625,-0.15625 1.23125,-0.15625 1.36875,0 2.2,0.73125 0.8375,0.725 0.8375,1.90625 0,0.6 -0.28125,1.2 -0.275,0.6 -0.9,1.325 -0.35,0.40625 -1.01875,1.125 -0.6625,0.71875 -2.025,2.15 z"
       style=""
       id="path1901" />
  </g>
  <g
     aria-label=" float"
     style="font-style:normal;font-weight:normal;font-size:12.80000019px;font-family:sans-serif;text-anchor:start;fill:#000000;fill-opacity:1;stroke:none"
     id="text393">
    <path
       d="m 438.75303,496.92301 h 3.2 v 9.725 h -1.15625 v -8.76875 h -2.05625 q -0.61875,0 -0.8625,0.25 -0.2375,0.25 -0.2375,0.9 v 0.61875 h 1.89375 v 0.89375 h -1.89375 v 6.10625 h -1.15625 v -6.10625 h -1.1 v -0.89375 h 1.1 v -0.4875 q 0,-1.16875 0.54375,-1.7 0.54375,-0.5375 1.725,-0.5375 z"
       style=""
       id="path1932" />
    <path
       d="m 447.08428,500.45426 q -0.925,0 -1.4625,0.725 -0.5375,0.71875 -0.5375,1.975 0,1.25625 0.53125,1.98125 0.5375,0.71875 1.46875,0.71875 0.91875,0 1.45625,-0.725 0.5375,-0.725 0.5375,-1.975 0,-1.24375 -0.5375,-1.96875 -0.5375,-0.73125 -1.45625,-0.73125 z m 0,-0.975 q 1.5,0 2.35625,0.975 0.85625,0.975 0.85625,2.7 0,1.71875 -0.85625,2.7 -0.85625,0.975 -2.35625,0.975 -1.50625,0 -2.3625,-0.975 -0.85,-0.98125 -0.85,-2.7 0,-1.725 0.85,-2.7 0.85625,-0.975 2.3625,-0.975 z"
       style=""
       id="path1934" />
    <path
       d="m 455.37803,503.12926 q -1.39375,0 -1.93125,0.31875 -0.5375,0.31875 -0.5375,1.0875 0,0.6125 0.4,0.975 0.40625,0.35625 1.1,0.35625 0.95625,0 1.53125,-0.675 0.58125,-0.68125 0.58125,-1.80625 v -0.25625 z m 2.29375,-0.475 v 3.99375 h -1.15 v -1.0625 q -0.39375,0.6375 -0.98125,0.94375 -0.5875,0.3 -1.4375,0.3 -1.075,0 -1.7125,-0.6 -0.63125,-0.60625 -0.63125,-1.61875 0,-1.18125 0.7875,-1.78125 0.79375,-0.6 2.3625,-0.6 h 1.6125 v -0.1125 q 0,-0.79375 -0.525,-1.225 -0.51875,-0.4375 -1.4625,-0.4375 -0.6,0 -1.16875,0.14375 -0.56875,0.14375 -1.09375,0.43125 v -1.0625 q 0.63125,-0.24375 1.225,-0.3625 0.59375,-0.125 1.15625,-0.125 1.51875,0 2.26875,0.7875 0.75,0.7875 0.75,2.3875 z"
       style=""
       id="path1936" />
    <path
       d="m 461.18428,497.66051 v 1.9875 h 2.36875 v 0.89375 h -2.36875 v 3.8 q 0,0.85625 0.23125,1.1 0.2375,0.24375 0.95625,0.24375 h 1.18125 v 0.9625 h -1.18125 q -1.33125,0 -1.8375,-0.49375 -0.50625,-0.5 -0.50625,-1.8125 v -3.8 h -0.84375 v -0.89375 h 0.84375 v -1.9875 z"
       style=""
       id="path1938" />
  </g>
  <path
     style="fill:#ffffff;fill-opacity:1;fill-rule:evenodd;stroke:#000000;stroke-width:2;stroke-opacity:1"
     d="m 434.63955,451.952 h 30.075 c 3.76,8 4.963,12 4.963,20 0,8 -1.203,12 -4.963,20 h -30.075 c -3.759,-8 -4.962,-12 -4.962,-20 0,-8 1.203,-12 4.962,-20 z"
     id="path395"
     inkscape:connector-curvature="0" />
  <g
     aria-label="b"
     style="font-style:normal;font-weight:normal;font-size:12.80000019px;font-family:sans-serif;text-anchor:middle;fill:#000000;fill-opacity:1;stroke:none"
     id="text399">
    <path
       d="m 451.8463,472.45828 q 0,-1.26875 -0.525,-1.9875 -0.51875,-0.725 -1.43125,-0.725 -0.9125,0 -1.4375,0.725 -0.51875,0.71875 -0.51875,1.9875 0,1.26875 0.51875,1.99375 0.525,0.71875 1.4375,0.71875 0.9125,0 1.43125,-0.71875 0.525,-0.725 0.525,-1.99375 z m -3.9125,-2.44375 q 0.3625,-0.625 0.9125,-0.925 0.55625,-0.30625 1.325,-0.30625 1.275,0 2.06875,1.0125 0.8,1.0125 0.8,2.6625 0,1.65 -0.8,2.6625 -0.79375,1.0125 -2.06875,1.0125 -0.76875,0 -1.325,-0.3 -0.55,-0.30625 -0.9125,-0.93125 v 1.05 h -1.15625 v -9.725 h 1.15625 z"
       style=""
       id="path1929" />
  </g>
  <path
     transform="translate(17.65555,-0.3)"
     style="fill:#ffffff;fill-opacity:1;fill-rule:evenodd;stroke:#000000;stroke-width:2;stroke-opacity:1"
     d="m 477.726,434.784 12,12 v 22 h -48.8 v -34 z"
     id="polygon401" />
  <path
     transform="translate(17.65555,-0.3)"
     style="fill:none;stroke:#000000;stroke-width:1;stroke-opacity:1"
     d="m 477.726,434.784 v 12 h 12"
     id="polyline403" />
  <g
     aria-label="8192"
     style="font-style:normal;font-weight:normal;font-size:12.80000019px;font-family:monospace;text-anchor:start;fill:#000000;fill-opacity:1;stroke:none"
     id="text407">
    <path
       d="m 469.43154,454.95275 q -0.84375,0 -1.30625,0.475 -0.45625,0.46875 -0.45625,1.33125 0,0.8625 0.4625,1.34375 0.46875,0.475 1.3,0.475 0.85,0 1.30625,-0.46875 0.4625,-0.475 0.4625,-1.35 0,-0.85625 -0.46875,-1.33125 -0.4625,-0.475 -1.3,-0.475 z m -1.1,-0.525 q -0.80625,-0.20625 -1.2625,-0.76875 -0.45,-0.5625 -0.45,-1.35625 0,-1.1125 0.75625,-1.7625 0.75625,-0.65625 2.05625,-0.65625 1.30625,0 2.0625,0.65625 0.75625,0.65 0.75625,1.7625 0,0.79375 -0.45625,1.35625 -0.45,0.5625 -1.25625,0.76875 0.9375,0.20625 1.43125,0.83125 0.5,0.625 0.5,1.61875 0,1.2625 -0.80625,1.975 -0.80625,0.7125 -2.23125,0.7125 -1.425,0 -2.23125,-0.70625 -0.8,-0.7125 -0.8,-1.96875 0,-1 0.49375,-1.625 0.5,-0.63125 1.4375,-0.8375 z m -0.45625,-2.00625 q 0,0.75 0.4,1.14375 0.4,0.39375 1.15625,0.39375 0.7625,0 1.1625,-0.39375 0.4,-0.39375 0.4,-1.14375 0,-0.7625 -0.4,-1.1625 -0.39375,-0.4 -1.1625,-0.4 -0.75625,0 -1.15625,0.40625 -0.4,0.4 -0.4,1.15625 z"
       style=""
       id="path1918" />
    <path
       d="m 474.96904,458.3215 h 1.9625 v -7.13125 l -2.1125,0.475 v -1.15 l 2.1,-0.4625 h 1.2625 v 8.26875 h 1.9375 v 1.0625 h -5.15 z"
       style=""
       id="path1920" />
    <path
       d="m 484.70654,455.2465 q 0.80625,0 1.2625,-0.58125 0.4625,-0.58125 0.4625,-1.60625 0,-1.025 -0.4625,-1.60625 -0.45625,-0.58125 -1.2625,-0.58125 -0.8375,0 -1.2625,0.55625 -0.425,0.55 -0.425,1.63125 0,1.0875 0.41875,1.6375 0.425,0.55 1.26875,0.55 z m -2.25,3.94375 v -1.1625 q 0.39375,0.23125 0.8375,0.35625 0.44375,0.11875 0.925,0.11875 1.2,0 1.8125,-0.9 0.61875,-0.90625 0.61875,-2.6625 -0.29375,0.625 -0.825,0.9625 -0.53125,0.33125 -1.21875,0.33125 -1.35,0 -2.09375,-0.83125 -0.7375,-0.83125 -0.7375,-2.35625 0,-1.50625 0.75625,-2.33125 0.7625,-0.83125 2.15,-0.83125 1.625,0 2.38125,1.16875 0.75625,1.16875 0.75625,3.675 0,2.35625 -0.9125,3.6 -0.90625,1.2375 -2.6375,1.2375 -0.45625,0 -0.91875,-0.1 -0.4625,-0.0937 -0.89375,-0.275 z"
       style=""
       id="path1922" />
    <path
       d="m 491.01279,458.3215 h 4.2875 v 1.0625 h -5.66875 v -1.0625 q 1.16875,-1.23125 2.04375,-2.175 0.875,-0.94375 1.20625,-1.33125 0.625,-0.7625 0.84375,-1.23125 0.21875,-0.475 0.21875,-0.96875 0,-0.78125 -0.4625,-1.225 -0.45625,-0.44375 -1.25625,-0.44375 -0.56875,0 -1.19375,0.20625 -0.625,0.20625 -1.325,0.625 v -1.275 q 0.64375,-0.30625 1.2625,-0.4625 0.625,-0.15625 1.23125,-0.15625 1.36875,0 2.2,0.73125 0.8375,0.725 0.8375,1.90625 0,0.6 -0.28125,1.2 -0.275,0.6 -0.9,1.325 -0.35,0.40625 -1.01875,1.125 -0.6625,0.71875 -2.025,2.15 z"
       style=""
       id="path1924" />
  </g>
</svg>
