<?xml version="1.0" encoding="UTF-8" standalone="no"?>
<svg
   xmlns:dc="http://purl.org/dc/elements/1.1/"
   xmlns:cc="http://creativecommons.org/ns#"
   xmlns:rdf="http://www.w3.org/1999/02/22-rdf-syntax-ns#"
   xmlns:svg="http://www.w3.org/2000/svg"
   xmlns="http://www.w3.org/2000/svg"
   xmlns:sodipodi="http://sodipodi.sourceforge.net/DTD/sodipodi-0.dtd"
   xmlns:inkscape="http://www.inkscape.org/namespaces/inkscape"
   width="10cm"
   height="18cm"
   viewBox="173 177 200 348"
   version="1.1"
   id="svg211"
   sodipodi:docname="example_tree_raw.svg"
   inkscape:version="0.92.3 (2405546, 2018-03-11)">
  <metadata
     id="metadata217">
    <rdf:RDF>
      <cc:Work
         rdf:about="">
        <dc:format>image/svg+xml</dc:format>
        <dc:type
           rdf:resource="http://purl.org/dc/dcmitype/StillImage" />
        <dc:title></dc:title>
      </cc:Work>
    </rdf:RDF>
  </metadata>
  <defs
     id="defs215" />
  <sodipodi:namedview
     pagecolor="#ffffff"
     bordercolor="#666666"
     borderopacity="1"
     objecttolerance="10"
     gridtolerance="10"
     guidetolerance="10"
     inkscape:pageopacity="0"
     inkscape:pageshadow="2"
     inkscape:window-width="1920"
     inkscape:window-height="1028"
     id="namedview213"
     showgrid="false"
     inkscape:zoom="0.98117613"
     inkscape:cx="23.125426"
     inkscape:cy="273.28431"
     inkscape:window-x="0"
     inkscape:window-y="28"
     inkscape:window-maximized="1"
     inkscape:current-layer="svg211" />
  <polygon
     style="fill:#ffffff;fill-opacity:1;fill-rule:evenodd;stroke:#000000;stroke-width:2;stroke-opacity:1"
     points="225.84,196 280.971,196 280.971,236 225.84,236 "
     id="polygon2" />
  <line
     style="fill:none;stroke:#000000;stroke-width:2;stroke-opacity:1"
     x1="231.353"
     y1="196"
     x2="231.353"
     y2="236"
     id="line4" />
  <line
     style="fill:none;stroke:#000000;stroke-width:2;stroke-opacity:1"
     x1="275.45801"
     y1="196"
     x2="275.45801"
     y2="236"
     id="line6" />
  <text
     font-size="12.8"
     style="font-style:normal;font-weight:normal;font-size:12.80000019px;font-family:sans-serif;text-anchor:middle;fill:#000000;fill-opacity:1;stroke:none"
     x="253.40601"
     y="220"
     id="text10">
    <tspan
       x="253.40601"
       y="220"
       id="tspan8" />
  </text>
  <polygon
     style="fill:#ffffff;fill-opacity:1;fill-rule:evenodd;stroke:#000000;stroke-width:2;stroke-opacity:1"
     points="262.478,212.3 262.478,178.3 276.178,178.3 288.178,190.3 288.178,212.3 "
     id="polygon14" />
  <polyline
     style="fill:none;stroke:#000000;stroke-width:1;stroke-opacity:1"
     points="276.178,178.3 276.178,190.3 288.178,190.3 "
     id="polyline16" />
  <text
     font-size="12.8"
     style="font-style:normal;font-weight:normal;font-size:12.80000019px;font-family:monospace;text-anchor:start;fill:#000000;fill-opacity:1;stroke:none"
     x="269.478"
     y="203.2"
     id="text20">
    <tspan
       x="269.478"
       y="203.2"
       id="tspan18">1</tspan>
  </text>
  <polygon
     style="fill:#ffffff;fill-opacity:1;fill-rule:evenodd;stroke:#000000;stroke-width:2;stroke-opacity:1"
     points="175.4,374.492 246.275,374.492 246.275,414.492 175.4,414.492 "
     id="polygon24" />
  <line
     style="fill:none;stroke:#000000;stroke-width:2;stroke-opacity:1"
     x1="182.48801"
     y1="374.492"
     x2="182.48801"
     y2="414.492"
     id="line26" />
  <line
     style="fill:none;stroke:#000000;stroke-width:2;stroke-opacity:1"
     x1="239.188"
     y1="374.492"
     x2="239.188"
     y2="414.492"
     id="line28" />
  <text
     font-size="12.8"
     style="font-style:normal;font-weight:normal;font-size:12.80000019px;font-family:sans-serif;text-anchor:middle;fill:#000000;fill-opacity:1;stroke:none"
     x="210.838"
     y="398.492"
     id="text32">
    <tspan
       x="210.838"
       y="398.492"
       id="tspan30">color</tspan>
  </text>
  <polygon
     style="fill:#ffffff;fill-opacity:1;fill-rule:evenodd;stroke:#000000;stroke-width:2;stroke-opacity:1"
     points="234.15,388.364 234.15,354.364 247.85,354.364 259.85,366.364 259.85,388.364 "
     id="polygon36" />
  <polyline
     style="fill:none;stroke:#000000;stroke-width:1;stroke-opacity:1"
     points="247.85,354.364 247.85,366.364 259.85,366.364 "
     id="polyline38" />
  <text
     font-size="12.8"
     style="font-style:normal;font-weight:normal;font-size:12.80000019px;font-family:monospace;text-anchor:start;fill:#000000;fill-opacity:1;stroke:none"
     x="241.14999"
     y="379.26401"
     id="text42">
    <tspan
       x="241.14999"
       y="379.26401"
       id="tspan40">1</tspan>
  </text>
  <polygon
     style="fill:#ffffff;fill-opacity:1;fill-rule:evenodd;stroke:#000000;stroke-width:2;stroke-opacity:1"
     points="219.262,291.302 285.887,291.302 285.887,331.302 219.262,331.302 "
     id="polygon46" />
  <line
     style="fill:none;stroke:#000000;stroke-width:2;stroke-opacity:1"
     x1="225.925"
     y1="291.302"
     x2="225.925"
     y2="331.302"
     id="line48" />
  <line
     style="fill:none;stroke:#000000;stroke-width:2;stroke-opacity:1"
     x1="279.22501"
     y1="291.302"
     x2="279.22501"
     y2="331.302"
     id="line50" />
  <text
     font-size="12.8"
     style="font-style:normal;font-weight:normal;font-size:12.80000019px;font-family:sans-serif;text-anchor:middle;fill:#000000;fill-opacity:1;stroke:none"
     x="252.575"
     y="315.302"
     id="text54">
    <tspan
       x="252.575"
       y="315.302"
       id="tspan52">Pixel</tspan>
  </text>
  <polygon
     style="fill:#ffffff;fill-opacity:1;fill-rule:evenodd;stroke:#000000;stroke-width:2;stroke-opacity:1"
     points="274.464,304.774 274.464,270.774 288.164,270.774 300.164,282.774 300.164,304.774 "
     id="polygon58" />
  <polyline
     style="fill:none;stroke:#000000;stroke-width:1;stroke-opacity:1"
     points="288.164,270.774 288.164,282.774 300.164,282.774 "
     id="polyline60" />
  <text
     font-size="12.8"
     style="font-style:normal;font-weight:normal;font-size:12.80000019px;font-family:monospace;text-anchor:start;fill:#000000;fill-opacity:1;stroke:none"
     x="281.46399"
     y="295.67401"
     id="text64">
    <tspan
       x="281.46399"
       y="295.67401"
       id="tspan62">4</tspan>
  </text>
  <line
     style="fill:none;stroke:#000000;stroke-width:2;stroke-opacity:1"
     x1="253.40601"
     y1="236"
     x2="252.74001"
     y2="280.30301"
     id="line68" />
  <polygon
     style="fill:#000000;fill-opacity:1;fill-rule:evenodd;stroke:#000000;stroke-width:2;stroke-opacity:1"
     points="252.59,290.302 257.739,280.378 247.74,280.228 "
     id="polygon70" />
  <line
     style="fill:none;stroke:#000000;stroke-width:2;stroke-opacity:1"
     x1="238.70599"
     y1="332.298"
     x2="216.89999"
     y2="365.31299"
     id="line74" />
  <polygon
     style="fill:#000000;fill-opacity:1;fill-rule:evenodd;stroke:#000000;stroke-width:2;stroke-opacity:1"
     points="211.389,373.658 221.072,368.069 212.728,362.558 "
     id="polygon76" />
  <line
     style="fill:none;stroke:#000000;stroke-width:2;stroke-opacity:1"
     x1="269.702"
     y1="332.30701"
     x2="296.961"
     y2="365.73901"
     id="line80" />
  <polygon
     style="fill:#000000;fill-opacity:1;fill-rule:evenodd;stroke:#000000;stroke-width:2;stroke-opacity:1"
     points="303.281,373.489 300.837,362.579 293.086,368.898 "
     id="polygon82" />
  <line
     style="fill:none;stroke:#000000;stroke-width:2;stroke-opacity:1"
     x1="227.51199"
     y1="415.49799"
     x2="261.37"
     y2="458.151"
     id="line86" />
  <polygon
     style="fill:#000000;fill-opacity:1;fill-rule:evenodd;stroke:#000000;stroke-width:2;stroke-opacity:1"
     points="267.587,465.983 265.286,455.042 257.454,461.259 "
     id="polygon88" />
  <line
     style="fill:none;stroke:#000000;stroke-width:2;stroke-opacity:1"
     x1="207.444"
     y1="415.43399"
     x2="201.205"
     y2="453.944"
     id="line92" />
  <polygon
     style="fill:#000000;fill-opacity:1;fill-rule:evenodd;stroke:#000000;stroke-width:2;stroke-opacity:1"
     points="199.605,463.815 206.14,454.743 196.269,453.144 "
     id="polygon94" />
  <line
     style="fill:none;stroke:#000000;stroke-width:2;stroke-opacity:1"
     x1="246.27499"
     y1="415.13599"
     x2="324.517"
     y2="460.715"
     id="line98" />
  <polygon
     style="fill:#000000;fill-opacity:1;fill-rule:evenodd;stroke:#000000;stroke-width:2;stroke-opacity:1"
     points="333.158,465.749 327.034,456.395 322,465.036 "
     id="polygon100" />
  <text
     font-size="12.8"
     style="font-style:normal;font-weight:normal;font-size:12.80000019px;font-family:sans-serif;text-anchor:start;fill:#000000;fill-opacity:1;stroke:none"
     x="323.64499"
     y="349.918"
     id="text106">
    <tspan
       xml:space="preserve"
       x="323.64499"
       y="349.918"
       id="tspan104"> pad</tspan>  </text>
  <path
     style="fill:#b8bab7;fill-opacity:1;fill-rule:evenodd;stroke:#000000;stroke-width:2;stroke-opacity:1"
     d="m 322.362,295.768 h 30.076 c 3.759,8 4.962,12 4.962,20 0,8 -1.203,12 -4.962,20 h -30.076 c -3.759,-8 -4.962,-12 -4.962,-20 0,-8 1.203,-12 4.962,-20 z"
     id="path108"
     inkscape:connector-curvature="0" />
  <text
     font-size="12.8"
     style="font-style:normal;font-weight:normal;font-size:12.80000019px;font-family:sans-serif;text-anchor:middle;fill:#000000;fill-opacity:1;stroke:none"
     x="337.39999"
     y="319.76801"
     id="text112">
    <tspan
       x="337.39999"
       y="319.76801"
       id="tspan110" />
  </text>
  <polygon
     style="fill:#ffffff;fill-opacity:1;fill-rule:evenodd;stroke:#000000;stroke-width:2;stroke-opacity:1"
     points="346.304,312.3 346.304,278.3 360.004,278.3 372.004,290.3 372.004,312.3 "
     id="polygon114" />
  <polyline
     style="fill:none;stroke:#000000;stroke-width:1;stroke-opacity:1"
     points="360.004,278.3 360.004,290.3 372.004,290.3 "
     id="polyline116" />
  <text
     font-size="12.8"
     style="font-style:normal;font-weight:normal;font-size:12.80000019px;font-family:monospace;text-anchor:start;fill:#000000;fill-opacity:1;stroke:none"
     x="353.30399"
     y="303.20001"
     id="text120">
    <tspan
       x="353.30399"
       y="303.20001"
       id="tspan118">1</tspan>
  </text>
  <line
     style="fill:none;stroke:#000000;stroke-width:2;stroke-opacity:1"
     x1="286.88"
     y1="313.108"
     x2="305.43701"
     y2="314.08499"
     id="line124" />
  <polygon
     style="fill:#000000;fill-opacity:1;fill-rule:evenodd;stroke:#000000;stroke-width:2;stroke-opacity:1"
     points="315.423,314.611 305.7,309.092 305.174,319.078 "
     id="polygon126" />
  <text
     font-size="12.8"
     style="font-style:normal;font-weight:normal;font-size:12.80000019px;font-family:sans-serif;text-anchor:start;fill:#000000;fill-opacity:1;stroke:none"
     x="249.547"
     y="521.46198"
     id="text132">
    <tspan
       xml:space="preserve"
       x="249.547"
       y="521.46198"
       id="tspan130"> float</tspan>  </text>
  <path
     style="fill:#b8e1e2;fill-opacity:1;fill-rule:evenodd;stroke:#000000;stroke-width:2;stroke-opacity:1"
     d="m 253.171,466.766 h 30.075 c 3.76,8 4.963,12 4.963,20 0,8 -1.203,12 -4.963,20 h -30.075 c -3.759,-8 -4.962,-12 -4.962,-20 0,-8 1.203,-12 4.962,-20 z"
     id="path134"
     inkscape:connector-curvature="0" />
  <text
     font-size="12.8"
     style="font-style:normal;font-weight:normal;font-size:12.80000019px;font-family:sans-serif;text-anchor:middle;fill:#000000;fill-opacity:1;stroke:none"
     x="268.20901"
     y="490.76599"
     id="text138">
    <tspan
       x="268.20901"
       y="490.76599"
       id="tspan136">g</tspan>
  </text>
  <polygon
     style="fill:#ffffff;fill-opacity:1;fill-rule:evenodd;stroke:#000000;stroke-width:2;stroke-opacity:1"
     points="277.113,483.298 277.113,449.298 290.813,449.298 302.813,461.298 302.813,483.298 "
     id="polygon140" />
  <polyline
     style="fill:none;stroke:#000000;stroke-width:1;stroke-opacity:1"
     points="290.813,449.298 290.813,461.298 302.813,461.298 "
     id="polyline142" />
  <text
     font-size="12.8"
     style="font-style:normal;font-weight:normal;font-size:12.80000019px;font-family:monospace;text-anchor:start;fill:#000000;fill-opacity:1;stroke:none"
     x="284.11301"
     y="474.198"
     id="text146">
    <tspan
       x="284.11301"
       y="474.198"
       id="tspan144">3</tspan>
  </text>
  <path
     style="fill:#b8e1e2;fill-opacity:1;fill-rule:evenodd;stroke:#000000;stroke-width:2;stroke-opacity:1"
     d="m 184.408,464.802 h 30.075 c 3.76,8 4.963,12 4.963,20 0,8 -1.203,12 -4.963,20 h -30.075 c -3.759,-8 -4.962,-12 -4.962,-20 0,-8 1.203,-12 4.962,-20 z"
     id="path150"
     inkscape:connector-curvature="0" />
  <text
     font-size="12.8"
     style="font-style:normal;font-weight:normal;font-size:12.80000019px;font-family:sans-serif;text-anchor:middle;fill:#000000;fill-opacity:1;stroke:none"
     x="199.446"
     y="488.802"
     id="text154">
    <tspan
       x="199.446"
       y="488.802"
       id="tspan152">r</tspan>
  </text>
  <text
     font-size="12.8"
     style="font-style:normal;font-weight:normal;font-size:12.80000019px;font-family:sans-serif;text-anchor:start;fill:#000000;fill-opacity:1;stroke:none"
     x="183.162"
     y="519.88397"
     id="text158">
    <tspan
       xml:space="preserve"
       x="183.162"
       y="519.88397"
       id="tspan156"> float</tspan>  </text>
  <polygon
     style="fill:#ffffff;fill-opacity:1;fill-rule:evenodd;stroke:#000000;stroke-width:2;stroke-opacity:1"
     points="211.394,480.762 211.394,446.762 225.094,446.762 237.094,458.762 237.094,480.762 "
     id="polygon160" />
  <polyline
     style="fill:none;stroke:#000000;stroke-width:1;stroke-opacity:1"
     points="225.094,446.762 225.094,458.762 237.094,458.762 "
     id="polyline162" />
  <text
     font-size="12.8"
     style="font-style:normal;font-weight:normal;font-size:12.80000019px;font-family:monospace;text-anchor:start;fill:#000000;fill-opacity:1;stroke:none"
     x="218.394"
     y="471.66199"
     id="text166">
    <tspan
       x="218.394"
       y="471.66199"
       id="tspan164">3</tspan>
  </text>
  <text
     font-size="12.8"
     style="font-style:normal;font-weight:normal;font-size:12.80000019px;font-family:sans-serif;text-anchor:start;fill:#000000;fill-opacity:1;stroke:none"
     x="288.138"
     y="426.85599"
     id="text172">
    <tspan
       xml:space="preserve"
       x="288.138"
       y="426.85599"
       id="tspan170"> char</tspan>  </text>
  <path
     style="fill:#f17017;fill-opacity:1;fill-rule:evenodd;stroke:#000000;stroke-width:2;stroke-opacity:1"
     d="m 279.338,374.264 h 49.15 c 6.144,8 8.11,12 8.11,20 0,8 -1.966,12 -8.11,20 h -49.15 c -6.144,-8 -8.11,-12 -8.11,-20 0,-8 1.966,-12 8.11,-20 z"
     id="path174"
     inkscape:connector-curvature="0" />
  <text
     font-size="12.8"
     style="font-style:normal;font-weight:normal;font-size:12.80000019px;font-family:sans-serif;text-anchor:middle;fill:#000000;fill-opacity:1;stroke:none"
     x="303.91299"
     y="398.26401"
     id="text178">
    <tspan
       x="303.91299"
       y="398.26401"
       id="tspan176">alpha</tspan>
  </text>
  <polygon
     style="fill:#ffffff;fill-opacity:1;fill-rule:evenodd;stroke:#000000;stroke-width:2;stroke-opacity:1"
     points="323.034,388.748 323.034,354.748 336.734,354.748 348.734,366.748 348.734,388.748 "
     id="polygon180" />
  <polyline
     style="fill:none;stroke:#000000;stroke-width:1;stroke-opacity:1"
     points="336.734,354.748 336.734,366.748 348.734,366.748 "
     id="polyline182" />
  <text
     font-size="12.8"
     style="font-style:normal;font-weight:normal;font-size:12.80000019px;font-family:monospace;text-anchor:start;fill:#000000;fill-opacity:1;stroke:none"
     x="330.034"
     y="379.64801"
     id="text186">
    <tspan
       x="330.034"
       y="379.64801"
       id="tspan184">3</tspan>
  </text>
  <text
     font-size="12.8"
     style="font-style:normal;font-weight:normal;font-size:12.80000019px;font-family:sans-serif;text-anchor:start;fill:#000000;fill-opacity:1;stroke:none"
     x="315.35999"
     y="520.948"
     id="text192">
    <tspan
       xml:space="preserve"
       x="315.35999"
       y="520.948"
       id="tspan190"> float</tspan>  </text>
  <path
     style="fill:#b8e1e2;fill-opacity:1;fill-rule:evenodd;stroke:#000000;stroke-width:2;stroke-opacity:1"
     d="m 318.984,466.252 h 30.075 c 3.76,8 4.963,12 4.963,20 0,8 -1.203,12 -4.963,20 h -30.075 c -3.759,-8 -4.962,-12 -4.962,-20 0,-8 1.203,-12 4.962,-20 z"
     id="path194"
     inkscape:connector-curvature="0" />
  <text
     font-size="12.8"
     style="font-style:normal;font-weight:normal;font-size:12.80000019px;font-family:sans-serif;text-anchor:middle;fill:#000000;fill-opacity:1;stroke:none"
     x="334.022"
     y="490.25201"
     id="text198">
    <tspan
       x="334.022"
       y="490.25201"
       id="tspan196">b</tspan>
  </text>
  <polygon
     style="fill:#ffffff;fill-opacity:1;fill-rule:evenodd;stroke:#000000;stroke-width:2;stroke-opacity:1"
     points="342.926,482.784 342.926,448.784 356.626,448.784 368.626,460.784 368.626,482.784 "
     id="polygon200" />
  <polyline
     style="fill:none;stroke:#000000;stroke-width:1;stroke-opacity:1"
     points="356.626,448.784 356.626,460.784 368.626,460.784 "
     id="polyline202" />
  <text
     font-size="12.8"
     style="font-style:normal;font-weight:normal;font-size:12.80000019px;font-family:monospace;text-anchor:start;fill:#000000;fill-opacity:1;stroke:none"
     x="349.92599"
     y="473.68399"
     id="text206">
    <tspan
       x="349.92599"
       y="473.68399"
       id="tspan204">3</tspan>
  </text>
</svg>
