<?xml version="1.0" encoding="UTF-8" standalone="no"?>
<svg
   xmlns:dc="http://purl.org/dc/elements/1.1/"
   xmlns:cc="http://creativecommons.org/ns#"
   xmlns:rdf="http://www.w3.org/1999/02/22-rdf-syntax-ns#"
   xmlns:svg="http://www.w3.org/2000/svg"
   xmlns="http://www.w3.org/2000/svg"
   xmlns:sodipodi="http://sodipodi.sourceforge.net/DTD/sodipodi-0.dtd"
   xmlns:inkscape="http://www.inkscape.org/namespaces/inkscape"
   width="5cm"
   height="8cm"
   viewBox="490 58 81 150"
   version="1.1"
   id="svg53"
   sodipodi:docname="ud_tree_2.svg"
   inkscape:version="0.92.3 (2405546, 2018-03-11)">
  <metadata
     id="metadata59">
    <rdf:RDF>
      <cc:Work
         rdf:about="">
        <dc:format>image/svg+xml</dc:format>
        <dc:type
           rdf:resource="http://purl.org/dc/dcmitype/StillImage" />
        <dc:title></dc:title>
      </cc:Work>
    </rdf:RDF>
  </metadata>
  <defs
     id="defs57" />
  <sodipodi:namedview
     pagecolor="#ffffff"
     bordercolor="#666666"
     borderopacity="1"
     objecttolerance="10"
     gridtolerance="10"
     guidetolerance="10"
     inkscape:pageopacity="0"
     inkscape:pageshadow="2"
     inkscape:window-width="1920"
     inkscape:window-height="1028"
     id="namedview55"
     showgrid="false"
     inkscape:zoom="0.78052083"
     inkscape:cx="-249.51288"
     inkscape:cy="151.1811"
     inkscape:window-x="0"
     inkscape:window-y="28"
     inkscape:window-maximized="1"
     inkscape:current-layer="svg53" />
  <path
     style="fill:#ffffff;fill-opacity:1;fill-rule:evenodd;stroke:#000000;stroke-width:2;stroke-opacity:1"
     d="m 492.316,76.702 h 55.131 v 40 h -55.131 z"
     id="polygon2" />
  <path
     style="fill:none;stroke:#000000;stroke-width:2;stroke-opacity:1"
     d="M 497.82901,76.702003 V 116.702"
     id="line4" />
  <path
     style="fill:none;stroke:#000000;stroke-width:2;stroke-opacity:1"
     d="M 541.93402,76.702003 V 116.702"
     id="line6" />
  <g
     style="font-style:normal;font-weight:normal;font-size:12.80000019px;font-family:sans-serif;text-anchor:middle;fill:#000000;fill-opacity:1;stroke:none"
     id="text10" />
  <path
     style="fill:#ffffff;fill-opacity:1;fill-rule:evenodd;stroke:#000000;stroke-width:2;stroke-opacity:1"
     d="m 493.876,165.892 h 53.594 v 40 h -53.594 z"
     id="polygon14" />
  <path
     style="fill:none;stroke:#000000;stroke-width:2;stroke-opacity:1"
     d="m 499.23499,165.892 v 40"
     id="line16" />
  <path
     style="fill:none;stroke:#000000;stroke-width:2;stroke-opacity:1"
     d="m 542.10999,165.892 v 40"
     id="line18" />
  <g
     style="font-style:normal;font-weight:normal;font-size:12.80000019px;font-family:sans-serif;text-anchor:middle;fill:#000000;fill-opacity:1;stroke:none"
     id="text22" />
  <path
     style="fill:none;stroke:#000000;stroke-width:2;stroke-opacity:1"
     d="m 519.88202,116.702 0.61499,38.192"
     id="line26" />
  <path
     style="fill:#000000;fill-opacity:1;fill-rule:evenodd;stroke:#000000;stroke-width:2;stroke-opacity:1"
     d="m 520.658,164.893 4.838,-10.08 -9.998,0.161 z"
     id="polygon28" />
  <path
     style="fill:#ffffff;fill-opacity:1;fill-rule:evenodd;stroke:#000000;stroke-width:2;stroke-opacity:1"
     d="m 531.358,179.764 v -34 h 21.4 l 12,12 v 22 z"
     id="polygon32" />
  <path
     style="fill:none;stroke:#000000;stroke-width:1;stroke-opacity:1"
     d="m 552.758,145.764 v 12 h 12"
     id="polyline34" />
  <g
     aria-label="64"
     style="font-style:normal;font-weight:normal;font-size:12.80000019px;font-family:monospace;text-anchor:start;fill:#000000;fill-opacity:1;stroke:none"
     id="text38">
    <path
       d="m 544.55172,161.539 v 1.1625 q -0.39375,-0.23125 -0.8375,-0.35 -0.44375,-0.125 -0.925,-0.125 -1.2,0 -1.81875,0.90625 -0.61875,0.9 -0.61875,2.65625 0.3,-0.625 0.83125,-0.95625 0.53125,-0.3375 1.21875,-0.3375 1.35,0 2.0875,0.83125 0.74375,0.825 0.74375,2.34375 0,1.5125 -0.7625,2.34375 -0.7625,0.83125 -2.14375,0.83125 -1.625,0 -2.38125,-1.1625 -0.75625,-1.16875 -0.75625,-3.675 0,-2.3625 0.90625,-3.6 0.9125,-1.24375 2.6375,-1.24375 0.4625,0 0.925,0.1 0.4625,0.0937 0.89375,0.275 z m -2.25,3.94375 q -0.80625,0 -1.26875,0.58125 -0.4625,0.58125 -0.4625,1.60625 0,1.025 0.4625,1.60625 0.4625,0.58125 1.26875,0.58125 0.8375,0 1.2625,-0.55 0.425,-0.55625 0.425,-1.6375 0,-1.0875 -0.425,-1.6375 -0.425,-0.55 -1.2625,-0.55 z"
       style=""
       id="path895" />
    <path
       d="m 550.65172,162.48275 -2.94375,4.93125 h 2.94375 z m -0.20625,-1.15 h 1.4625 v 6.08125 h 1.24375 v 1.025 h -1.24375 v 2.225 h -1.25625 v -2.225 h -3.95625 v -1.19375 z"
       style=""
       id="path897" />
  </g>
  <path
     style="fill:#ffffff;fill-opacity:1;fill-rule:evenodd;stroke:#000000;stroke-width:2;stroke-opacity:1"
     d="m 528.954,93.0024 v -34 h 29.1 l 12,12 v 22 z"
     id="polygon42" />
  <path
     style="fill:none;stroke:#000000;stroke-width:1;stroke-opacity:1"
     d="m 558.054,59.0024 v 12 h 12"
     id="polyline44" />
  <g
     aria-label="128"
     style="font-style:normal;font-weight:normal;font-size:12.80000019px;font-family:monospace;text-anchor:start;fill:#000000;fill-opacity:1;stroke:none"
     id="text48">
    <path
       d="m 537.64148,82.839897 h 1.9625 v -7.13125 l -2.1125,0.475 v -1.15 l 2.1,-0.4625 h 1.2625 v 8.26875 h 1.9375 v 1.0625 h -5.15 z"
       style=""
       id="path902" />
    <path
       d="m 545.98523,82.839897 h 4.2875 v 1.0625 h -5.66875 v -1.0625 q 1.16875,-1.23125 2.04375,-2.175 0.875,-0.94375 1.20625,-1.33125 0.625,-0.7625 0.84375,-1.23125 0.21875,-0.475 0.21875,-0.96875 0,-0.78125 -0.4625,-1.225 -0.45625,-0.44375 -1.25625,-0.44375 -0.56875,0 -1.19375,0.20625 -0.625,0.20625 -1.325,0.625 v -1.275 q 0.64375,-0.30625 1.2625,-0.4625 0.625,-0.15625 1.23125,-0.15625 1.36875,0 2.2,0.73125 0.8375,0.725 0.8375,1.90625 0,0.6 -0.28125,1.2 -0.275,0.6 -0.9,1.325 -0.35,0.40625 -1.01875,1.125 -0.6625,0.71875 -2.025,2.15 z"
       style=""
       id="path904" />
    <path
       d="m 555.20398,79.471147 q -0.84375,0 -1.30625,0.475 -0.45625,0.46875 -0.45625,1.33125 0,0.8625 0.4625,1.34375 0.46875,0.475 1.3,0.475 0.85,0 1.30625,-0.46875 0.4625,-0.475 0.4625,-1.35 0,-0.85625 -0.46875,-1.33125 -0.4625,-0.475 -1.3,-0.475 z m -1.1,-0.525 q -0.80625,-0.20625 -1.2625,-0.76875 -0.45,-0.5625 -0.45,-1.35625 0,-1.1125 0.75625,-1.7625 0.75625,-0.65625 2.05625,-0.65625 1.30625,0 2.0625,0.65625 0.75625,0.65 0.75625,1.7625 0,0.79375 -0.45625,1.35625 -0.45,0.5625 -1.25625,0.76875 0.9375,0.20625 1.43125,0.83125 0.5,0.625 0.5,1.61875 0,1.2625 -0.80625,1.975 -0.80625,0.7125 -2.23125,0.7125 -1.425,0 -2.23125,-0.70625 -0.8,-0.7125 -0.8,-1.96875 0,-1 0.49375,-1.625 0.5,-0.63125 1.4375,-0.8375 z m -0.45625,-2.00625 q 0,0.75 0.4,1.14375 0.4,0.39375 1.15625,0.39375 0.7625,0 1.1625,-0.39375 0.4,-0.39375 0.4,-1.14375 0,-0.7625 -0.4,-1.1625 -0.39375,-0.4 -1.1625,-0.4 -0.75625,0 -1.15625,0.40625 -0.4,0.4 -0.4,1.15625 z"
       style=""
       id="path906" />
  </g>
</svg>
